{"glyphs":{"0":{"ha":771,"x_min":58,"x_max":714,"o":"m 714 424 q 631 58 714 183 q 384 -68 548 -68 q 58 424 58 -68 q 94 703 58 594 q 201 863 130 811 q 388 916 271 916 q 634 795 554 916 q 714 424 714 674 m 557 424 q 540 637 557 557 q 487 755 523 718 q 388 792 450 792 q 254 708 293 792 q 214 424 214 623 q 254 144 214 231 q 385 56 294 56 q 516 145 475 56 q 557 424 557 234 z "},"1":{"ha":771,"x_min":98,"x_max":711,"o":"m 98 71 l 345 71 l 345 759 l 121 616 l 121 745 l 355 901 l 500 901 l 500 71 l 711 71 l 711 -54 l 98 -54 l 98 71 z "},"2":{"ha":771,"x_min":63,"x_max":706,"o":"m 63 -54 l 63 55 q 159 210 97 134 q 326 372 222 286 q 492 534 452 477 q 532 644 532 591 q 494 751 532 713 q 385 789 455 789 q 230 643 249 789 l 73 654 q 167 846 87 777 q 381 916 248 916 q 609 846 528 916 q 691 650 691 777 q 668 538 691 590 q 600 436 644 486 q 456 305 556 385 q 240 77 283 168 l 706 77 l 706 -54 l 63 -54 z "},"3":{"ha":771,"x_min":47,"x_max":707,"o":"m 707 210 q 622 3 707 75 q 380 -68 538 -68 q 148 -2 233 -68 q 47 198 63 65 l 205 212 q 259 96 216 134 q 380 58 302 58 q 503 100 460 58 q 546 218 546 141 q 493 327 546 288 q 338 366 440 366 l 268 366 l 268 496 l 334 496 q 475 534 426 496 q 524 644 524 572 q 486 753 524 717 q 378 789 448 789 q 222 648 238 789 l 67 659 q 164 848 81 781 q 380 916 247 916 q 603 849 525 916 q 681 662 681 783 q 632 516 681 576 q 484 436 584 457 l 484 433 q 647 362 588 422 q 707 210 707 302 z "},"4":{"ha":771,"x_min":26,"x_max":741,"o":"m 601 146 l 601 -54 l 451 -54 l 451 146 l 26 146 l 26 274 l 420 901 l 601 901 l 601 272 l 741 272 l 741 146 l 601 146 m 451 739 l 163 272 l 451 272 l 451 739 z "},"5":{"ha":771,"x_min":59,"x_max":712,"o":"m 712 260 q 622 20 712 107 q 371 -68 531 -68 q 159 -7 238 -68 q 59 172 80 54 l 215 186 q 248 109 229 134 q 300 71 268 84 q 378 57 332 57 q 507 109 463 57 q 552 257 552 160 q 509 391 552 342 q 387 439 465 439 q 309 426 343 439 q 238 376 274 412 l 89 376 l 119 901 l 658 901 l 658 774 l 256 774 l 240 509 q 422 566 310 566 q 634 484 557 566 q 712 260 712 402 z "},"6":{"ha":771,"x_min":66,"x_max":715,"o":"m 66 401 q 154 786 66 656 q 416 916 241 916 q 593 869 527 916 q 690 715 659 822 l 543 691 q 413 791 513 791 q 219 450 222 791 q 308 534 252 505 q 435 563 363 563 q 639 481 563 563 q 715 258 715 400 q 632 19 715 106 q 403 -68 549 -68 q 153 49 239 -68 q 66 401 66 166 m 232 279 q 277 118 232 182 q 398 55 323 55 q 516 108 474 55 q 558 253 558 161 q 515 395 558 345 q 393 446 471 446 q 277 400 322 446 q 232 279 232 355 z "},"7":{"ha":771,"x_min":69,"x_max":704,"o":"m 704 776 q 514 449 576 578 q 420 196 452 319 q 388 -54 388 73 l 227 -54 q 300 317 227 125 q 557 770 374 508 l 69 770 l 69 901 l 704 901 l 704 776 z "},"8":{"ha":771,"x_min":58,"x_max":712,"o":"m 712 214 q 628 5 712 77 q 386 -68 544 -68 q 143 5 229 -68 q 58 212 58 79 q 110 366 58 303 q 248 446 161 429 l 248 448 q 126 528 172 467 q 80 670 80 590 q 160 849 80 783 q 383 916 241 916 q 608 851 528 916 q 689 669 689 787 q 643 527 689 589 q 521 450 597 465 l 521 447 q 662 369 611 431 q 712 214 712 308 m 529 656 q 383 803 529 803 q 239 656 239 803 q 277 543 239 583 q 385 504 315 504 q 492 542 454 504 q 529 656 529 581 m 551 227 q 508 349 551 306 q 382 391 465 391 q 261 346 304 391 q 218 224 218 301 q 261 90 218 136 q 387 45 304 45 q 512 90 472 45 q 551 227 551 134 z "},"9":{"ha":771,"x_min":56,"x_max":705,"o":"m 705 441 q 617 60 705 189 q 355 -68 528 -68 q 166 -17 235 -68 q 68 140 97 35 l 215 162 q 358 56 248 56 q 552 395 545 56 q 465 313 524 343 q 332 283 406 283 q 130 367 205 283 q 56 600 56 452 q 140 832 56 749 q 377 916 224 916 q 623 799 541 916 q 705 441 705 682 m 540 571 q 495 731 540 670 q 373 792 450 792 q 255 741 296 792 q 213 599 213 690 q 255 454 213 506 q 373 402 298 402 q 493 448 446 402 q 540 571 540 494 z "},"　":{"ha":1389,"x_min":0,"x_max":0,"o":"z "},"、":{"ha":1389,"x_min":154,"x_max":532,"o":"m 154 116 l 229 203 q 532 -83 389 75 l 433 -174 q 154 116 303 -5 z "},"㵲":{"ha":1389,"x_min":50,"x_max":1329,"o":"m 700 424 q 728 393 728 406 q 696 370 726 378 l 697 370 q 636 319 666 361 l 728 319 q 856 332 771 318 q 421 -186 762 -49 q 318 -86 389 -125 q 586 39 475 -54 q 486 89 557 56 l 546 179 q 653 121 604 155 q 705 227 680 158 l 575 227 q 440 93 519 163 q 343 171 401 142 q 602 457 509 279 l 504 457 q 406 444 480 458 l 406 559 q 459 552 440 554 q 500 550 479 550 l 545 550 l 545 660 l 524 660 q 443 647 505 662 l 443 725 q 323 781 403 758 q 517 1097 446 894 l 615 1058 q 645 1036 644 1048 q 616 1011 646 1023 q 589 982 604 1007 q 583 969 587 978 q 576 956 578 960 l 1186 956 q 1286 966 1215 954 l 1286 850 q 1229 860 1249 857 q 1189 863 1209 863 l 1156 863 l 1156 753 l 1189 753 q 1287 764 1217 751 l 1287 647 q 1189 660 1223 661 l 1156 660 l 1156 550 l 1225 550 q 1320 561 1263 549 l 1320 444 q 1262 454 1278 452 q 1227 457 1244 457 l 627 457 l 700 424 m 850 228 l 943 212 q 976 193 972 206 q 957 161 979 179 q 936 111 939 146 l 1029 111 l 1029 250 l 964 250 q 864 240 934 250 l 864 358 q 920 348 900 351 q 964 346 940 346 l 1029 346 q 1019 448 1029 404 l 1143 436 q 1178 419 1175 432 q 1156 386 1181 406 q 1141 346 1145 379 l 1213 346 q 1311 358 1256 347 l 1311 236 q 1214 250 1257 250 l 1141 250 l 1141 111 l 1229 111 q 1329 122 1258 110 l 1329 3 q 1272 13 1292 10 q 1229 15 1254 15 l 1141 15 l 1141 -92 q 1153 -201 1140 -127 l 1019 -201 q 1027 -138 1025 -159 q 1029 -90 1029 -117 l 1029 15 l 936 15 q 804 3 866 14 q 850 228 841 119 m 261 376 l 372 298 q 225 -192 247 -73 l 81 -119 q 261 376 160 7 m 50 611 l 119 701 q 340 529 240 621 l 273 428 q 50 611 162 534 m 103 941 l 170 1034 q 186 1022 176 1029 q 380 872 310 937 l 306 782 q 103 941 205 870 m 812 863 l 812 753 l 888 753 l 888 863 l 812 863 m 812 660 l 812 550 l 888 550 l 888 660 l 812 660 m 1059 863 l 985 863 l 985 753 l 1059 753 l 1059 863 m 642 863 l 642 753 l 715 753 l 715 863 l 642 863 m 985 660 l 985 550 l 1059 550 l 1059 660 l 985 660 m 642 660 l 642 550 l 715 550 l 715 660 l 642 660 m 545 863 l 529 863 q 465 758 507 820 q 506 753 496 754 q 526 753 515 753 l 545 753 l 545 863 z "},"一":{"ha":1389,"x_min":79,"x_max":1297,"o":"m 79 384 l 79 523 q 314 513 184 515 l 1079 513 q 1297 524 1202 515 l 1297 385 q 1083 398 1203 396 l 322 398 q 79 384 159 398 z "},"丁":{"ha":1389,"x_min":97,"x_max":1299,"o":"m 1126 836 l 822 836 l 822 22 q 769 -127 825 -96 q 525 -170 720 -163 q 454 -6 513 -115 q 633 -35 602 -37 q 680 -19 667 -35 q 692 41 692 -4 l 692 836 l 269 836 q 97 824 186 833 l 97 955 q 269 942 180 942 l 1126 942 q 1299 954 1209 942 l 1299 825 q 1126 836 1206 834 z "},"七":{"ha":1389,"x_min":74,"x_max":1301,"o":"m 660 885 l 660 560 l 1092 659 q 1265 718 1163 673 l 1301 580 q 1126 552 1216 572 l 660 442 l 660 17 q 671 -29 659 -21 q 726 -44 679 -39 q 879 -51 791 -51 q 1042 -41 1007 -51 q 1108 188 1113 -28 q 1258 75 1190 98 q 1082 -149 1211 -134 q 850 -165 1022 -163 q 701 -158 771 -165 q 561 -114 586 -146 q 532 18 530 -87 l 532 416 l 269 352 q 111 298 193 336 l 74 444 q 227 463 155 445 l 532 530 l 532 870 q 521 1041 532 964 l 663 1023 q 692 1013 690 1020 q 694 1003 694 1006 q 677 971 694 990 q 660 885 659 956 z "},"万":{"ha":1389,"x_min":82,"x_max":1305,"o":"m 82 831 l 82 970 q 254 954 159 958 l 1133 954 q 1305 970 1230 958 l 1305 831 q 1133 846 1230 841 l 650 846 q 646 789 649 828 q 636 620 640 666 l 971 620 q 1137 635 1071 625 q 1118 474 1125 566 q 1096 153 1105 312 q 1019 -85 1086 -43 q 726 -134 963 -138 q 667 31 723 -74 q 873 -2 829 -3 q 939 28 922 -3 q 962 145 958 55 l 987 513 l 625 513 q 233 -170 576 82 q 86 -75 178 -121 q 514 846 526 127 l 254 846 q 82 831 171 842 z "},"丈":{"ha":1389,"x_min":83,"x_max":1333,"o":"m 83 -73 q 583 184 444 -24 q 275 601 382 388 l 382 673 q 642 303 471 476 q 697 707 693 455 l 273 707 q 113 696 200 705 l 113 825 q 273 814 194 817 l 699 814 l 699 910 q 688 1074 698 979 l 840 1052 q 863 1033 861 1048 q 844 1000 864 1017 q 827 923 825 987 l 827 814 l 1117 814 q 1278 827 1207 819 l 1278 696 q 1117 707 1204 704 l 825 707 q 743 212 813 393 q 1333 -15 1029 5 q 1239 -163 1281 -73 q 681 102 918 -65 q 175 -206 549 -79 q 83 -73 135 -134 z "},"三":{"ha":1389,"x_min":74,"x_max":1305,"o":"m 1305 63 l 1305 -72 q 1133 -59 1217 -60 l 245 -59 q 74 -72 156 -60 l 74 64 q 245 52 160 54 l 1133 52 q 1305 63 1208 53 m 167 799 l 167 937 q 339 924 241 925 l 1029 924 q 1202 937 1121 926 l 1202 799 q 1029 812 1123 810 l 339 812 q 167 799 250 811 m 264 382 l 264 519 q 422 507 358 508 l 950 507 q 1108 519 1024 507 l 1108 384 q 950 395 1000 395 l 422 395 q 264 382 347 394 z "},"上":{"ha":1389,"x_min":75,"x_max":1282,"o":"m 75 -132 l 75 -3 q 235 -15 180 -15 l 562 -15 l 562 878 q 551 1037 562 929 l 685 1019 q 730 1003 727 1014 q 704 964 734 994 q 690 878 690 957 l 690 627 l 1018 627 q 1168 640 1077 627 l 1168 509 q 1018 520 1088 520 l 690 520 l 690 -15 l 1120 -15 q 1282 -2 1185 -15 l 1282 -132 q 1120 -120 1187 -120 l 235 -120 q 75 -132 178 -121 z "},"下":{"ha":1389,"x_min":98,"x_max":1291,"o":"m 1088 861 l 732 861 l 732 96 q 743 -174 734 -96 l 590 -174 q 602 96 599 -100 l 602 861 l 296 861 q 98 850 188 859 l 98 981 q 296 971 190 972 l 1088 971 q 1291 983 1206 972 l 1291 849 q 1088 861 1204 859 m 760 589 l 851 678 q 1223 320 1024 519 l 1121 222 q 760 589 952 429 z "},"且":{"ha":1389,"x_min":66,"x_max":1321,"o":"m 222 -3 l 335 -3 l 335 821 q 323 988 335 896 q 493 976 429 977 l 909 976 q 1079 988 982 977 q 1069 821 1069 894 l 1069 -3 l 1162 -3 q 1321 6 1232 -4 l 1321 -119 q 1162 -106 1223 -106 l 222 -106 q 66 -117 161 -106 l 66 6 q 222 -3 156 -3 m 460 222 l 460 -3 l 943 -3 l 943 222 l 460 222 m 460 871 l 460 649 l 943 649 l 943 871 l 460 871 m 460 545 l 460 326 l 943 326 l 943 545 l 460 545 z "},"世":{"ha":1389,"x_min":68,"x_max":1331,"o":"m 68 522 l 68 650 q 212 640 159 640 l 265 640 l 265 820 q 254 983 264 893 l 399 964 q 427 952 425 960 q 429 942 429 944 q 411 911 429 928 q 393 827 392 899 l 393 640 l 575 640 l 575 873 q 564 1042 572 953 l 710 1024 q 737 1007 734 1021 q 721 971 740 994 q 703 885 701 956 l 703 640 l 930 640 l 930 876 q 920 1045 928 951 l 1065 1027 q 1095 1010 1093 1023 q 1075 975 1097 996 q 1059 888 1057 962 l 1059 640 l 1183 640 q 1331 650 1240 641 l 1331 522 q 1183 532 1225 532 l 1059 532 l 1059 278 q 1069 115 1061 213 q 897 125 962 124 l 736 125 q 564 113 682 125 q 575 277 572 186 l 575 532 l 393 532 l 393 -37 l 1122 -37 q 1275 -27 1190 -35 l 1275 -151 q 1122 -140 1189 -142 l 412 -140 q 254 -151 366 -140 q 265 -16 264 -64 l 265 532 l 212 532 q 68 522 152 531 m 703 532 l 703 230 l 930 230 l 930 532 l 703 532 z "},"丘":{"ha":1389,"x_min":65,"x_max":1337,"o":"m 296 935 q 476 923 388 924 q 1080 1027 873 932 l 1156 907 q 1167 878 1167 889 q 1161 865 1167 871 q 1144 859 1154 859 q 1109 865 1132 859 q 1069 870 1089 871 q 1006 862 1047 870 q 436 810 787 820 l 436 562 l 1054 562 q 1207 574 1115 561 l 1207 446 q 1054 458 1107 458 l 930 458 l 930 7 l 1185 7 q 1337 18 1249 7 l 1337 -106 q 1185 -95 1232 -94 l 212 -95 q 65 -106 171 -94 l 65 18 q 212 7 156 7 l 309 7 l 309 755 q 296 935 307 854 m 436 7 l 800 7 l 800 458 l 436 458 l 436 7 z "},"丙":{"ha":1389,"x_min":83,"x_max":1318,"o":"m 765 719 l 1048 719 q 1207 732 1114 721 q 1197 574 1198 641 l 1197 26 q 1175 -107 1200 -87 q 1038 -162 1161 -134 q 937 -173 1032 -162 q 856 -11 920 -98 q 1008 -33 972 -35 q 1062 -19 1051 -30 q 1074 24 1074 -10 l 1074 186 l 983 102 q 704 392 887 225 q 421 62 635 229 q 326 142 374 109 l 326 12 q 339 -154 328 -90 l 192 -154 q 203 12 201 -86 l 203 576 q 189 734 201 669 q 347 719 259 722 l 637 719 q 646 897 645 795 l 244 897 q 83 881 153 896 l 83 1012 q 244 998 151 998 l 1157 998 q 1318 1012 1255 1000 l 1318 882 q 1157 897 1244 895 l 774 897 q 765 719 772 799 m 326 617 l 326 151 q 629 617 598 331 l 326 617 m 760 617 q 743 512 752 548 q 1074 212 913 375 l 1074 617 l 760 617 z "},"业":{"ha":1389,"x_min":82,"x_max":1307,"o":"m 1109 772 l 1251 699 q 1271 673 1274 688 q 1242 648 1268 658 q 1208 605 1222 640 q 997 166 1122 390 q 892 203 928 195 l 892 -16 l 1177 -16 q 1307 -3 1221 -17 l 1307 -134 q 1177 -121 1216 -121 l 214 -121 q 94 -133 189 -121 q 82 -134 86 -134 l 82 -3 q 214 -16 161 -16 l 497 -16 l 497 867 q 486 1034 495 949 l 639 1016 q 666 997 664 1013 q 646 962 668 982 q 628 876 628 947 l 628 -16 l 761 -16 l 761 863 q 750 1029 759 946 l 903 1012 q 930 993 928 1008 q 909 958 932 978 q 892 871 892 943 l 892 255 q 1109 772 1040 495 m 273 783 q 492 235 401 520 l 361 176 q 151 724 281 485 l 273 783 z "},"丛":{"ha":1389,"x_min":68,"x_max":1324,"o":"m 425 420 q 205 37 353 227 q 68 108 144 78 q 345 625 290 292 q 355 842 355 741 q 342 1040 355 931 l 497 1020 q 531 1000 527 1017 q 510 959 534 982 q 492 866 494 952 q 471 569 483 699 q 672 319 598 422 q 571 223 624 277 q 425 420 462 385 m 1293 -2 l 1293 -130 q 1121 -119 1210 -121 l 244 -119 q 72 -130 152 -122 l 72 -2 q 244 -14 173 -11 l 1121 -14 q 1293 -2 1183 -12 m 921 439 q 608 7 868 193 q 493 109 566 58 q 839 631 789 233 q 846 833 846 693 q 836 1053 846 955 l 994 1031 q 1029 1012 1025 1027 q 1008 976 1034 997 q 982 890 984 960 q 981 773 981 859 q 991 627 981 686 q 1324 117 1071 333 q 1173 43 1244 100 q 921 439 980 262 z "},"东":{"ha":1389,"x_min":82,"x_max":1312,"o":"m 536 1095 l 660 1055 q 703 1028 703 1042 q 660 992 703 1015 q 635 958 644 982 q 621 918 629 941 q 606 873 613 892 l 1152 873 q 1310 884 1219 873 l 1310 759 q 1152 768 1220 768 l 561 768 q 421 479 515 667 l 660 479 l 660 539 q 650 701 661 604 l 798 682 q 821 666 820 679 q 802 630 822 652 q 786 557 785 616 l 786 479 l 1044 479 q 1189 490 1089 479 l 1189 364 q 1108 374 1139 371 q 1050 376 1079 376 l 786 376 l 786 -62 q 738 -157 789 -132 q 533 -203 690 -186 q 482 -52 531 -130 q 511 -56 492 -54 q 624 -69 610 -70 q 660 -28 663 -72 l 660 376 l 393 376 q 288 334 361 379 l 222 466 q 310 539 275 484 q 421 768 355 614 l 240 768 q 82 758 183 769 l 82 884 q 240 873 171 873 l 469 873 q 536 1095 510 970 m 478 115 q 191 -141 367 -12 q 86 -44 157 -90 q 428 275 321 73 l 553 203 q 567 184 567 195 q 563 173 567 181 q 526 155 558 164 q 478 115 508 150 m 868 166 l 956 264 q 1312 -22 1135 144 l 1215 -121 q 868 166 1049 48 z "},"两":{"ha":1389,"x_min":103,"x_max":1308,"o":"m 925 715 l 1046 715 q 1213 727 1130 715 q 1200 560 1200 636 l 1200 -27 q 1201 -41 1201 -36 q 899 -183 1201 -156 q 822 -27 876 -99 q 994 -40 937 -39 q 1059 -26 1043 -40 q 1075 26 1076 -14 l 1075 209 l 981 128 q 868 291 930 214 q 737 48 824 169 q 602 117 660 96 q 800 610 794 309 l 624 610 q 622 591 623 604 q 614 522 617 544 q 755 360 688 443 l 647 269 q 576 372 614 323 q 427 116 531 241 q 338 177 391 146 l 338 -3 q 347 -169 338 -98 l 201 -169 q 212 -3 212 -92 l 212 560 q 201 727 212 648 q 368 715 299 715 l 497 715 q 498 781 498 749 q 498 817 498 796 q 498 871 498 833 l 256 871 q 103 861 186 871 l 103 991 q 256 979 177 979 l 1156 979 q 1308 991 1226 980 l 1308 861 q 1156 871 1219 871 l 926 871 q 926 774 926 806 q 925 715 926 738 m 925 610 q 907 438 921 513 q 1075 245 1017 318 l 1075 610 l 925 610 m 338 610 l 338 224 q 494 610 484 366 l 338 610 m 625 715 l 799 715 q 800 774 800 745 q 800 810 800 789 q 800 871 800 827 l 627 871 q 627 778 627 808 q 625 715 626 742 z "},"严":{"ha":1389,"x_min":36,"x_max":1295,"o":"m 367 479 q 330 80 370 212 q 176 -206 295 -55 q 36 -130 117 -164 q 233 355 228 5 q 220 598 233 509 q 396 584 330 585 l 550 584 l 550 877 l 347 877 q 186 863 254 876 l 186 998 q 347 981 243 983 l 1086 981 q 1247 996 1185 983 l 1247 865 q 1086 877 1176 876 l 917 877 l 917 584 l 1145 584 q 1295 600 1239 585 l 1295 465 q 1145 479 1233 477 l 367 479 m 677 877 l 677 584 l 789 584 l 789 877 l 677 877 m 1137 866 l 1246 783 q 1261 760 1261 770 q 1258 748 1261 757 q 1227 738 1255 740 q 1183 716 1202 736 q 1048 585 1151 680 q 951 669 1002 629 q 1137 866 1064 763 m 338 859 q 517 680 455 751 l 416 587 q 243 770 341 691 l 338 859 z "},"个":{"ha":1389,"x_min":39,"x_max":1357,"o":"m 39 481 q 639 1084 478 635 l 781 1029 q 803 1010 802 1021 q 785 988 804 998 q 758 964 768 979 q 1357 524 1008 638 q 1246 415 1308 490 q 1236 404 1240 408 q 692 852 873 612 q 163 366 526 581 q 89 439 141 400 q 39 481 56 464 m 774 496 l 774 -38 q 785 -224 774 -140 l 632 -224 q 643 -34 642 -140 l 643 522 q 632 656 644 568 l 778 634 q 804 621 802 631 q 791 587 807 612 q 774 496 773 557 z "},"中":{"ha":1389,"x_min":182,"x_max":1214,"o":"m 761 956 l 761 806 l 1048 806 q 1214 820 1130 807 q 1203 650 1204 746 l 1203 377 q 1214 202 1204 264 l 1065 202 q 1076 273 1074 245 l 761 273 l 761 -1 q 771 -201 760 -142 l 621 -201 q 632 -6 631 -131 l 632 273 l 319 273 q 330 195 321 254 q 332 181 331 186 l 182 181 q 195 389 193 251 l 195 641 q 182 820 193 748 q 357 806 271 808 l 632 806 l 632 911 q 621 1086 632 1004 l 765 1070 q 797 1061 795 1067 q 800 1053 800 1055 q 783 1024 800 1042 q 761 956 759 1004 m 632 699 l 319 699 l 319 380 l 632 380 l 632 699 m 761 699 l 761 380 l 1076 380 l 1076 699 l 761 699 z "},"丰":{"ha":1389,"x_min":81,"x_max":1307,"o":"m 250 275 l 624 275 l 624 449 l 393 449 q 237 437 329 448 l 237 567 q 393 555 334 555 l 624 555 l 624 715 l 319 715 q 161 702 251 714 l 161 833 q 319 821 248 822 l 624 821 l 624 905 q 614 1072 625 943 l 761 1049 q 787 1034 785 1046 q 771 1000 789 1021 q 753 926 751 981 l 753 821 l 1055 821 q 1214 833 1129 822 l 1214 702 q 1055 715 1127 713 l 753 715 l 753 555 l 1006 555 q 1161 567 1071 555 l 1161 438 q 1006 449 1066 449 l 753 449 l 753 275 l 1137 275 q 1307 288 1216 277 l 1307 156 q 1137 169 1215 168 l 753 169 l 753 -43 q 762 -214 753 -106 l 614 -214 q 624 -43 624 -102 l 624 169 l 250 169 q 81 157 176 168 l 81 287 q 250 275 185 276 z "},"临":{"ha":1389,"x_min":114,"x_max":1296,"o":"m 1235 495 q 1222 340 1224 416 l 1222 -18 q 1234 -174 1221 -97 l 1086 -174 q 1095 -109 1093 -134 q 1097 -54 1097 -85 l 717 -54 q 728 -186 716 -109 l 579 -186 q 591 -28 591 -111 l 591 336 q 579 495 591 413 q 737 483 669 482 l 1082 483 q 1235 495 1141 484 m 814 962 q 798 922 808 949 q 782 882 787 896 l 1149 882 q 1296 895 1213 882 l 1296 763 q 1149 776 1203 776 l 734 776 q 591 512 667 631 q 464 564 523 547 l 464 -9 q 475 -194 464 -117 l 328 -194 q 336 -117 333 -161 q 338 -9 338 -75 l 338 888 q 336 977 338 943 q 328 1060 334 1017 l 471 1042 q 502 1024 499 1039 q 479 988 504 1010 q 464 903 463 981 l 464 570 q 696 1098 661 833 l 842 1055 q 872 1030 870 1046 q 846 1002 873 1015 q 814 962 825 992 m 264 3 l 114 3 q 126 173 125 73 l 126 755 q 115 927 127 840 l 257 909 q 282 898 281 905 q 284 887 284 890 q 267 859 284 875 q 255 834 258 851 q 252 776 252 818 l 252 173 q 264 3 252 74 m 970 378 l 970 50 l 1097 50 l 1097 378 l 970 378 m 844 50 l 844 378 l 717 378 l 717 50 l 844 50 m 926 774 q 1067 576 979 707 l 946 492 q 808 699 886 606 l 926 774 z "},"丹":{"ha":1389,"x_min":60,"x_max":1317,"o":"m 521 802 l 623 881 q 829 620 732 757 l 721 536 q 521 802 637 671 m 224 515 l 346 515 l 346 870 q 336 1042 345 959 q 509 1033 424 1033 l 893 1033 q 1065 1042 963 1033 q 1054 870 1055 967 l 1054 515 l 1156 515 q 1317 526 1230 516 l 1317 399 q 1156 410 1221 410 l 1054 410 l 1054 -9 q 1010 -133 1058 -111 q 777 -177 975 -161 q 688 -22 757 -100 q 872 -37 808 -37 q 929 6 935 -40 l 929 410 l 472 410 q 220 -208 482 40 q 60 -126 158 -152 q 346 410 350 33 l 224 410 q 65 399 167 410 l 65 527 q 224 515 172 516 m 472 927 l 472 515 l 929 515 l 929 927 l 472 927 z "},"为":{"ha":1389,"x_min":113,"x_max":1243,"o":"m 228 -212 q 114 -96 184 -144 q 113 -95 113 -95 q 654 569 528 107 l 403 562 q 205 544 317 558 l 199 682 q 386 671 305 673 l 675 680 q 688 890 688 781 q 677 1038 688 955 l 829 1021 q 857 1012 855 1018 q 859 1004 859 1006 q 843 975 859 994 q 825 909 828 951 q 823 871 825 895 q 804 677 821 798 l 1096 687 q 1243 699 1144 688 q 1213 510 1221 597 q 1164 -1 1180 143 q 1087 -167 1155 -129 q 821 -216 1024 -210 q 775 -52 821 -139 q 942 -72 913 -73 q 1006 -55 989 -73 q 1032 13 1025 -40 q 1086 580 1063 237 l 786 570 q 228 -212 694 112 m 875 98 q 701 298 819 176 l 796 387 q 825 358 806 376 q 981 188 922 262 l 875 98 m 449 1010 q 596 789 532 911 l 478 716 q 355 917 429 827 q 339 938 345 930 l 449 1010 z "},"主":{"ha":1389,"x_min":100,"x_max":1312,"o":"m 550 988 l 646 1078 q 864 867 753 987 l 778 784 l 1104 784 q 1249 796 1170 785 l 1249 666 q 1104 680 1171 678 l 772 680 l 772 414 l 1004 414 q 1150 426 1081 414 l 1150 298 q 1006 311 1063 310 l 772 311 l 772 -19 l 1168 -19 q 1312 -5 1234 -18 l 1312 -136 q 1168 -121 1234 -122 l 244 -121 q 100 -136 178 -122 l 100 -5 q 244 -19 176 -18 l 644 -19 l 644 311 l 407 311 q 262 296 347 310 l 262 427 q 407 414 336 414 l 644 414 l 644 680 l 302 680 q 158 666 233 679 l 158 796 q 302 784 236 785 l 757 784 q 550 988 636 916 z "},"丽":{"ha":1389,"x_min":71,"x_max":1324,"o":"m 863 -158 l 717 -158 q 728 -33 726 -83 l 728 618 q 717 768 725 686 q 869 759 789 761 l 1064 759 q 1219 770 1150 762 q 1208 623 1211 690 l 1208 -31 q 1165 -132 1211 -107 q 974 -173 1123 -160 q 917 -26 954 -85 q 1050 -37 1022 -37 q 1077 -27 1071 -37 q 1083 12 1084 -20 l 1083 229 l 971 178 q 851 475 923 328 l 851 -33 q 863 -158 852 -77 m 158 770 q 302 759 248 760 l 509 759 q 653 770 585 762 q 642 625 644 696 l 642 -28 q 595 -130 644 -104 q 408 -169 549 -160 q 358 -19 390 -81 q 485 -37 460 -37 q 518 16 522 -41 l 518 226 l 410 176 q 294 452 363 318 l 294 2 q 306 -158 298 -95 l 160 -158 q 170 2 167 -101 l 170 631 q 158 770 168 708 m 71 874 l 71 1006 q 245 995 139 998 l 1149 995 q 1324 1006 1258 999 l 1324 873 q 1149 885 1240 881 l 245 885 q 71 874 146 882 m 949 557 q 1083 238 1027 402 l 1083 654 l 851 654 l 851 509 l 949 557 m 294 654 l 294 503 l 380 551 q 518 258 468 394 l 518 654 l 294 654 z "},"乃":{"ha":1389,"x_min":52,"x_max":1263,"o":"m 505 852 l 349 852 q 176 841 282 851 l 176 970 q 349 959 275 960 l 932 959 q 1129 971 1030 960 l 977 531 l 1099 531 q 1263 544 1176 532 q 1244 397 1251 478 q 1158 -87 1207 -55 q 844 -180 1100 -176 q 757 10 821 -102 q 957 -40 884 -38 q 1048 -7 1024 -40 q 1109 425 1080 -18 l 954 425 q 779 413 909 425 q 846 557 824 494 l 949 852 l 644 852 q 552 210 647 425 q 196 -212 463 -11 q 52 -104 140 -158 q 408 231 313 24 q 505 852 507 432 z "},"久":{"ha":1389,"x_min":45,"x_max":1357,"o":"m 750 302 q 183 -214 536 -16 q 45 -116 127 -161 q 528 223 326 -7 q 774 695 696 437 l 518 695 q 293 341 429 524 q 139 412 235 378 q 501 1088 412 651 l 643 1044 q 669 1023 668 1036 q 647 992 670 1010 q 611 935 625 979 q 561 799 588 863 l 786 799 q 966 812 849 799 q 821 435 895 600 q 1357 -71 1022 64 q 1213 -187 1278 -111 q 750 302 918 6 z "},"义":{"ha":1389,"x_min":37,"x_max":1356,"o":"m 232 850 q 370 877 286 859 q 676 323 469 538 q 1006 942 900 578 l 1154 877 q 1174 857 1174 869 q 1172 846 1174 854 q 1143 825 1171 838 q 1097 768 1116 812 q 774 233 957 437 q 1356 -58 1000 46 q 1223 -195 1286 -109 q 677 132 897 -69 q 168 -209 488 -49 q 37 -81 126 -131 q 583 227 348 11 q 232 850 355 477 m 602 1033 q 852 767 741 906 l 745 684 q 500 956 637 828 l 602 1033 z "},"乌":{"ha":1389,"x_min":87,"x_max":1234,"o":"m 1007 184 l 1007 52 q 848 64 935 64 l 252 64 q 87 52 166 63 l 87 184 q 252 172 160 172 l 848 172 q 1007 184 931 172 m 524 1085 l 667 1040 q 689 1017 690 1031 q 663 991 688 1002 q 632 958 647 985 q 618 931 627 949 q 602 901 606 909 l 872 901 q 1072 911 995 901 q 1053 654 1065 770 q 983 523 1046 554 q 711 462 927 488 q 657 606 698 514 q 653 616 654 612 q 817 600 770 600 q 905 638 884 598 q 926 793 926 672 l 408 793 l 408 414 l 1067 414 q 1234 426 1152 414 q 1206 12 1228 184 q 843 -216 1206 -202 q 785 -72 838 -145 q 877 -75 840 -75 q 1002 -60 966 -75 q 1069 35 1059 -41 q 1090 307 1091 170 l 436 307 q 267 295 363 307 q 279 450 279 379 l 279 758 q 265 913 279 840 q 432 901 346 901 l 463 901 q 524 1085 504 1000 z "},"乐":{"ha":1389,"x_min":102,"x_max":1280,"o":"m 102 -54 q 397 353 277 87 l 521 271 q 538 248 538 260 q 537 243 538 245 q 505 223 532 229 q 464 186 483 218 q 227 -136 371 38 q 102 -54 165 -83 m 275 976 q 444 960 357 961 q 1083 1059 871 973 l 1168 941 q 1179 916 1179 926 q 1173 903 1179 909 q 1154 897 1165 897 q 1122 903 1141 897 q 1093 907 1111 907 q 1029 901 1069 907 q 399 848 733 853 q 375 682 391 789 q 350 516 359 574 l 648 516 l 648 648 q 637 814 646 724 l 787 792 q 809 773 808 789 q 791 741 810 758 q 774 665 772 727 l 774 516 l 1122 516 q 1257 527 1193 518 l 1257 399 q 1122 412 1157 411 l 774 412 l 774 -50 q 722 -156 777 -129 q 501 -197 669 -186 q 446 -40 497 -112 q 608 -59 575 -60 q 648 -12 653 -63 l 648 412 l 359 412 q 220 385 292 413 l 178 506 q 233 578 229 522 l 268 814 q 275 976 277 878 m 1169 -121 q 852 267 1036 76 l 951 353 q 1280 -37 1137 151 l 1169 -121 z "},"乔":{"ha":1389,"x_min":31,"x_max":1336,"o":"m 953 269 l 953 -20 q 964 -205 954 -125 l 814 -205 q 825 -20 824 -120 l 825 262 q 814 429 825 340 l 942 413 q 750 634 830 492 l 636 634 q 463 435 576 522 l 567 422 q 595 407 593 419 q 578 373 598 394 q 558 303 557 355 q 559 263 559 279 q 272 -227 559 -52 q 144 -124 222 -168 q 368 39 313 -47 q 428 294 429 126 q 424 406 428 349 q 138 255 307 326 q 31 380 102 319 q 486 634 350 446 l 272 634 q 109 623 191 633 l 109 751 q 272 738 195 739 l 539 738 q 583 878 570 811 q 248 867 411 869 q 164 1000 215 935 q 441 984 297 984 q 1065 1072 891 991 l 1147 959 q 1156 937 1156 946 q 1150 923 1156 928 q 1129 917 1142 917 q 1101 922 1118 917 q 1080 924 1094 924 q 1028 919 1059 924 q 720 886 882 899 q 676 738 703 814 l 1099 738 q 1263 751 1184 738 l 1263 618 q 1099 634 1178 633 l 896 634 q 1336 398 1037 443 q 1223 263 1259 325 q 987 381 1068 330 q 971 357 985 374 q 953 269 952 341 z "},"九":{"ha":1389,"x_min":24,"x_max":1352,"o":"m 511 595 l 325 587 q 175 574 261 585 l 175 701 q 314 692 272 691 l 517 702 l 517 894 q 507 1056 517 977 l 664 1038 q 684 1021 684 1036 q 663 987 684 1006 q 644 903 643 975 l 644 709 l 876 720 q 1039 735 980 726 q 1013 538 1018 616 l 982 54 q 981 13 981 37 q 1034 -34 980 -33 q 1150 -24 1116 -35 q 1204 188 1198 -16 q 1352 108 1286 119 q 1185 -144 1310 -133 q 1080 -152 1143 -152 q 1021 -151 1046 -152 q 851 -6 844 -149 q 852 51 851 28 l 885 612 l 640 602 q 172 -193 658 91 q 24 -85 125 -133 q 511 595 507 81 z "},"习":{"ha":1389,"x_min":161,"x_max":1218,"o":"m 252 75 l 161 218 q 981 499 616 314 q 971 345 972 429 q 252 75 450 163 m 1150 -35 q 802 -140 1116 -138 q 726 20 781 -71 q 921 -2 878 -3 q 1022 35 994 -3 q 1027 23 1025 23 q 1072 846 1047 23 l 382 846 q 210 834 296 845 l 210 966 q 382 954 297 955 l 1043 954 q 1218 966 1119 955 q 1206 810 1207 857 q 1154 -41 1179 -41 q 1150 -35 1152 -41 m 433 767 q 768 549 600 670 l 696 431 q 372 658 566 545 l 433 767 z "},"乡":{"ha":1389,"x_min":153,"x_max":1215,"o":"m 153 -79 q 917 259 682 -39 q 302 199 446 239 l 254 321 q 411 381 349 340 q 652 570 541 471 q 302 543 415 561 l 252 659 q 389 741 322 681 q 677 1084 572 907 l 791 1010 q 816 979 817 994 q 787 959 814 964 q 728 922 758 955 q 468 665 604 784 q 760 671 621 669 q 939 886 859 770 l 1063 805 q 1080 781 1080 793 q 1075 768 1080 777 q 1035 752 1070 759 q 975 711 1009 749 q 575 353 825 556 q 977 372 826 368 q 1046 581 1031 496 l 1190 523 q 1214 497 1215 512 q 1183 469 1212 483 q 1140 408 1161 460 q 260 -215 983 -82 q 153 -79 231 -152 z "},"书":{"ha":1389,"x_min":119,"x_max":1279,"o":"m 926 945 l 1002 1045 q 1279 870 1168 946 l 1207 762 q 1189 775 1201 766 q 1175 785 1179 782 q 1143 669 1155 730 l 1095 426 q 1275 441 1211 429 q 1263 311 1267 382 q 1253 157 1258 215 q 1179 9 1244 45 q 926 -44 1119 -32 q 847 116 895 42 q 1035 98 966 99 q 1124 206 1116 92 q 1131 321 1130 272 l 724 321 l 724 -16 q 732 -187 726 -129 l 585 -187 q 595 -16 593 -72 l 595 321 l 289 321 q 119 311 206 319 l 119 437 q 289 426 208 428 l 595 426 l 595 681 l 353 681 q 189 671 262 679 l 189 796 q 353 785 288 787 l 595 785 l 595 910 q 585 1077 594 972 l 742 1059 q 764 1042 763 1056 q 743 1010 764 1029 q 724 931 722 999 l 724 785 l 1003 785 q 1160 796 1081 786 q 926 945 1047 878 m 1014 681 l 724 681 l 724 426 l 966 426 l 1014 681 z "},"乳":{"ha":1389,"x_min":50,"x_max":1348,"o":"m 471 422 l 221 422 q 87 412 184 422 l 87 539 q 221 527 177 527 l 611 527 q 789 539 687 529 q 493 296 621 385 l 493 251 q 721 335 625 287 l 721 201 q 493 140 626 178 l 493 -37 q 453 -144 498 -125 q 214 -197 417 -170 q 143 -52 196 -130 q 310 -68 271 -68 q 356 -54 345 -68 q 367 1 368 -42 l 367 108 l 110 24 q 50 160 93 81 q 367 214 193 168 l 367 349 q 471 422 424 385 m 949 881 l 949 27 q 960 -31 947 -23 q 1025 -43 970 -43 q 1051 -43 1036 -43 q 1185 41 1174 -43 q 1196 197 1195 102 q 1348 108 1272 138 q 1314 -7 1332 39 q 1217 -132 1275 -102 q 1034 -161 1165 -163 q 864 -127 911 -160 q 818 -12 817 -96 l 818 890 q 807 1040 817 932 l 950 1021 q 987 1003 983 1017 q 966 967 991 989 q 949 881 948 956 m 62 945 q 121 943 83 943 q 688 1063 465 949 l 778 959 q 789 937 789 946 q 786 928 789 932 q 765 920 779 920 q 746 923 758 920 q 730 924 739 924 q 692 919 713 924 q 410 856 597 890 q 500 665 465 755 l 385 610 q 297 808 342 727 l 406 854 q 151 820 286 833 q 62 945 113 884 m 468 577 q 637 885 585 744 l 764 825 q 783 804 783 817 q 781 794 783 802 q 751 776 779 786 q 711 734 731 767 q 583 532 659 644 l 468 577 m 98 745 l 211 796 q 315 593 275 690 l 201 535 q 98 745 151 660 z "},"乾":{"ha":1389,"x_min":40,"x_max":1339,"o":"m 779 477 l 779 572 q 767 551 775 565 q 751 524 757 532 q 667 555 710 545 l 667 388 q 677 252 666 338 q 542 266 578 267 l 472 266 l 472 166 l 602 166 q 736 178 652 165 l 736 54 q 659 62 690 60 q 602 64 630 64 l 472 64 l 472 -87 q 484 -219 472 -138 l 336 -219 q 347 -87 348 -127 l 347 64 l 174 64 q 40 54 149 65 l 40 178 q 174 166 146 165 l 347 166 l 347 266 l 293 266 q 134 254 244 267 q 146 389 146 341 l 146 588 q 135 727 146 628 q 264 715 230 714 l 347 715 l 347 798 l 193 798 q 65 787 136 799 l 65 910 q 193 899 148 899 l 347 899 l 347 938 q 336 1066 348 986 l 467 1048 q 509 1031 505 1043 q 509 1028 509 1030 q 486 994 509 1017 q 472 935 471 982 l 472 899 l 591 899 q 724 910 633 899 l 724 787 q 652 795 682 793 q 625 797 638 797 q 595 798 613 798 l 472 798 l 472 715 l 546 715 q 677 727 574 713 q 668 634 671 691 q 825 1080 791 838 l 962 1034 q 994 1008 994 1023 q 964 976 994 994 q 936 934 947 960 l 907 850 l 1198 850 q 1326 863 1242 850 l 1326 734 q 1198 747 1236 747 l 864 747 q 796 604 827 662 q 903 593 863 593 l 1069 593 q 1253 608 1141 593 q 1137 450 1192 532 q 911 60 970 199 q 890 -16 890 9 q 957 -59 886 -56 q 990 -61 971 -60 q 1010 -62 999 -62 q 1038 -62 1019 -62 q 1116 -56 1082 -62 q 1190 121 1195 -51 q 1339 28 1278 43 q 1161 -170 1295 -149 q 1023 -178 1122 -179 q 951 -176 983 -178 q 760 -35 759 -164 q 785 81 760 14 q 1013 490 849 237 l 903 490 q 779 477 869 490 m 543 539 l 543 616 l 268 616 l 268 539 l 543 539 m 268 441 l 268 364 l 543 364 l 543 441 l 268 441 z "},"二":{"ha":1389,"x_min":98,"x_max":1292,"o":"m 98 -18 l 98 119 q 257 108 172 107 l 1133 108 q 1292 119 1202 108 l 1292 -18 q 1133 -5 1198 -5 l 257 -5 q 98 -18 193 -6 m 208 749 l 208 885 q 364 873 288 873 l 1025 873 q 1183 885 1099 873 l 1183 749 q 1025 760 1087 760 l 364 760 q 208 749 309 760 z "},"于":{"ha":1389,"x_min":81,"x_max":1308,"o":"m 81 426 l 81 553 q 281 543 164 543 l 654 543 l 654 882 l 396 882 q 201 870 290 882 l 201 998 q 396 987 286 987 l 1017 987 q 1208 999 1118 987 l 1208 870 q 1017 882 1118 881 l 785 882 l 785 543 l 1108 543 q 1308 555 1215 544 l 1308 426 q 1108 438 1211 437 l 785 438 l 785 -15 q 736 -148 788 -121 q 500 -194 692 -180 q 441 -38 492 -129 q 604 -58 562 -58 q 654 -3 659 -61 l 654 438 l 281 438 q 81 426 172 437 z "},"云":{"ha":1389,"x_min":96,"x_max":1300,"o":"m 1214 -72 l 1093 -162 q 1004 -27 1050 -91 q 277 -108 439 -70 l 208 16 q 306 75 271 36 q 585 488 475 272 l 262 488 q 96 477 189 488 l 96 606 q 262 595 193 596 l 1133 595 q 1300 608 1208 596 l 1300 475 q 1133 488 1215 487 l 675 488 l 739 459 q 760 433 762 448 q 732 410 758 418 q 682 372 703 403 q 424 37 582 229 q 929 77 684 60 q 790 241 863 161 l 897 323 q 1214 -72 1074 130 m 1132 977 l 1132 846 q 974 859 1043 858 l 437 859 q 279 846 377 858 l 279 977 q 437 966 374 966 l 974 966 q 1132 977 1036 967 z "},"互":{"ha":1389,"x_min":87,"x_max":1301,"o":"m 833 -6 l 861 214 l 513 214 q 340 205 432 214 q 386 357 370 279 l 488 876 l 307 876 q 163 865 279 876 l 163 991 q 307 980 252 981 l 1083 980 q 1225 991 1121 981 l 1225 865 q 1083 876 1134 874 l 619 876 l 575 658 l 905 658 q 1060 671 980 659 q 1035 517 1046 618 l 971 -6 l 1165 -6 q 1301 3 1220 -5 l 1301 -120 q 1165 -109 1200 -110 l 232 -109 q 87 -120 191 -110 l 87 3 q 233 -6 176 -5 l 833 -6 m 557 553 l 511 319 l 873 319 l 903 553 l 557 553 z "},"五":{"ha":1389,"x_min":98,"x_max":1307,"o":"m 98 -116 l 98 16 q 257 2 182 3 l 461 2 l 519 439 l 407 434 q 254 421 331 431 l 254 560 q 342 549 319 551 q 410 547 369 547 l 533 547 l 574 854 l 325 854 q 167 842 239 854 l 167 972 q 325 962 250 962 l 1068 962 q 1226 976 1160 962 l 1226 841 q 1068 854 1155 853 l 711 854 l 667 547 l 893 553 q 1104 576 1000 557 q 1084 408 1093 503 l 1051 2 l 1149 2 q 1307 16 1234 3 l 1307 -115 q 1149 -104 1236 -104 l 257 -104 q 98 -116 173 -104 m 653 441 l 590 2 l 924 2 l 953 446 l 653 441 z "},"井":{"ha":1389,"x_min":64,"x_max":1300,"o":"m 64 273 l 64 401 q 220 388 155 389 l 414 388 l 414 666 l 296 666 q 151 654 240 666 l 151 783 q 296 770 235 770 l 414 770 l 414 923 q 404 1060 414 965 l 536 1042 q 577 1025 574 1038 q 553 987 581 1013 q 541 902 540 977 l 541 770 l 822 770 l 822 931 q 812 1066 823 989 l 945 1048 q 985 1028 981 1042 q 961 992 989 1015 q 949 927 949 979 l 949 770 l 1061 770 q 1211 783 1115 769 l 1211 654 q 1061 666 1109 666 l 949 666 l 949 388 l 1145 388 q 1300 401 1202 388 l 1300 273 q 1145 284 1201 284 l 949 284 l 949 -20 q 960 -194 949 -100 l 812 -194 q 822 -20 823 -111 l 822 284 l 539 284 q 236 -230 500 -12 q 85 -145 191 -176 q 407 284 370 -1 l 220 284 q 64 273 163 283 m 541 666 l 541 388 l 822 388 l 822 666 l 541 666 z "},"亚":{"ha":1389,"x_min":98,"x_max":1283,"o":"m 98 -117 l 98 14 q 298 -1 161 1 l 505 -1 l 505 862 l 271 862 q 134 848 216 861 l 134 980 q 271 966 212 966 l 1124 966 q 1253 980 1187 966 l 1253 848 q 1124 862 1179 863 l 897 862 l 897 -1 l 1083 -1 q 1283 14 1220 3 l 1283 -117 q 1084 -104 1220 -104 l 298 -104 q 98 -117 161 -105 m 633 862 l 633 -1 l 770 -1 l 770 862 l 633 862 m 253 701 q 473 231 395 461 l 355 166 q 138 644 284 392 l 253 701 m 907 226 q 1108 720 1040 476 l 1242 665 q 1265 637 1267 654 q 1234 608 1263 620 q 1200 560 1215 600 q 1023 173 1125 359 q 907 226 972 201 z "},"交":{"ha":1389,"x_min":37,"x_max":1331,"o":"m 489 585 q 240 359 397 487 q 121 450 184 416 q 437 749 321 558 l 228 749 q 94 736 178 749 l 94 866 q 228 853 172 852 l 684 853 q 494 1000 565 953 l 578 1090 q 804 918 697 1008 l 749 853 l 1149 853 q 1282 867 1193 852 l 1282 736 q 1149 749 1205 749 l 913 749 q 1226 505 1112 601 l 1136 408 q 825 658 988 543 l 907 749 l 440 749 l 547 677 q 571 640 575 658 q 532 617 566 621 q 489 585 516 616 m 37 -56 q 603 138 375 -47 q 396 442 485 271 q 529 516 465 472 q 689 230 572 356 q 847 545 804 380 l 982 473 q 1011 441 1012 456 q 978 414 1010 425 q 937 373 955 408 q 811 184 901 289 q 778 142 789 157 q 1331 -54 975 -22 q 1214 -198 1244 -125 q 692 51 857 -88 q 155 -205 502 -110 q 37 -56 115 -127 z "},"亦":{"ha":1389,"x_min":47,"x_max":1339,"o":"m 522 1006 l 628 1088 q 818 873 728 988 l 728 802 l 1154 802 q 1289 813 1200 802 l 1289 684 q 1154 698 1204 699 l 942 698 l 942 -15 q 895 -159 944 -125 q 692 -206 850 -197 q 621 -58 672 -130 q 757 -71 713 -69 q 811 -16 815 -74 l 811 698 l 650 698 l 650 606 q 572 100 652 256 q 257 -210 501 -60 q 134 -112 204 -160 q 444 140 385 13 q 519 602 522 275 l 519 698 l 240 698 q 106 684 184 699 l 106 813 q 240 802 189 802 l 690 802 q 522 1006 602 924 m 396 385 q 174 79 336 268 q 47 152 121 125 q 326 563 249 320 l 443 502 q 480 468 480 482 q 441 439 479 453 q 396 385 419 432 m 953 478 l 1061 553 q 1339 178 1211 375 l 1226 99 q 953 478 1093 319 z "},"亨":{"ha":1389,"x_min":82,"x_max":1315,"o":"m 286 417 q 297 543 296 499 l 297 610 q 286 743 296 657 q 427 730 358 732 l 970 730 q 1105 743 1036 732 q 1095 618 1097 667 l 1095 539 q 1107 417 1097 481 q 971 429 1019 427 l 428 429 q 286 417 369 427 m 777 84 l 777 -71 q 730 -185 781 -167 q 473 -218 688 -211 q 399 -64 469 -150 q 603 -85 574 -87 q 648 -43 654 -89 l 648 27 q 639 145 648 63 q 889 254 764 185 l 260 254 q 126 241 231 253 l 126 368 q 260 355 198 357 l 1050 355 q 1263 370 1142 357 q 777 84 994 172 m 542 1005 l 627 1095 q 835 945 743 1019 l 796 901 l 1152 901 q 1315 911 1256 903 l 1315 787 q 1152 798 1242 795 l 249 798 q 82 787 155 794 l 82 911 q 249 901 142 903 l 693 901 q 542 1005 615 960 m 421 629 l 421 530 l 971 530 l 971 629 l 421 629 z "},"京":{"ha":1389,"x_min":78,"x_max":1310,"o":"m 1104 694 q 1093 555 1093 586 l 1093 418 q 1104 281 1093 375 q 962 294 1006 294 l 779 294 l 779 -54 q 732 -176 782 -149 q 514 -222 692 -207 q 450 -69 500 -149 q 591 -87 569 -87 q 653 -40 656 -88 l 653 294 l 468 294 q 298 281 393 294 q 310 434 310 363 l 310 541 q 298 694 311 597 q 468 682 426 682 l 961 682 q 1104 694 1014 683 m 623 1094 q 833 945 728 1033 l 779 877 l 1175 877 q 1310 888 1221 876 l 1310 762 q 1284 764 1300 762 q 1175 773 1190 774 l 229 773 q 94 762 214 774 l 94 890 q 229 877 195 876 l 711 877 q 542 994 631 941 l 623 1094 m 435 578 l 435 398 l 966 398 l 966 578 l 435 578 m 456 77 q 193 -149 328 -56 q 78 -56 143 -96 q 415 243 276 35 l 528 165 q 549 132 549 148 q 548 125 549 129 q 503 106 539 107 q 456 77 484 109 m 878 127 l 968 223 q 1276 -43 1150 82 l 1182 -144 q 878 127 1044 5 z "},"亭":{"ha":1389,"x_min":109,"x_max":1282,"o":"m 1076 791 q 1067 666 1067 696 l 1067 614 q 1076 490 1067 591 q 942 502 966 501 l 440 502 q 307 490 417 501 q 317 612 315 555 l 317 669 q 307 791 315 731 q 443 780 392 781 l 939 780 q 1076 791 958 780 m 109 465 q 261 452 197 454 l 1129 452 q 1282 465 1208 456 q 1270 345 1272 393 l 1270 331 q 1280 214 1271 290 l 1136 214 q 1147 334 1146 300 l 1147 351 l 243 351 l 243 327 q 254 209 244 296 l 110 209 q 121 326 119 281 l 121 348 q 109 465 118 396 m 983 168 l 772 168 l 772 -73 q 727 -182 776 -160 q 518 -212 683 -210 q 461 -63 517 -140 q 618 -87 585 -87 q 647 -48 650 -90 l 647 168 l 407 168 q 309 160 396 168 q 273 157 284 158 l 273 280 q 407 269 352 271 l 983 269 q 1118 280 1042 272 l 1118 157 q 1066 161 1102 159 q 983 168 988 168 m 140 937 q 293 926 214 929 l 669 926 q 554 1006 595 980 l 640 1098 q 815 971 728 1041 l 771 926 l 1105 926 q 1258 937 1182 929 l 1258 813 q 1105 824 1183 821 l 293 824 q 140 812 228 821 l 140 937 m 440 678 l 440 604 l 943 604 l 943 678 l 440 678 z "},"亳":{"ha":1389,"x_min":111,"x_max":1258,"o":"m 122 517 q 278 505 192 507 l 1100 505 q 1255 517 1175 505 q 1242 408 1242 463 l 1242 372 q 1257 273 1242 319 l 1104 273 q 1117 372 1117 317 l 1117 404 l 997 404 l 1069 319 q 1083 291 1083 302 q 1078 279 1083 284 q 1057 271 1070 271 q 1029 277 1046 271 q 1000 282 1017 282 q 954 275 980 282 q 739 243 870 258 l 739 168 l 1068 186 q 1208 206 1149 193 l 1219 77 q 1110 85 1161 85 q 1071 84 1095 85 l 739 66 l 739 -35 q 755 -67 738 -62 q 840 -75 768 -74 q 1022 -72 1004 -75 q 1100 81 1089 -73 q 1239 -11 1169 25 q 1075 -183 1203 -172 q 1006 -189 1047 -188 q 893 -191 968 -191 q 665 -166 717 -192 q 614 -63 610 -144 l 614 58 l 271 35 q 143 14 214 30 l 132 146 q 254 138 205 138 l 614 159 l 614 233 q 357 224 471 222 q 289 353 337 299 q 519 338 427 338 q 981 404 764 340 l 262 404 l 262 361 q 273 266 262 311 l 125 266 q 136 361 136 311 l 136 408 q 122 517 136 453 m 319 535 q 335 656 335 625 l 335 684 q 321 805 335 705 q 463 791 408 793 l 920 791 q 1065 805 981 793 q 1051 684 1052 734 l 1051 656 q 1065 535 1053 604 q 928 549 998 547 l 461 549 q 319 535 405 547 m 624 1091 q 821 972 736 1030 l 794 935 l 1095 935 q 1258 949 1164 938 l 1258 821 q 1095 834 1133 833 l 275 834 q 111 820 227 833 l 111 949 q 275 935 205 938 l 654 935 q 551 996 614 963 l 624 1091 m 460 695 l 460 645 l 925 645 l 925 695 l 460 695 z "},"人":{"ha":1389,"x_min":31,"x_max":1324,"o":"m 31 -34 q 604 852 591 126 q 593 1031 604 926 l 753 1005 q 782 990 779 1000 q 768 958 785 979 q 743 902 749 928 q 736 813 736 846 q 1324 -48 761 261 q 1208 -169 1251 -87 q 682 458 825 64 q 129 -154 576 58 q 31 -34 94 -102 z "},"什":{"ha":1389,"x_min":11,"x_max":1348,"o":"m 386 781 l 386 -30 q 396 -193 389 -129 l 250 -193 q 260 -30 257 -124 l 260 578 q 153 434 215 513 q 11 519 83 489 q 363 1081 237 702 l 494 1023 q 528 995 529 1007 q 494 962 529 983 q 453 903 480 956 l 386 781 m 444 502 l 444 627 q 591 617 544 618 l 839 617 l 839 922 q 828 1074 838 966 l 971 1056 q 1006 1039 1004 1052 q 983 1004 1009 1026 q 965 918 964 993 l 965 617 l 1197 617 q 1348 627 1243 618 l 1348 502 q 1197 513 1239 513 l 965 513 l 965 -41 q 975 -206 968 -136 l 828 -206 q 839 -41 836 -125 l 839 513 l 591 513 q 444 502 539 511 z "},"仁":{"ha":1389,"x_min":8,"x_max":1329,"o":"m 243 538 l 146 388 q 8 465 93 434 q 343 1074 246 685 l 484 1023 q 508 1000 509 1014 q 479 968 507 985 q 450 931 460 957 q 375 762 414 842 l 375 -23 q 386 -189 376 -132 l 233 -189 q 243 -23 241 -94 l 243 538 m 428 -85 l 428 50 q 583 35 496 37 l 1174 35 q 1329 50 1255 36 l 1329 -87 q 1174 -73 1257 -74 l 583 -73 q 428 -85 507 -75 m 1246 838 l 1246 705 q 1090 718 1164 718 l 650 718 q 500 705 585 716 l 500 838 q 650 827 598 827 l 1090 827 q 1246 838 1146 827 z "},"仆":{"ha":1389,"x_min":26,"x_max":1337,"o":"m 1337 336 l 1218 235 q 924 589 1104 416 l 924 -7 q 935 -201 924 -129 l 782 -201 q 793 -7 793 -123 l 793 898 q 782 1084 793 980 l 936 1066 q 963 1049 962 1063 q 943 1012 965 1036 q 924 919 923 994 l 924 641 l 1004 713 q 1337 336 1195 514 m 298 591 q 164 422 258 538 q 153 409 157 414 q 26 496 104 456 q 404 1081 274 700 l 550 1017 q 570 991 572 1007 q 538 963 566 977 q 504 930 517 956 q 428 785 464 848 l 428 -33 q 437 -203 428 -133 l 289 -203 q 298 -33 298 -125 l 298 591 z "},"介":{"ha":1389,"x_min":18,"x_max":1340,"o":"m 671 892 q 408 595 577 736 l 542 576 q 569 557 567 572 q 550 522 572 542 q 532 441 530 507 l 532 345 q 532 303 532 328 q 278 -230 532 -54 q 118 -141 224 -177 q 339 31 281 -74 q 399 349 400 133 q 390 580 399 478 q 140 412 266 480 q 18 520 85 471 q 624 1093 429 654 l 761 1049 q 786 1026 789 1040 q 749 995 783 1011 q 1340 524 970 648 q 1215 405 1267 473 q 671 892 818 636 m 939 -215 l 783 -215 q 794 -35 793 -133 l 794 408 q 781 593 792 526 l 939 572 q 967 559 966 567 q 969 549 969 551 q 949 519 969 536 q 926 429 926 503 l 926 -35 q 939 -215 927 -144 z "},"从":{"ha":1389,"x_min":31,"x_max":1352,"o":"m 31 -60 q 306 530 235 90 q 326 837 326 670 q 317 1053 326 949 l 473 1036 q 505 1016 502 1031 q 481 976 506 1000 q 461 898 461 964 q 436 506 450 627 q 454 488 442 500 q 694 217 617 324 q 585 111 627 157 q 407 353 516 233 q 155 -133 352 98 q 31 -60 100 -88 m 456 -120 q 835 656 806 123 q 840 862 840 756 q 832 1060 839 967 l 989 1038 q 1018 1017 1016 1034 q 996 976 1020 999 q 974 895 974 954 l 974 840 q 986 576 973 665 q 1352 -58 1067 151 q 1226 -166 1271 -107 q 917 351 1002 50 q 581 -193 865 89 q 456 -120 527 -152 z "},"仑":{"ha":1389,"x_min":5,"x_max":1358,"o":"m 482 395 l 482 287 q 950 502 777 378 l 1035 391 q 1049 360 1049 372 q 1043 347 1049 354 q 1021 340 1037 340 q 994 342 1012 340 q 979 344 987 344 q 962 342 970 344 q 907 321 949 339 q 482 170 678 231 l 482 6 q 503 -45 481 -31 q 585 -64 524 -60 q 751 -71 652 -71 l 819 -71 q 965 -23 930 -71 q 1007 163 1004 22 q 1164 87 1088 104 q 1058 -132 1122 -86 q 823 -186 998 -184 q 539 -177 654 -187 q 357 -38 357 -160 l 357 374 q 349 513 357 389 q 347 531 348 525 q 123 380 254 459 q 5 491 79 440 q 635 1080 418 654 l 761 1020 q 782 995 783 1010 q 755 971 780 981 q 743 963 749 969 q 1358 552 941 644 q 1236 421 1282 491 q 667 863 847 593 q 364 545 533 677 l 486 530 q 520 518 518 526 q 522 508 522 511 q 501 475 522 494 q 482 395 482 459 z "},"仓":{"ha":1389,"x_min":22,"x_max":1357,"o":"m 1036 320 q 977 157 1038 190 q 711 111 923 117 q 654 259 692 196 q 825 242 777 243 q 903 311 896 241 q 905 450 905 335 l 478 450 l 478 23 q 492 -41 477 -24 q 549 -59 507 -58 q 718 -63 625 -63 q 918 -56 812 -63 q 1034 -8 1008 -54 q 1068 184 1062 33 q 1217 74 1143 106 q 1120 -122 1177 -82 q 907 -177 1069 -169 q 832 -180 878 -179 q 783 -181 810 -180 q 714 -181 758 -181 q 553 -177 616 -181 q 391 -128 427 -172 q 353 39 351 -89 l 353 399 q 343 547 350 470 q 140 414 265 490 q 22 527 89 475 q 640 1080 448 702 l 779 1027 q 799 1004 799 1019 q 775 984 796 990 q 753 971 761 981 q 1357 598 988 703 q 1242 471 1288 555 q 1053 566 1138 517 q 1050 547 1052 559 q 1039 431 1041 479 q 1036 320 1036 379 m 679 877 q 367 563 568 706 q 511 555 433 556 l 884 555 q 1051 567 979 558 q 679 877 819 699 z "},"仙":{"ha":1389,"x_min":11,"x_max":1307,"o":"m 368 1106 l 517 1034 q 535 1009 538 1023 q 504 981 532 994 q 467 941 480 970 q 382 768 414 830 l 382 -15 q 392 -191 382 -109 l 243 -191 q 253 -15 252 -91 l 253 556 q 144 417 207 492 q 11 498 78 469 q 368 1106 258 701 m 654 593 l 654 -1 l 831 10 l 831 910 q 819 1077 829 981 l 968 1059 q 996 1041 993 1055 q 975 1008 997 1027 q 958 918 958 997 l 958 22 l 1140 33 l 1140 574 q 1131 747 1139 646 l 1268 728 q 1304 716 1301 724 q 1307 706 1307 708 q 1287 675 1307 694 q 1270 581 1269 661 l 1270 -33 q 1279 -183 1271 -115 l 1131 -183 q 1140 -73 1137 -132 l 684 -108 q 515 -126 616 -113 q 526 35 526 -14 l 526 578 q 515 748 526 649 l 656 730 q 689 716 686 726 q 692 706 692 707 q 672 675 692 693 q 654 593 654 659 z "},"仡":{"ha":1389,"x_min":25,"x_max":1341,"o":"m 1090 -56 q 1177 -1 1155 -50 q 1196 125 1196 39 q 1194 169 1196 139 q 1341 102 1281 124 q 1249 -123 1319 -72 q 985 -178 1187 -178 q 944 -179 971 -178 q 909 -180 920 -180 q 721 -170 768 -180 q 571 -37 572 -140 q 625 92 569 18 q 946 458 734 242 l 732 458 q 582 448 717 458 l 582 545 q 479 437 525 482 q 383 516 433 481 l 383 -43 q 393 -208 386 -144 l 248 -208 q 258 -43 253 -154 l 258 563 q 147 416 202 486 q 25 507 89 472 q 364 1078 248 686 l 498 1023 q 528 996 528 1010 q 493 966 526 981 q 449 910 467 955 q 437 883 445 901 q 383 768 401 804 l 383 553 q 753 1098 622 726 l 873 1040 q 911 1010 912 1021 q 873 980 912 1000 q 842 947 856 971 q 826 918 836 937 q 793 854 810 886 l 1198 854 q 1324 866 1226 855 l 1324 739 q 1198 751 1240 749 l 739 751 q 604 570 679 657 q 732 562 662 564 l 1053 562 q 1255 574 1156 564 q 1122 456 1206 534 q 724 23 892 239 q 708 -20 707 1 q 751 -58 710 -50 q 889 -68 798 -68 q 1090 -56 984 -67 z "},"代":{"ha":1389,"x_min":25,"x_max":1358,"o":"m 25 454 q 410 1085 270 673 l 546 1017 q 565 993 567 1006 q 536 967 562 979 q 501 924 520 962 q 406 748 452 827 l 406 -15 q 415 -199 408 -124 l 273 -199 q 283 -15 281 -109 l 283 556 q 150 381 219 466 q 25 454 85 427 m 440 420 l 412 551 q 559 560 528 553 l 733 591 q 711 924 713 799 q 704 1060 711 1000 l 854 1038 q 876 1019 876 1034 q 859 984 876 1005 q 839 920 838 964 q 860 614 842 725 l 1129 662 q 1295 709 1211 677 l 1322 578 q 1164 564 1257 582 l 872 510 q 1136 -9 912 132 q 1162 -18 1151 -18 q 1187 6 1179 -18 q 1217 152 1202 52 q 1358 56 1288 89 q 1338 -5 1351 35 q 1307 -92 1316 -73 q 1200 -178 1270 -181 q 1076 -134 1147 -178 q 745 486 808 32 l 567 452 q 440 420 492 438 m 895 947 l 999 1031 q 1194 799 1100 920 l 1095 709 q 895 947 979 867 z "},"令":{"ha":1389,"x_min":12,"x_max":1385,"o":"m 648 1094 l 791 1053 q 812 1035 812 1047 q 793 1015 812 1022 q 772 1002 783 1010 q 1385 563 1008 680 q 1251 431 1291 495 q 692 903 813 696 q 153 430 501 622 q 12 541 110 478 q 648 1094 410 667 m 257 303 l 257 435 q 412 421 332 422 l 1013 421 q 1173 435 1048 420 q 786 -5 1039 225 q 936 -126 879 -76 l 854 -234 q 392 98 641 -34 l 479 195 q 686 67 591 132 q 925 315 829 188 l 412 315 q 257 303 338 314 m 532 661 l 632 743 q 868 534 742 653 l 772 433 q 532 661 663 560 z "},"仪":{"ha":1389,"x_min":14,"x_max":1367,"o":"m 249 534 q 138 397 185 448 q 14 462 80 434 q 393 1094 274 701 l 525 1031 q 550 1005 551 1019 q 524 977 550 990 q 481 926 498 961 q 374 723 439 838 l 374 -44 q 385 -209 376 -130 l 237 -209 q 249 -44 248 -114 l 249 534 m 873 73 q 509 -208 730 -90 q 397 -97 454 -142 q 783 161 611 -31 q 522 772 615 384 l 607 798 l 657 814 q 860 269 694 515 q 1044 918 1004 550 l 1193 873 q 1226 847 1223 863 q 1200 813 1227 831 q 1157 727 1173 797 q 947 173 1073 387 q 1367 -40 1132 8 q 1254 -178 1301 -98 q 873 73 1018 -77 m 632 966 l 751 1037 q 964 730 823 943 l 836 646 q 632 966 749 817 z "},"仫":{"ha":1389,"x_min":24,"x_max":1348,"o":"m 989 298 l 1111 345 q 1348 -115 1232 133 l 1223 -180 q 1164 -45 1201 -123 q 707 -79 902 -58 q 504 -113 608 -87 q 460 16 489 -33 q 600 120 561 63 q 1036 784 959 588 l 1164 710 q 1186 682 1187 696 q 1160 656 1185 667 q 1095 591 1129 646 q 672 33 901 294 q 761 39 697 34 q 1116 60 1005 55 q 989 298 1046 203 m 249 534 q 151 397 199 460 q 24 469 93 446 q 372 1081 257 713 l 497 1020 q 529 992 528 1005 q 501 963 530 979 q 461 911 478 950 q 372 734 419 819 l 372 -59 q 382 -203 373 -84 l 240 -203 q 249 -59 248 -85 l 249 534 m 933 882 q 530 303 782 580 q 403 374 475 343 q 868 1077 686 619 l 994 1017 q 1022 989 1023 1004 q 990 960 1021 975 q 933 882 968 953 z "},"们":{"ha":1389,"x_min":36,"x_max":1265,"o":"m 36 473 q 363 1072 225 652 l 503 1015 q 520 994 522 1007 q 496 966 517 980 q 467 928 477 954 q 380 741 425 833 l 380 -9 q 392 -208 382 -151 l 243 -208 q 254 -9 254 -149 l 254 522 q 167 392 214 456 q 36 473 95 444 m 682 -193 l 533 -193 q 545 9 543 -129 l 545 641 q 532 808 543 736 l 684 789 q 709 771 707 786 q 690 735 711 755 q 671 666 670 718 l 671 9 q 682 -193 672 -135 m 664 1045 q 677 1031 668 1041 q 852 833 807 897 l 743 745 q 568 966 665 880 l 664 1045 m 857 816 l 857 947 q 993 934 912 935 l 1101 934 q 1265 949 1198 935 q 1253 783 1254 891 l 1253 -60 q 1205 -165 1257 -141 q 987 -205 1153 -195 q 922 -45 980 -130 q 1072 -62 1027 -61 q 1126 -18 1131 -65 l 1126 830 l 991 830 q 857 816 939 829 z "},"仰":{"ha":1389,"x_min":22,"x_max":1283,"o":"m 253 573 q 154 431 220 521 q 22 510 91 479 q 330 1073 233 721 l 463 1010 q 488 984 490 998 q 457 954 487 970 q 432 920 442 945 q 378 792 407 855 l 378 -35 q 389 -198 378 -125 l 240 -198 q 253 -35 252 -129 l 253 573 m 770 1019 l 848 914 q 857 895 857 903 q 853 886 857 890 q 839 881 848 881 q 819 885 830 881 q 798 890 809 890 q 775 885 787 890 q 637 852 705 865 l 637 191 q 802 319 707 239 q 827 178 806 239 q 623 33 735 120 q 570 -15 618 31 q 473 73 532 42 q 511 146 511 113 l 511 788 q 498 941 511 895 q 770 1019 622 951 m 861 972 q 997 959 935 958 l 1131 959 q 1283 972 1205 960 q 1270 823 1270 901 l 1270 192 q 1234 47 1272 75 q 1057 9 1201 14 q 1007 146 1038 82 q 1104 137 1074 137 q 1143 170 1146 135 l 1143 854 l 1002 854 l 1002 -38 q 1014 -203 1002 -142 l 863 -203 q 875 -38 873 -136 l 875 820 q 861 972 875 860 z "},"仲":{"ha":1389,"x_min":25,"x_max":1289,"o":"m 817 1081 l 964 1063 q 995 1047 992 1060 q 974 1009 997 1035 q 956 927 954 991 l 956 780 l 1145 780 q 1289 793 1196 779 q 1276 644 1276 725 l 1276 330 q 1289 172 1277 240 l 1139 172 q 1140 180 1139 174 q 1150 258 1151 234 l 956 258 l 956 -68 q 965 -197 954 -121 l 815 -197 q 825 -124 823 -146 q 827 -68 827 -98 l 827 258 l 646 258 q 657 163 645 223 l 507 163 q 519 321 519 234 l 519 644 q 507 793 519 711 q 652 780 601 780 l 827 780 l 827 909 q 817 1081 827 1001 m 827 364 l 827 673 l 646 673 l 646 364 l 827 364 m 1150 364 l 1150 673 l 956 673 l 956 364 l 1150 364 m 272 552 q 168 405 227 483 q 25 462 109 437 q 372 1099 261 698 l 513 1040 q 541 1012 543 1027 q 507 980 540 998 q 469 932 485 968 q 397 773 444 869 l 397 -35 q 408 -198 397 -127 l 260 -198 q 272 -35 271 -123 l 272 552 z "},"任":{"ha":1389,"x_min":26,"x_max":1350,"o":"m 26 481 q 371 1077 259 694 l 525 1017 q 541 998 541 1009 q 515 964 541 984 q 472 905 492 949 q 386 732 437 824 l 386 -35 q 397 -212 391 -151 l 250 -212 q 261 -35 258 -101 l 261 544 q 241 517 255 535 q 160 412 186 442 q 26 481 85 456 m 439 361 l 439 499 q 595 484 504 484 l 839 484 l 839 779 q 554 741 717 755 q 473 874 521 804 q 585 870 531 870 q 1164 1004 903 870 l 1265 897 q 1278 873 1278 883 q 1273 861 1278 867 q 1246 853 1264 853 q 1225 856 1238 853 q 1198 859 1211 859 q 1182 858 1192 859 q 1141 848 1172 857 q 965 801 1048 819 l 965 484 l 1192 484 q 1350 495 1272 485 l 1350 368 q 1299 370 1345 368 q 1192 376 1212 376 l 965 376 l 965 3 l 1160 3 q 1315 16 1231 4 l 1315 -116 q 1160 -105 1242 -106 l 629 -105 q 473 -116 547 -106 l 473 16 q 629 3 548 5 l 839 3 l 839 376 l 595 376 q 439 361 519 375 z "},"伊":{"ha":1389,"x_min":14,"x_max":1340,"o":"m 208 520 q 135 416 173 464 q 14 506 81 468 q 297 1082 226 730 l 437 1033 q 464 1008 463 1023 q 439 979 464 993 q 401 924 414 964 q 334 745 371 834 l 334 -2 q 345 -173 335 -87 l 197 -173 q 208 -2 208 -71 l 208 520 m 458 230 l 458 359 q 603 345 532 346 l 682 345 q 703 557 698 443 l 539 557 q 389 544 461 555 l 389 674 q 539 662 456 663 l 703 662 l 703 869 l 618 869 q 473 857 547 868 l 473 987 q 618 972 547 973 l 1038 972 q 1187 987 1104 974 q 1175 840 1178 911 l 1175 662 l 1215 662 q 1340 674 1263 662 l 1340 545 q 1215 557 1251 558 l 1175 557 l 1175 316 q 1186 149 1177 225 l 1038 149 q 1050 241 1050 199 l 789 241 q 472 -195 727 -18 q 350 -94 415 -132 q 657 241 587 4 l 603 241 q 458 230 532 241 m 808 345 l 1050 345 l 1050 557 l 829 557 q 808 345 827 456 m 829 869 l 829 662 l 1050 662 l 1050 869 l 829 869 z "},"伍":{"ha":1389,"x_min":12,"x_max":1332,"o":"m 496 438 l 496 569 q 608 556 573 555 l 693 556 l 737 841 l 591 841 q 453 828 540 841 l 453 959 q 449 956 451 957 q 414 903 429 945 q 342 731 377 805 l 342 -35 q 351 -193 342 -106 l 205 -193 q 215 -35 214 -117 l 215 499 q 143 382 182 441 q 12 458 81 427 q 318 1074 205 667 l 456 1010 q 477 987 477 1000 q 456 960 477 975 q 591 948 536 949 l 1156 948 q 1295 962 1216 948 l 1295 828 q 1156 841 1217 840 l 868 841 l 825 556 l 1061 556 q 1208 570 1112 555 q 1183 420 1186 478 l 1156 2 l 1198 2 q 1332 16 1257 2 l 1332 -116 q 1193 -104 1262 -104 l 526 -104 q 387 -116 463 -104 l 387 17 q 524 2 463 2 l 604 2 l 677 449 l 612 449 q 560 447 583 449 q 496 438 535 445 m 808 449 l 739 2 l 1025 2 l 1053 449 l 808 449 z "},"休":{"ha":1389,"x_min":17,"x_max":1372,"o":"m 429 640 l 429 764 q 574 755 547 755 l 786 755 l 786 920 q 775 1085 783 987 l 924 1067 q 952 1049 950 1064 q 929 1013 954 1034 q 911 927 911 999 l 911 755 l 1146 755 q 1249 761 1163 755 q 1295 764 1278 763 l 1295 640 q 1146 650 1181 650 l 932 650 q 1372 94 1103 260 q 1238 -15 1286 41 q 911 429 1049 168 l 911 -34 q 922 -199 914 -115 l 775 -199 q 786 -34 783 -113 l 786 416 q 482 -16 682 196 q 371 60 436 24 l 371 -54 q 379 -198 372 -135 l 235 -198 q 236 -176 235 -192 q 244 -54 244 -70 l 244 516 q 149 385 207 464 q 17 465 96 429 q 354 1086 250 680 l 498 1027 q 528 999 529 1015 q 494 970 526 984 q 457 924 472 960 q 371 732 411 810 l 371 84 q 754 650 626 278 l 574 650 q 429 640 517 648 z "},"众":{"ha":1389,"x_min":39,"x_max":1356,"o":"m 625 1081 l 779 1046 q 805 1025 803 1041 q 783 995 806 1010 q 757 958 765 983 q 1291 581 869 718 q 1169 463 1237 543 q 696 827 800 640 q 363 513 603 639 l 510 484 q 536 464 536 479 q 513 431 537 448 q 489 389 493 416 q 469 274 479 329 q 710 102 595 190 q 628 -12 669 53 q 429 155 536 76 q 168 -184 367 -2 q 39 -100 105 -134 q 351 356 309 64 q 356 444 356 395 q 354 509 356 477 q 214 450 288 474 q 86 573 178 496 q 625 1081 580 652 m 914 153 q 653 -194 860 -30 q 519 -124 593 -154 q 821 298 790 18 q 829 416 828 351 q 823 539 829 481 l 977 512 q 999 495 998 508 q 981 467 1000 482 q 962 425 966 455 q 959 384 961 414 q 958 370 958 374 q 1356 -79 1038 92 q 1217 -173 1262 -115 q 914 153 994 7 z "},"会":{"ha":1389,"x_min":25,"x_max":1353,"o":"m 115 235 l 115 360 q 301 349 203 351 l 1035 349 q 1221 360 1140 353 l 1221 235 q 1035 245 1145 243 l 689 245 l 711 223 q 723 200 723 211 q 721 191 723 195 q 684 173 713 177 q 619 137 654 172 q 503 22 582 99 q 440 -40 462 -19 q 623 -31 489 -36 l 890 -18 q 766 108 827 54 l 864 191 q 1177 -132 1013 43 l 1076 -231 q 981 -108 1017 -148 q 460 -144 640 -136 q 237 -173 343 -149 q 197 -55 223 -118 q 317 5 277 -28 q 550 245 404 68 l 301 245 q 115 235 185 243 m 353 478 l 353 600 q 139 458 252 526 q 25 563 80 522 q 643 1093 439 743 l 771 1040 q 786 1019 788 1031 q 762 998 783 1005 q 737 981 751 994 q 1353 606 969 716 q 1244 483 1274 545 q 667 891 829 687 q 359 605 545 740 q 519 593 456 595 l 840 593 q 1007 605 913 595 l 1007 479 q 840 490 920 488 l 519 490 q 353 478 427 486 z "},"伞":{"ha":1389,"x_min":20,"x_max":1348,"o":"m 654 897 q 142 463 421 624 q 20 572 93 517 q 618 1090 404 722 l 753 1038 q 777 1011 780 1027 q 742 989 772 994 q 733 985 738 989 q 1348 601 978 703 q 1222 475 1262 530 q 654 897 884 627 m 258 194 l 614 194 l 614 532 q 604 713 612 614 l 761 691 q 785 673 784 688 q 765 640 786 658 q 742 553 741 621 l 742 194 l 1084 194 q 1249 206 1154 194 l 1249 74 q 1084 87 1161 86 l 742 87 l 742 -47 q 753 -220 743 -127 l 603 -220 q 614 -47 612 -132 l 614 87 l 258 87 q 94 75 187 86 l 94 205 q 258 194 193 195 m 1089 459 q 1038 418 1058 449 q 886 218 959 307 q 770 283 836 256 q 974 573 897 419 l 1092 499 q 1107 477 1108 489 q 1089 459 1107 466 m 355 556 q 562 302 468 437 l 454 222 q 250 484 353 379 l 355 556 z "},"伟":{"ha":1389,"x_min":14,"x_max":1287,"o":"m 574 373 l 778 373 l 778 500 l 642 500 q 514 487 594 500 l 514 618 q 642 605 586 606 l 778 605 l 778 732 l 583 732 q 450 722 538 733 l 450 850 q 583 837 537 837 l 778 837 l 778 920 q 768 1078 779 989 l 911 1060 q 941 1049 939 1057 q 943 1040 943 1042 q 922 1006 943 1027 q 904 922 903 991 l 904 837 l 1143 837 q 1279 850 1207 838 l 1279 719 q 1143 732 1206 732 l 904 732 l 904 605 l 1084 605 q 1213 618 1134 604 l 1213 488 q 1084 500 1137 501 l 904 500 l 904 373 l 1136 373 q 1287 387 1200 374 q 1272 274 1277 328 l 1258 120 q 1190 -16 1250 17 q 965 -55 1134 -52 q 920 91 947 34 q 1050 79 1017 79 q 1129 145 1129 75 q 1134 208 1131 169 q 1139 269 1137 245 l 904 269 l 904 -28 q 916 -194 903 -116 l 766 -194 q 778 -28 779 -127 l 778 269 l 574 269 q 429 258 519 269 l 429 387 q 574 373 516 373 m 245 551 q 143 417 213 500 q 14 496 81 465 q 345 1082 267 743 l 488 1028 q 513 1003 514 1018 q 484 977 512 987 q 452 939 464 969 q 372 766 412 847 l 372 -27 q 382 -184 372 -98 l 236 -184 q 243 -109 241 -144 q 245 -27 245 -77 l 245 551 z "},"伦":{"ha":1389,"x_min":16,"x_max":1378,"o":"m 760 429 l 760 311 q 1051 549 931 414 l 1153 441 q 1167 414 1167 426 q 1164 405 1167 410 q 1137 395 1157 395 q 1124 395 1128 395 q 1061 373 1097 399 q 760 180 913 267 l 760 5 q 836 -44 754 -43 q 903 -45 863 -45 q 962 -43 940 -45 q 1067 2 1048 -37 q 1084 90 1084 26 q 1080 157 1084 123 q 1159 113 1126 124 q 1236 103 1192 101 q 1166 -100 1218 -49 q 990 -161 1118 -155 q 904 -164 943 -163 q 817 -162 865 -164 q 672 -127 707 -158 q 635 -15 633 -98 l 635 418 q 627 556 634 451 q 489 417 569 491 q 367 509 433 468 q 778 1082 630 658 l 921 1037 q 937 1018 939 1030 q 913 995 935 1006 q 897 983 900 989 q 1378 559 1062 677 q 1249 444 1305 522 q 832 859 976 602 q 660 593 736 684 l 775 577 q 797 559 797 573 q 777 526 798 545 q 760 429 758 515 m 231 523 l 143 408 q 16 496 78 462 q 349 1069 241 691 l 486 1012 q 513 988 511 1002 q 492 960 514 974 q 447 906 465 947 q 357 730 408 823 l 357 -45 q 366 -202 359 -136 l 221 -202 q 231 -45 227 -134 l 231 523 z "},"伯":{"ha":1389,"x_min":12,"x_max":1272,"o":"m 368 1091 l 498 1037 q 526 1011 526 1025 q 500 985 526 997 q 463 939 478 975 q 396 796 440 887 l 396 -41 q 407 -212 399 -140 l 258 -212 q 269 -41 267 -123 l 269 578 q 167 433 215 494 q 12 500 102 475 q 368 1091 229 682 m 684 -195 l 534 -195 q 546 -33 543 -116 l 546 650 q 534 817 543 742 q 682 805 615 808 l 745 805 q 810 1091 799 979 l 961 1050 q 981 1031 981 1044 q 960 1005 981 1018 q 928 956 939 991 q 872 805 910 904 l 1135 805 q 1271 817 1196 807 q 1260 650 1264 747 l 1260 -16 q 1272 -178 1264 -126 l 1124 -178 q 1135 -59 1131 -112 l 672 -59 l 672 -66 q 684 -195 673 -106 m 1131 43 l 1131 326 l 672 326 l 672 43 l 1131 43 m 672 701 l 672 430 l 1131 430 l 1131 701 l 672 701 z "},"伽":{"ha":1389,"x_min":35,"x_max":1284,"o":"m 236 517 l 176 412 q 35 462 115 441 q 329 1069 205 629 l 457 1027 q 488 1002 486 1018 q 463 972 488 985 q 416 903 437 966 q 361 767 393 836 l 361 -35 q 362 -66 361 -42 q 364 -98 363 -87 q 497 172 464 18 q 539 670 532 317 l 522 670 q 452 659 509 670 q 408 650 425 654 l 401 789 q 524 780 486 781 l 539 780 l 539 906 q 529 1053 536 983 l 671 1036 q 705 1015 702 1031 q 681 981 707 1000 q 663 902 662 972 l 663 781 l 750 787 q 871 806 776 788 q 863 642 865 734 q 843 50 857 323 q 796 -100 839 -60 q 636 -155 752 -144 q 579 -7 623 -79 q 663 -20 652 -22 q 715 31 709 -22 q 742 681 734 149 l 661 675 q 627 177 650 271 q 501 -149 606 54 q 364 -113 437 -123 q 371 -187 366 -146 l 227 -187 q 236 -35 236 -61 l 236 517 m 1048 -158 l 905 -158 q 916 10 915 -26 l 916 720 q 904 873 912 785 q 1054 863 997 865 l 1135 863 q 1284 873 1194 865 q 1274 720 1276 780 l 1274 38 q 1283 -130 1275 -11 l 1139 -130 q 1141 -109 1139 -123 q 1150 -34 1150 -47 l 1039 -34 q 1048 -158 1042 -106 m 1038 759 l 1038 70 l 1150 70 l 1150 759 l 1038 759 z "},"位":{"ha":1389,"x_min":8,"x_max":1354,"o":"m 342 1084 l 490 1019 q 507 1000 507 1010 q 481 968 507 986 q 450 930 463 958 q 380 783 413 843 l 380 -19 q 392 -218 381 -144 l 244 -218 q 254 -19 253 -145 l 254 535 q 161 387 217 471 q 8 467 90 438 q 342 1084 218 668 m 1015 7 l 1185 7 q 1354 22 1277 9 l 1354 -108 q 1185 -95 1273 -97 l 587 -95 q 410 -108 492 -97 l 410 22 q 587 7 481 9 l 882 7 q 1025 653 988 374 l 1174 608 q 1204 585 1203 599 q 1178 553 1205 572 q 1150 502 1160 543 q 1131 429 1143 475 q 1015 7 1067 168 m 644 1008 l 745 1097 q 971 870 862 1001 l 876 791 l 1128 791 q 1300 804 1222 792 l 1300 673 q 1128 687 1218 685 l 619 687 q 447 674 530 686 l 447 804 q 619 791 524 792 l 852 791 q 644 1008 743 930 m 673 598 q 848 91 778 316 l 708 43 q 539 551 635 338 l 673 598 z "},"余":{"ha":1389,"x_min":9,"x_max":1362,"o":"m 637 1093 l 760 1025 q 788 997 789 1010 q 757 971 788 985 q 1362 623 979 703 q 1243 492 1282 559 q 1040 592 1134 538 l 1040 492 q 896 505 934 505 l 757 505 l 757 341 l 1029 341 q 1185 353 1094 342 l 1185 224 q 1032 237 1101 236 l 757 237 l 757 -64 q 759 -84 759 -77 q 493 -212 759 -203 q 440 -58 487 -143 q 585 -73 532 -73 q 631 -35 635 -76 l 631 237 l 351 237 q 199 224 290 236 l 199 353 q 351 341 292 342 l 631 341 l 631 505 l 473 505 q 329 492 430 505 l 329 559 q 146 444 235 494 q 9 553 99 499 q 637 1093 428 701 m 896 609 q 1002 616 936 609 q 672 884 795 744 q 400 613 547 728 q 473 609 435 609 l 896 609 m 397 213 l 509 125 q 526 94 530 108 q 491 73 520 80 q 439 39 461 64 q 203 -189 370 -43 q 81 -88 149 -129 q 397 213 267 8 m 831 94 l 908 202 q 1272 -52 1114 81 l 1186 -159 q 831 94 1031 -17 z "},"佛":{"ha":1389,"x_min":12,"x_max":1322,"o":"m 808 275 q 539 -209 777 -12 q 414 -120 484 -159 q 682 275 653 -1 l 597 275 q 447 264 534 275 q 462 384 457 319 q 463 395 463 391 l 469 513 q 460 638 471 554 q 610 624 543 625 l 685 624 l 685 776 l 627 776 q 482 763 555 774 l 482 886 q 627 874 556 876 l 685 874 l 685 914 q 675 1084 684 983 l 819 1066 q 850 1047 847 1062 q 827 1012 851 1032 q 811 922 810 1002 l 811 874 l 909 874 l 909 913 q 899 1082 909 991 l 1040 1065 q 1071 1048 1069 1061 q 1053 1010 1074 1036 q 1039 979 1042 998 q 1035 920 1035 961 l 1035 874 l 1109 874 q 1263 888 1194 875 q 1249 755 1250 819 l 1249 649 q 1261 513 1249 589 q 1108 526 1177 524 l 1035 526 l 1035 376 l 1175 376 q 1322 388 1245 377 q 1305 263 1310 318 l 1297 130 q 1249 -8 1293 28 q 1090 -58 1209 -47 q 1042 73 1069 18 q 1111 70 1086 71 q 1156 84 1145 69 q 1169 145 1166 95 l 1179 275 l 1035 275 l 1035 -28 q 1043 -197 1034 -133 l 899 -197 q 909 -28 908 -100 l 909 275 l 808 275 m 591 526 l 581 376 l 685 376 l 685 526 l 591 526 m 811 526 l 811 376 l 909 376 l 909 526 l 811 526 m 811 776 l 811 624 l 909 624 l 909 776 l 811 776 m 1035 776 l 1035 624 l 1125 624 l 1125 776 l 1035 776 m 240 578 q 153 441 204 517 q 12 498 91 477 q 340 1074 227 729 l 469 1013 q 494 987 496 1001 q 464 959 493 974 q 432 923 446 949 q 366 796 402 865 l 366 -33 q 376 -198 367 -107 l 229 -198 q 240 -33 239 -107 l 240 578 z "},"作":{"ha":1389,"x_min":60,"x_max":1333,"o":"m 424 506 q 745 1095 652 688 l 897 1045 q 925 1020 925 1035 q 899 991 926 1004 q 857 945 871 979 q 787 787 831 878 l 1145 787 q 1333 798 1257 789 l 1333 667 q 1145 680 1257 677 l 896 680 l 896 484 l 1083 484 q 1255 495 1185 486 l 1255 366 q 1083 380 1178 378 l 896 380 l 896 201 l 1140 201 q 1312 212 1228 202 l 1312 83 q 1140 96 1238 95 l 896 96 l 896 -2 q 905 -206 897 -120 l 753 -206 q 764 -2 763 -132 l 764 680 l 734 680 q 553 427 671 558 q 424 506 494 474 m 60 519 q 379 1094 293 762 l 519 1033 q 549 1004 548 1020 q 518 976 547 988 q 475 927 494 965 q 403 777 452 878 l 403 1 q 414 -198 404 -110 l 267 -198 q 277 1 275 -112 l 277 563 q 189 439 235 499 q 60 519 125 488 z "},"佤":{"ha":1389,"x_min":8,"x_max":1353,"o":"m 1292 988 l 1292 861 q 1154 870 1206 869 l 728 870 l 713 699 l 968 699 q 1121 711 1038 701 q 1103 559 1107 621 l 1068 14 q 1067 0 1067 7 q 1078 -33 1067 -26 q 1139 -45 1090 -45 q 1189 -7 1177 -49 q 1214 176 1202 28 q 1353 75 1291 96 q 1277 -123 1323 -76 q 1128 -169 1234 -173 q 969 -130 1009 -167 q 934 -28 934 -102 q 935 -2 934 -12 l 949 235 l 842 159 q 686 397 776 282 l 650 -9 q 903 112 757 36 q 901 28 901 73 q 901 -26 901 -1 q 539 -193 703 -104 q 484 -77 519 -130 q 524 6 522 -31 l 597 870 l 579 870 q 446 861 520 868 l 446 962 q 444 961 445 962 q 443 960 444 960 q 403 901 418 943 q 350 766 367 805 l 350 -35 q 358 -201 352 -104 l 214 -201 q 224 -35 220 -153 l 224 520 q 178 441 208 492 q 147 389 157 406 q 8 448 85 429 q 301 1076 234 719 l 446 1019 q 468 994 468 1010 q 467 985 468 989 q 579 977 527 979 l 1154 977 q 1292 988 1192 978 m 704 592 l 689 425 l 782 484 q 950 251 876 363 l 971 592 l 704 592 z "},"佬":{"ha":1389,"x_min":18,"x_max":1349,"o":"m 382 -44 q 392 -203 385 -129 l 245 -203 q 256 -44 252 -127 l 256 526 q 170 388 212 452 q 18 465 102 437 q 345 1090 246 686 l 489 1033 q 515 1007 515 1022 q 488 976 515 993 q 449 923 464 962 q 382 770 425 862 l 382 192 q 661 366 540 270 q 650 471 656 431 l 755 450 q 811 505 785 478 l 559 505 q 419 494 517 503 l 419 620 q 559 609 502 610 l 753 609 l 753 762 l 648 762 q 517 749 625 761 l 517 877 q 648 866 579 869 l 753 866 l 753 922 q 742 1066 751 972 l 886 1048 q 918 1027 914 1044 q 896 991 920 1010 q 878 910 876 980 l 878 866 l 942 866 q 1068 877 1010 868 l 1068 876 q 1121 1008 1095 932 l 1255 931 q 1278 905 1278 918 q 1275 894 1278 902 q 1240 877 1273 886 q 1198 838 1218 871 q 1048 609 1129 720 l 1213 609 q 1349 621 1277 612 l 1349 492 q 1213 505 1236 504 l 970 505 q 787 321 883 404 l 787 231 q 1133 392 1008 283 l 1234 283 q 1245 258 1245 269 q 1240 244 1245 253 q 1217 236 1234 236 q 1204 237 1210 236 q 1191 238 1197 238 q 1140 227 1170 238 q 787 123 961 161 l 787 5 q 814 -43 785 -33 q 936 -54 842 -54 q 1137 -14 1095 -56 q 1181 163 1184 23 q 1336 68 1257 101 q 1217 -132 1286 -96 q 936 -172 1154 -175 q 709 -143 757 -172 q 661 -27 657 -121 l 661 209 q 490 91 614 175 q 472 79 478 83 q 382 161 430 125 l 382 -44 m 942 762 l 878 762 l 878 609 l 899 609 q 1003 758 968 697 q 942 762 969 762 z "},"佳":{"ha":1389,"x_min":16,"x_max":1339,"o":"m 517 727 l 517 857 q 659 844 602 843 l 814 844 l 814 926 q 802 1077 814 984 l 947 1059 q 974 1047 972 1055 q 975 1037 975 1039 q 957 1008 975 1024 q 942 980 946 998 q 939 920 939 963 l 939 844 l 1116 844 q 1254 856 1179 843 l 1254 727 q 1116 739 1158 739 l 939 739 l 939 569 l 1200 569 q 1339 581 1256 569 l 1339 452 q 1200 465 1238 465 l 819 465 l 950 448 q 981 437 979 444 q 983 428 983 429 q 962 395 983 415 q 945 307 944 379 l 945 283 l 1125 283 q 1264 296 1184 283 l 1264 166 q 1125 178 1186 176 l 945 178 l 945 -15 l 1197 -15 q 1339 -2 1251 -15 l 1339 -132 q 1197 -117 1259 -117 l 579 -117 q 427 -130 509 -117 l 427 -3 q 579 -15 515 -15 l 819 -15 l 819 178 l 636 178 q 492 166 575 179 l 492 295 q 636 283 571 283 l 819 283 l 819 304 q 808 465 820 372 l 578 465 q 433 452 521 465 l 433 581 q 578 569 522 569 l 814 569 l 814 739 l 659 739 q 517 727 604 739 m 224 484 q 153 373 186 421 q 16 455 94 419 q 335 1065 237 669 l 479 998 q 503 972 505 986 q 472 943 501 958 q 435 897 448 930 q 350 703 397 808 l 350 -60 q 359 -203 349 -120 l 212 -203 q 221 -123 219 -155 q 224 -60 224 -92 l 224 484 z "},"侍":{"ha":1389,"x_min":12,"x_max":1335,"o":"m 443 496 l 443 623 q 574 612 536 612 l 835 612 l 835 744 l 665 744 q 554 733 653 744 q 539 731 544 732 l 539 861 q 665 848 604 851 l 835 848 l 835 924 q 825 1073 835 935 l 957 1055 q 1000 1036 996 1049 q 974 999 1004 1022 q 961 914 960 993 l 961 848 l 1108 848 q 1247 859 1140 848 l 1247 732 q 1231 734 1242 733 q 1108 744 1123 745 l 961 744 l 961 612 l 1198 612 q 1335 623 1236 613 l 1335 496 q 1198 507 1238 506 l 996 507 l 1107 494 q 1145 475 1139 490 q 1146 470 1146 473 q 1126 439 1146 457 q 1109 384 1109 426 l 1109 380 l 1154 380 q 1292 389 1213 381 l 1292 264 q 1154 275 1190 275 l 1109 275 l 1109 -71 q 1065 -171 1114 -151 q 843 -206 1021 -196 q 794 -55 838 -141 q 940 -75 899 -74 q 985 -48 987 -75 l 985 275 l 636 275 q 497 264 586 273 l 497 389 q 636 380 572 381 l 985 380 q 974 507 983 433 l 574 507 q 443 496 528 506 m 245 530 q 183 442 227 503 q 157 405 165 417 q 12 469 102 442 q 351 1056 243 685 l 494 999 q 520 973 521 988 q 490 945 519 958 q 450 894 469 940 q 371 734 412 808 l 371 -58 q 380 -201 374 -127 l 236 -201 q 245 -58 245 -84 l 245 530 m 595 177 l 690 264 q 880 74 795 176 l 783 -18 q 595 177 691 100 z "},"侗":{"ha":1389,"x_min":12,"x_max":1300,"o":"m 332 1078 l 484 1023 q 509 999 509 1013 q 660 988 593 987 l 1136 988 q 1300 1000 1204 989 q 1297 971 1299 990 q 1287 850 1286 877 l 1287 -20 q 1236 -140 1290 -113 q 1015 -174 1185 -172 q 951 -26 1010 -100 q 969 -28 958 -26 q 1116 -40 1100 -41 q 1154 -28 1145 -41 q 1161 22 1162 -18 l 1161 884 l 633 884 l 633 -9 q 644 -180 634 -97 l 497 -180 q 509 -9 509 -98 l 509 850 q 497 981 509 887 q 488 975 494 977 q 458 939 467 963 q 370 735 408 811 l 370 -20 q 380 -197 370 -115 l 233 -197 q 244 -20 244 -110 l 244 503 l 168 388 q 12 465 95 435 q 332 1078 258 696 m 1101 127 q 964 138 994 138 l 827 138 q 690 127 780 140 q 701 271 702 220 l 701 418 q 689 549 702 463 q 766 539 738 541 q 827 536 792 536 l 964 536 q 1103 549 985 535 q 1093 471 1095 490 q 1090 418 1090 447 l 1090 271 q 1101 127 1091 221 m 654 640 l 654 767 q 729 758 701 760 q 787 756 756 756 l 1004 756 q 1136 767 1034 755 l 1136 640 q 1004 652 1024 653 l 787 652 q 654 640 744 653 m 968 433 l 823 433 l 823 242 l 968 242 l 968 433 z "},"依":{"ha":1389,"x_min":8,"x_max":1372,"o":"m 1247 -123 q 822 620 871 156 q 789 544 808 586 l 789 42 q 945 197 876 117 q 993 59 961 125 q 707 -198 848 -56 q 615 -100 673 -131 q 653 -49 643 -71 q 663 6 663 -27 l 663 335 q 471 113 571 209 q 382 191 431 155 l 382 -73 q 393 -208 382 -117 l 245 -208 q 257 -72 256 -128 l 257 543 q 126 380 222 485 q 8 465 77 424 q 354 1080 236 659 l 492 1028 q 516 1003 517 1019 q 489 976 515 988 q 460 938 469 964 q 382 752 423 841 l 382 229 q 714 711 619 423 l 574 711 q 427 699 509 711 l 427 831 q 574 819 506 819 l 865 819 q 690 972 772 914 l 778 1073 q 990 888 924 956 l 921 819 l 1158 819 q 1311 831 1230 819 l 1311 699 q 1158 711 1227 711 l 857 711 q 836 654 849 692 q 827 631 829 639 q 947 648 886 631 q 990 412 944 538 q 1139 633 1085 524 l 1258 551 q 1279 524 1279 536 q 1277 513 1279 521 q 1246 502 1275 505 q 1202 474 1221 500 q 1042 298 1135 391 q 1372 -14 1173 77 q 1247 -123 1292 -61 z "},"侨":{"ha":1389,"x_min":8,"x_max":1372,"o":"m 1086 -180 l 939 -180 q 950 -23 950 -96 l 950 264 q 939 426 951 340 l 1055 410 q 856 610 931 497 q 697 414 802 500 l 783 404 q 818 385 814 399 q 796 348 821 371 q 781 294 780 337 q 737 9 782 98 q 551 -206 697 -85 q 425 -108 506 -155 q 654 252 660 -16 q 647 376 654 297 q 465 269 571 320 q 358 387 420 337 q 733 644 617 443 l 585 644 q 435 631 534 644 l 435 760 q 585 748 517 748 l 768 748 q 782 885 777 801 q 555 867 650 872 q 490 1010 538 936 q 583 996 540 1000 q 675 992 622 992 q 1090 1067 938 998 l 1186 983 q 1203 954 1203 966 q 1200 944 1203 949 q 1174 934 1192 934 q 1154 937 1166 934 q 1133 939 1146 939 q 1089 932 1113 939 q 914 901 1008 914 q 911 864 913 888 q 897 748 905 791 l 1153 748 q 1305 760 1225 748 l 1305 631 q 1153 644 1211 644 l 975 644 q 1372 445 1124 465 q 1254 299 1305 389 q 1108 376 1173 336 q 1093 353 1102 364 q 1075 277 1074 335 l 1075 -23 q 1086 -180 1075 -100 m 228 522 q 150 401 194 467 q 8 470 109 435 q 326 1078 209 688 l 460 1017 q 479 994 480 1008 q 456 966 478 979 q 425 923 438 955 q 354 773 397 857 l 354 -15 q 366 -174 354 -90 l 218 -174 q 228 -15 229 -95 l 228 522 z "},"侯":{"ha":1389,"x_min":17,"x_max":1373,"o":"m 401 653 l 401 779 q 546 767 494 769 l 924 767 l 960 898 l 701 898 q 559 885 639 895 l 559 1013 q 701 1002 625 1004 l 971 1002 q 1126 1013 1056 1004 l 1054 767 l 1165 767 q 1310 780 1242 770 l 1310 652 q 1165 663 1239 660 l 650 663 l 718 641 q 735 621 738 634 q 708 593 732 608 q 689 567 699 589 l 1040 567 q 1187 580 1121 570 l 1187 450 q 1040 463 1109 460 l 901 463 q 897 309 901 368 l 1133 309 q 1289 321 1228 313 l 1289 194 q 1136 205 1180 203 l 971 205 q 1373 -77 1089 -16 q 1251 -202 1298 -124 q 863 165 965 -65 q 490 -194 772 -77 q 354 -88 439 -146 q 741 205 653 -33 l 566 205 q 412 194 525 203 l 412 321 q 566 309 493 310 l 766 309 q 770 414 770 341 l 770 463 l 640 463 q 546 321 598 395 q 412 377 486 355 q 589 663 519 469 l 546 663 q 401 653 496 662 m 227 553 q 202 517 218 542 q 164 462 175 477 q 17 520 99 497 q 328 1097 205 688 l 460 1040 q 480 1015 482 1029 q 453 988 479 1000 q 416 941 433 981 q 393 885 410 924 q 351 788 363 813 l 351 -52 q 361 -190 353 -117 l 215 -190 q 227 -52 224 -105 l 227 553 z "},"便":{"ha":1389,"x_min":4,"x_max":1369,"o":"m 215 552 l 144 442 q 4 513 86 481 q 309 1082 196 691 l 449 1025 q 463 1016 458 1021 q 608 1006 532 1008 l 1150 1006 q 1314 1017 1242 1006 l 1314 892 q 1150 903 1225 903 l 928 903 l 928 804 l 1082 804 q 1240 817 1165 805 q 1226 670 1226 749 l 1226 437 q 1240 287 1226 387 q 1082 300 1161 300 l 914 300 q 851 67 893 146 q 1320 -35 1084 -35 q 1369 -34 1338 -35 q 1263 -185 1303 -102 q 766 -28 965 -137 q 454 -199 667 -124 q 357 -75 416 -128 q 661 39 522 -58 q 486 226 574 111 q 590 298 536 255 q 494 287 534 294 q 509 433 507 366 l 509 670 q 494 817 507 745 q 653 804 568 805 l 804 804 l 804 903 l 608 903 q 450 890 521 902 l 450 977 q 441 975 446 975 q 410 937 425 970 q 338 779 383 874 l 338 -3 q 349 -173 338 -106 l 203 -173 q 215 -3 214 -102 l 215 552 m 653 300 q 600 298 637 300 q 595 298 596 298 q 742 132 642 203 q 786 300 771 184 l 653 300 m 928 502 q 922 402 926 469 l 1103 402 l 1103 502 l 928 502 m 928 702 l 928 604 l 1103 604 l 1103 702 l 928 702 m 629 604 l 804 604 l 804 702 l 629 702 l 629 604 m 629 402 l 796 402 q 802 502 802 466 l 629 502 l 629 402 z "},"俗":{"ha":1389,"x_min":9,"x_max":1367,"o":"m 1023 -73 l 668 -73 q 677 -174 668 -119 l 528 -174 q 541 -20 540 -107 l 541 243 q 533 348 541 298 q 432 275 488 315 q 354 356 392 323 l 354 -64 q 366 -209 353 -145 l 214 -209 q 227 -64 227 -136 l 227 578 q 178 503 209 551 q 144 450 154 465 q 9 530 94 490 q 310 1095 204 703 l 449 1036 q 469 1010 470 1025 q 444 984 468 995 q 412 947 422 972 q 354 810 379 865 l 354 408 q 782 850 618 494 l 905 796 q 928 770 931 785 q 895 751 924 755 q 1367 444 1071 515 q 1251 315 1289 384 q 1160 360 1202 337 q 1152 243 1152 305 l 1152 -16 q 1164 -170 1152 -125 l 1013 -170 q 1023 -73 1023 -120 m 668 278 l 668 30 l 1023 30 l 1023 278 l 668 278 m 818 649 q 586 388 718 491 q 689 382 647 382 l 1006 382 q 1112 389 1059 383 q 818 649 951 495 m 721 923 q 538 688 627 789 q 418 760 488 726 q 653 1070 559 876 l 768 999 q 785 974 788 987 q 755 952 781 961 q 721 923 735 944 m 892 955 l 982 1050 q 1235 821 1105 958 l 1140 724 q 892 955 1020 864 z "},"保":{"ha":1389,"x_min":22,"x_max":1369,"o":"m 383 -1 q 733 349 624 117 l 624 349 q 446 335 511 348 l 446 469 q 627 454 510 456 l 800 454 l 800 567 l 714 567 q 549 552 621 566 q 559 728 559 632 l 559 828 q 547 1006 559 943 q 715 991 616 992 l 1018 991 q 1200 1008 1132 993 q 1185 819 1186 944 l 1185 724 q 1200 552 1186 618 q 1035 567 1125 566 l 925 567 l 925 454 l 1109 454 q 1293 469 1227 456 l 1293 336 q 1109 349 1220 347 l 985 349 q 1369 6 1116 125 q 1253 -113 1295 -43 q 925 210 1045 29 l 925 9 q 936 -201 926 -138 l 787 -201 q 800 9 800 -132 l 800 216 q 493 -102 667 15 q 383 -1 443 -35 m 684 886 l 684 671 l 1060 671 l 1060 886 l 684 886 m 22 481 q 361 1080 272 726 l 492 1034 q 517 1013 516 1025 q 497 985 519 1001 q 463 941 473 966 q 371 732 411 811 l 371 6 q 383 -201 374 -125 l 236 -201 q 248 -1 246 -132 l 248 527 q 147 385 195 452 q 22 481 95 445 z "},"信":{"ha":1389,"x_min":21,"x_max":1333,"o":"m 21 498 q 368 1091 247 692 l 504 1029 q 527 1008 526 1020 q 509 988 528 997 q 452 920 473 977 q 379 767 418 846 l 379 7 q 389 -206 382 -138 l 244 -206 q 254 10 250 -135 l 254 556 q 165 429 227 510 q 155 416 159 420 q 21 498 113 449 m 460 749 l 460 877 q 621 866 519 869 l 880 866 q 720 1005 798 950 l 804 1094 q 997 935 877 1044 q 1008 924 1004 928 l 953 866 l 1157 866 q 1333 876 1255 869 l 1333 751 q 1154 762 1247 758 l 624 762 q 460 749 554 759 m 685 -205 l 541 -205 q 551 -34 547 -134 l 551 109 q 541 275 548 189 q 714 264 651 267 l 1055 264 q 1227 275 1106 266 q 1217 111 1220 204 l 1217 -20 q 1226 -195 1220 -127 l 1080 -195 q 1084 -171 1082 -188 q 1092 -109 1092 -123 l 676 -109 q 681 -165 676 -124 q 685 -205 684 -190 m 676 160 l 676 -6 l 1092 -6 l 1092 160 l 676 160 m 553 548 l 553 670 q 725 661 622 663 l 1059 661 q 1225 670 1153 663 l 1225 548 q 1053 557 1151 555 l 725 557 q 553 548 621 555 m 553 351 l 553 474 q 728 463 625 467 l 1061 463 q 1223 474 1145 467 l 1223 351 q 1061 361 1142 359 l 730 361 q 553 351 631 358 z "},"修":{"ha":1389,"x_min":3,"x_max":1382,"o":"m 890 985 q 852 951 868 979 q 845 936 850 945 q 839 923 841 927 l 1068 923 q 1210 935 1107 923 q 1002 644 1107 752 q 1382 548 1134 559 q 1276 406 1318 491 q 905 556 1062 460 q 564 380 766 452 q 504 475 538 431 l 504 181 q 514 28 505 126 l 378 28 q 387 181 384 100 l 387 642 q 378 801 386 699 l 501 783 q 538 770 536 777 q 541 760 541 763 q 519 730 541 747 q 506 707 508 722 q 505 686 505 699 q 504 642 504 675 l 504 507 q 802 629 668 533 q 711 711 768 657 q 653 637 682 673 q 525 709 591 688 q 760 1082 677 836 l 886 1033 q 913 1007 912 1022 q 890 985 914 993 m 204 519 q 142 408 174 457 q 3 456 85 437 q 286 1073 173 644 l 427 1021 q 442 1002 442 1012 q 414 971 442 987 q 387 939 396 962 q 326 789 359 863 l 326 -38 q 338 -212 326 -146 l 193 -212 q 204 -38 204 -143 l 204 519 m 1154 242 l 1253 163 q 1273 128 1277 143 q 1235 112 1267 113 q 1160 64 1215 114 q 591 -222 949 -110 q 489 -91 553 -159 q 1154 242 888 -50 m 1039 229 q 665 -3 935 127 q 571 116 631 62 q 1038 392 819 161 l 1128 324 q 1151 289 1155 304 q 1112 273 1145 274 q 1039 229 1088 274 m 926 373 q 631 182 806 277 q 545 291 596 248 q 926 536 776 361 l 1019 469 q 1044 431 1048 448 q 1004 414 1038 414 q 998 415 1002 415 q 926 373 974 415 m 993 819 l 781 819 q 779 816 779 817 q 895 707 856 734 q 993 819 950 762 z "},"候":{"ha":1389,"x_min":5,"x_max":1372,"o":"m 572 652 l 572 780 q 715 767 651 770 l 991 767 l 1028 898 l 818 898 q 672 885 758 895 l 672 1013 q 818 1002 734 1005 l 1035 1002 q 1192 1013 1126 1005 l 1121 767 l 1192 767 q 1333 780 1268 770 l 1333 652 q 1192 663 1267 661 l 779 663 l 847 644 q 869 626 867 638 q 851 604 869 614 q 821 572 833 591 l 1122 572 q 1244 584 1182 575 l 1244 455 q 1122 467 1154 466 l 1013 467 q 997 296 1010 389 l 1182 296 q 1320 309 1258 299 l 1320 180 q 1182 192 1232 190 l 1021 192 q 1372 -87 1147 -28 q 1253 -216 1298 -137 q 933 98 1025 -89 q 600 -209 862 -81 q 490 -92 550 -136 q 839 192 752 -27 l 704 192 q 575 180 684 192 l 575 309 q 704 296 642 297 l 863 296 q 876 467 875 382 l 772 467 q 688 317 732 381 q 553 373 629 352 q 704 663 668 473 q 572 652 647 660 m 215 538 q 210 530 214 535 q 139 425 162 456 q 5 499 87 465 q 310 1093 189 668 l 453 1034 q 472 1008 474 1025 q 447 980 471 991 q 408 934 420 966 q 391 894 403 922 q 338 768 353 798 l 338 -35 q 349 -193 340 -115 l 204 -193 q 215 -35 212 -117 l 215 538 m 536 66 l 397 67 q 408 217 406 141 l 408 680 q 397 846 406 760 l 532 827 q 557 807 555 823 q 539 770 559 791 q 525 686 525 759 l 525 216 q 536 66 528 135 z "},"偃":{"ha":1389,"x_min":9,"x_max":1329,"o":"m 218 484 q 144 369 193 439 q 9 437 98 406 q 322 1065 195 610 l 460 1006 q 484 984 482 994 q 612 976 543 977 l 1156 976 q 1305 991 1238 977 l 1305 862 q 1156 874 1233 873 l 579 874 l 579 -43 l 1179 -43 q 1329 -30 1257 -42 l 1329 -159 q 1179 -145 1257 -146 l 614 -145 q 441 -159 509 -148 q 454 9 454 -86 l 454 820 q 446 949 454 891 q 421 914 429 940 q 345 727 387 819 l 345 -33 q 355 -198 346 -126 l 208 -198 q 218 -33 218 -121 l 218 484 m 1308 259 q 1173 273 1235 272 l 1139 273 q 1061 160 1117 233 q 1238 79 1179 113 q 1166 -30 1192 20 q 975 83 1065 47 q 690 -28 857 7 q 596 92 662 37 q 854 134 771 96 q 663 189 797 154 q 746 273 709 229 l 742 273 q 606 258 673 273 l 606 382 q 742 369 679 369 l 817 369 q 852 431 831 390 l 791 431 q 650 418 731 431 q 664 555 664 499 l 664 707 q 648 842 664 774 q 791 827 732 827 l 1090 827 q 1225 842 1153 830 q 1210 707 1210 746 l 1210 555 q 1222 418 1210 486 q 1090 431 1146 430 l 940 431 l 989 420 q 1008 401 1010 414 q 981 384 1004 390 q 954 369 964 379 l 1173 369 q 1308 381 1230 369 l 1308 259 m 783 583 l 783 527 l 1088 527 l 1088 583 l 783 583 m 783 731 l 783 675 l 1088 675 l 1088 731 l 783 731 m 951 205 q 1003 273 979 231 l 888 273 q 872 252 882 265 q 857 233 862 239 l 951 205 z "},"健":{"ha":1389,"x_min":4,"x_max":1358,"o":"m 696 530 q 689 413 692 471 q 631 70 685 229 q 939 -54 743 -41 q 1090 -58 1015 -58 q 1358 -35 1225 -58 q 1303 -178 1312 -108 q 1179 -180 1214 -180 q 916 -170 1009 -180 q 585 -42 707 -146 q 472 -219 539 -131 q 354 -149 418 -178 q 361 -216 354 -166 l 214 -216 q 225 -47 225 -125 l 225 530 l 144 398 q 4 460 83 439 q 309 1077 203 673 l 439 1024 q 467 998 468 1012 q 435 967 464 984 q 408 930 418 960 l 404 918 q 530 906 476 906 l 612 906 q 742 922 644 905 q 564 516 664 724 l 593 516 q 696 530 614 516 m 675 613 l 675 735 q 799 724 765 723 l 905 724 l 905 808 l 868 808 q 749 795 828 808 l 749 918 q 868 903 835 903 l 905 903 l 905 940 q 896 1087 904 987 l 1035 1069 q 1067 1050 1064 1067 q 1044 1015 1067 1036 q 1028 940 1026 1004 l 1028 903 l 1128 903 q 1255 918 1153 903 q 1244 801 1243 821 l 1244 724 q 1343 737 1293 726 l 1343 613 q 1244 626 1278 626 l 1244 573 q 1254 438 1242 534 q 1118 450 1166 451 l 1028 450 l 1028 370 l 1140 370 q 1272 382 1189 370 l 1272 264 q 1140 277 1178 279 l 1028 277 l 1028 195 l 1171 195 q 1303 208 1196 195 l 1303 84 q 1171 96 1213 96 l 1029 96 q 1040 -37 1029 51 l 895 -37 q 905 96 905 48 l 811 96 q 682 84 774 96 l 682 208 q 811 195 770 195 l 905 195 l 905 277 l 840 277 q 711 267 786 277 l 711 382 q 840 370 806 370 l 905 370 l 905 450 l 869 450 q 745 438 831 450 l 745 553 q 869 543 822 541 l 905 543 l 905 626 l 799 626 q 675 613 765 627 m 382 296 l 492 340 q 549 185 513 252 q 571 414 571 283 l 518 414 q 363 401 476 414 q 567 805 486 609 l 530 805 q 400 792 488 805 l 400 905 q 383 863 395 892 q 351 784 363 813 l 351 -47 q 354 -140 351 -94 q 501 51 456 -41 q 382 296 432 146 m 1028 808 l 1028 724 l 1124 724 l 1124 808 l 1028 808 m 1124 543 l 1124 626 l 1028 626 l 1028 543 l 1124 543 z "},"傈":{"ha":1389,"x_min":5,"x_max":1371,"o":"m 481 804 q 625 792 560 795 l 700 792 l 700 895 l 599 895 q 465 882 561 894 l 465 981 q 461 979 464 981 q 447 968 453 972 q 408 913 421 956 q 349 764 383 841 l 349 -28 q 757 231 608 34 l 561 231 q 427 218 522 230 l 427 345 q 561 332 509 334 l 806 332 q 796 438 804 376 l 940 420 q 964 405 961 417 q 949 378 966 393 q 930 332 929 364 l 1187 332 q 1321 345 1241 335 l 1321 218 q 1187 231 1229 230 l 966 231 q 1371 2 1161 30 q 1253 -129 1304 -48 q 928 112 1034 -12 l 928 -71 q 939 -199 930 -119 l 794 -199 q 804 -71 802 -141 l 804 106 q 488 -138 707 -9 q 349 -35 444 -76 l 349 -52 q 359 -203 351 -131 l 212 -203 q 224 -52 221 -134 l 224 538 q 125 409 168 457 q 5 490 75 459 q 307 1074 222 700 l 441 1027 q 475 1005 469 1017 q 599 994 537 996 l 1162 994 q 1296 1006 1229 996 l 1296 882 q 1162 895 1204 894 l 1026 895 l 1026 792 l 1109 792 q 1254 804 1176 795 q 1243 667 1244 698 l 1243 557 q 1253 439 1243 541 q 1254 427 1253 431 q 1108 439 1152 438 l 625 439 q 481 427 588 438 q 492 566 490 503 l 492 665 q 481 804 489 728 m 1026 694 l 1026 538 l 1122 538 l 1122 694 l 1026 694 m 817 694 l 817 538 l 909 538 l 909 694 l 817 694 m 610 538 l 700 538 l 700 694 l 610 694 l 610 538 m 817 895 l 817 792 l 909 792 l 909 895 l 817 895 z "},"傣":{"ha":1389,"x_min":9,"x_max":1371,"o":"m 1206 629 q 1071 640 1112 638 l 825 640 q 796 567 810 595 l 1177 567 q 1311 578 1201 567 l 1311 455 q 1177 466 1217 465 l 1097 466 q 1371 340 1202 379 q 1251 214 1293 297 q 930 466 1017 349 l 739 466 q 463 203 651 332 q 354 295 421 256 q 586 466 491 354 l 546 466 q 412 455 514 467 l 412 580 q 546 567 493 569 l 657 567 q 693 640 673 593 l 616 640 q 484 627 591 640 l 484 753 q 616 741 584 741 l 730 741 q 747 813 741 776 l 581 813 q 447 802 538 812 l 447 926 q 581 914 551 914 l 764 914 q 772 1086 774 1002 l 921 1065 q 949 1044 947 1060 q 925 1013 949 1029 q 896 943 903 1002 l 892 914 l 1131 914 q 1194 919 1145 914 q 1264 926 1237 924 l 1264 802 q 1131 813 1173 812 l 872 813 q 857 741 867 780 l 1071 741 q 1206 752 1094 740 l 1206 629 m 929 356 q 908 298 907 337 l 908 195 q 922 186 913 192 q 933 180 930 182 q 1031 323 991 245 l 1139 254 q 1160 226 1160 239 q 1158 215 1160 223 q 1124 203 1156 207 q 1078 176 1102 201 l 1031 124 q 1238 -7 1142 58 q 1161 -132 1200 -54 q 908 63 1015 -1 l 908 -59 q 867 -165 911 -140 q 675 -214 830 -194 q 607 -71 656 -140 q 669 -75 623 -71 q 736 -79 724 -79 q 785 -45 789 -81 l 785 52 q 490 -108 599 -31 l 411 26 q 665 113 515 46 q 533 231 597 184 l 616 309 q 757 185 703 245 l 693 125 l 699 128 q 698 127 699 127 q 785 169 753 153 l 785 286 q 774 433 783 355 l 922 410 q 952 392 950 407 q 929 356 954 378 m 222 573 q 136 449 175 500 q 9 523 74 497 q 340 1074 203 705 l 465 1004 q 492 971 495 987 q 454 945 489 955 q 407 888 438 945 q 382 846 400 876 q 349 785 359 802 l 349 -35 q 359 -187 351 -100 l 211 -187 q 222 -33 220 -96 l 222 573 z "},"像":{"ha":1389,"x_min":3,"x_max":1369,"o":"m 844 975 q 817 952 831 970 l 983 952 q 1164 967 1038 952 q 1069 841 1123 921 q 1053 817 1065 833 q 1018 767 1028 781 l 1108 767 q 1258 780 1166 768 q 1247 654 1247 698 l 1247 572 q 1258 446 1248 522 q 1211 451 1244 448 q 1145 458 1164 456 l 1234 378 q 1244 359 1244 368 q 1237 345 1244 353 q 1197 334 1230 336 q 1145 311 1171 332 q 1121 291 1139 305 q 1092 267 1099 273 q 1369 -30 1168 40 q 1255 -134 1301 -74 q 993 195 1080 -32 l 992 195 q 978 185 986 189 q 996 23 996 111 q 977 -100 996 -54 q 720 -210 945 -190 q 667 -47 709 -133 q 468 -149 587 -97 q 374 -34 434 -87 q 821 217 626 8 q 808 236 817 224 q 800 249 803 245 q 479 27 687 125 q 385 132 432 88 q 732 324 591 176 q 725 330 730 326 q 718 336 720 334 q 469 214 608 264 q 367 331 429 279 q 697 459 555 349 l 663 459 q 510 446 598 458 q 521 577 521 519 l 521 645 l 458 604 q 359 705 419 653 l 359 -30 q 370 -203 361 -107 l 224 -203 q 233 -30 233 -106 l 233 549 q 133 418 208 511 q 122 405 125 410 q 3 499 85 450 q 335 1072 227 675 l 461 1019 q 499 988 496 1004 q 472 958 503 972 q 428 899 448 948 q 359 745 378 783 l 359 706 q 737 1093 621 824 l 854 1028 q 879 998 881 1013 q 844 975 875 982 m 1108 459 l 857 459 q 854 456 857 458 q 807 408 825 424 q 929 286 890 340 q 1117 459 1049 372 l 1108 459 m 905 560 l 1124 560 l 1124 666 l 933 666 q 910 576 927 633 q 905 560 907 566 m 848 -58 q 867 42 867 -34 q 860 111 867 77 q 668 -47 778 26 q 794 -75 746 -73 q 848 -58 836 -75 m 739 850 q 663 767 709 814 l 871 767 l 921 850 l 739 850 m 643 666 l 643 560 l 775 560 q 806 666 798 602 l 643 666 z "},"僳":{"ha":1389,"x_min":3,"x_max":1362,"o":"m 1310 884 q 1174 898 1225 898 l 1042 898 l 1042 810 l 1150 810 q 1278 827 1200 810 q 1263 706 1263 755 l 1263 606 q 1278 483 1263 555 q 1152 498 1204 498 l 1096 498 l 1206 422 q 1224 392 1228 407 q 1190 374 1219 377 q 1156 356 1169 373 q 1112 309 1135 333 l 1193 309 q 1329 324 1255 309 l 1329 197 q 1193 210 1253 210 l 968 210 q 1362 -20 1145 45 q 1249 -133 1289 -54 q 926 121 1054 -32 l 926 -69 q 939 -194 927 -149 l 793 -194 q 806 -69 805 -133 l 806 113 q 498 -145 674 -35 q 387 -38 463 -87 q 747 210 587 24 l 561 210 q 425 197 505 211 l 425 324 q 561 309 508 310 l 659 309 q 522 417 595 370 l 597 498 q 484 481 547 496 q 498 606 498 541 l 498 706 q 485 827 498 753 q 615 810 563 810 l 714 810 l 714 898 l 603 898 q 467 884 532 898 l 467 996 q 443 980 458 988 q 421 951 429 972 q 343 777 378 846 l 343 -11 q 355 -184 344 -125 l 207 -184 q 220 -11 219 -127 l 220 551 q 127 414 149 442 q 3 475 73 460 q 315 1077 196 683 l 436 1040 q 472 1009 471 1027 q 603 996 543 996 l 1174 996 q 1310 1010 1241 996 l 1310 884 m 806 373 q 793 498 805 433 l 615 498 l 608 498 q 757 374 684 446 l 696 309 l 806 309 l 806 373 m 926 380 l 926 309 l 958 309 q 1093 498 1021 372 l 839 498 l 943 486 q 968 468 967 483 q 945 431 968 453 q 926 380 925 416 m 1042 715 l 1042 593 l 1141 593 l 1141 715 l 1042 715 m 616 715 l 616 593 l 714 593 l 714 715 l 616 715 m 829 715 l 829 593 l 926 593 l 926 715 l 829 715 m 829 810 l 926 810 l 926 898 l 829 898 l 829 810 z "},"儋":{"ha":1389,"x_min":8,"x_max":1335,"o":"m 214 506 q 142 397 188 461 q 8 444 78 435 q 304 1069 210 664 l 439 1016 q 468 989 467 1005 q 440 964 468 974 q 408 927 418 956 q 338 751 367 821 l 338 -69 q 338 -77 338 -72 q 337 -89 337 -84 q 338 -98 337 -94 q 433 98 407 -16 q 460 406 460 205 l 460 652 q 447 810 458 710 q 514 802 469 807 q 433 852 472 833 q 757 1091 631 926 l 864 1038 q 890 1008 892 1024 q 854 991 886 994 q 822 977 838 989 l 804 962 l 1007 962 q 1165 977 1065 962 q 1028 798 1098 894 l 1156 798 q 1291 812 1219 799 l 1291 692 q 1220 702 1251 699 q 1156 705 1190 705 l 1099 705 q 1225 617 1188 647 l 1161 530 l 1198 530 q 1335 545 1251 530 l 1335 427 q 1198 441 1254 441 l 690 441 q 581 430 637 441 l 581 391 q 458 -177 588 31 q 340 -145 401 -153 q 349 -219 342 -177 l 203 -219 q 214 -69 214 -153 l 214 506 m 1231 -214 l 1078 -214 q 1095 -148 1093 -176 l 765 -148 q 782 -215 768 -180 l 633 -215 q 644 -87 643 -172 l 644 12 q 631 141 643 88 q 770 124 703 124 l 1093 124 q 1232 138 1146 124 q 1218 12 1218 75 l 1218 -85 q 1231 -214 1220 -171 m 1223 273 l 1223 160 q 1088 173 1147 172 l 771 173 q 643 160 711 174 l 643 273 q 771 260 718 261 l 1088 260 q 1223 273 1154 260 m 1223 406 l 1223 296 q 1088 307 1136 307 l 771 307 q 643 296 713 308 l 643 406 q 771 395 716 396 l 1088 395 q 1223 406 1153 395 m 765 34 l 765 -58 l 1095 -58 l 1095 34 l 765 34 m 688 530 l 909 530 q 832 605 865 579 l 917 670 q 1032 560 983 621 l 996 530 l 1156 530 q 949 673 1053 614 l 977 705 l 819 705 l 863 675 q 874 661 874 668 q 870 651 874 658 q 844 641 867 644 q 817 627 831 640 q 688 530 735 559 m 595 798 l 611 798 l 892 798 l 942 869 l 699 869 q 595 798 656 836 m 581 705 l 581 610 q 742 705 673 647 l 581 705 m 581 541 q 676 531 636 531 q 581 602 641 569 l 581 541 z "},"儒":{"ha":1389,"x_min":17,"x_max":1320,"o":"m 1263 275 q 1250 127 1251 208 l 1250 -56 q 1246 -136 1251 -119 q 1225 -172 1241 -159 q 1065 -202 1196 -199 q 1025 -68 1046 -120 q 1033 -68 1027 -68 q 1103 -75 1093 -75 q 1128 -51 1130 -76 l 1128 169 l 1022 169 l 1022 -24 q 1034 -148 1022 -61 l 897 -148 q 908 -24 909 -58 l 908 169 l 811 169 l 811 -31 q 822 -155 811 -87 l 686 -155 q 697 -31 698 -87 l 697 169 l 600 169 l 600 -56 q 611 -201 600 -134 l 469 -201 q 481 -56 481 -132 l 481 128 q 468 275 480 174 q 624 262 550 264 l 753 262 l 775 335 l 549 335 q 415 321 510 335 l 415 445 q 549 431 495 431 l 1186 431 q 1320 445 1240 431 l 1320 321 q 1186 335 1242 335 l 900 335 l 876 262 l 1104 262 q 1263 275 1185 264 m 407 861 q 477 851 451 853 q 500 850 489 850 q 529 849 511 849 l 799 849 l 799 910 l 619 910 q 488 898 566 911 l 488 1016 q 619 1004 566 1003 l 1114 1004 q 1246 1016 1160 1003 l 1246 898 q 1114 910 1164 910 l 913 910 l 913 849 l 1190 849 q 1312 861 1220 849 q 1301 747 1305 804 l 1301 719 q 1311 593 1301 682 l 1173 593 q 1182 719 1182 654 l 1182 756 l 913 756 l 913 595 q 921 469 913 528 l 790 469 q 799 595 798 538 l 799 756 l 534 756 l 534 715 q 545 589 534 660 l 408 589 q 418 715 418 663 l 418 747 q 407 861 418 798 m 562 604 l 562 707 q 637 698 593 701 l 688 698 q 761 707 713 698 l 761 604 q 688 613 719 612 l 637 613 q 562 604 610 612 m 214 512 q 147 392 186 454 q 17 462 87 435 q 298 1070 199 667 l 427 1023 q 458 996 456 1012 q 431 970 458 979 q 392 913 408 964 q 339 766 364 831 l 339 -38 q 351 -203 340 -144 l 201 -203 q 214 -41 213 -134 l 214 512 m 562 469 l 562 573 q 637 563 595 566 l 688 563 q 761 573 710 563 l 761 469 q 688 478 719 477 l 637 478 q 562 469 610 477 m 950 605 l 950 709 q 1028 699 982 702 l 1078 699 q 1154 709 1105 699 l 1154 605 q 1078 614 1110 614 l 1028 614 q 950 605 998 614 m 950 470 l 950 574 q 1028 564 985 567 l 1078 564 q 1154 574 1102 564 l 1154 470 q 1078 479 1110 479 l 1028 479 q 950 470 998 479 z "},"儿":{"ha":1389,"x_min":39,"x_max":1353,"o":"m 567 577 q 494 108 571 243 q 165 -198 425 -38 q 39 -97 113 -138 q 358 138 283 3 q 439 577 441 270 l 439 848 q 428 1023 439 926 l 578 1000 q 611 979 608 996 q 587 941 613 962 q 567 863 566 928 l 567 577 m 1060 -15 q 1171 22 1145 -17 q 1204 184 1199 57 q 1353 99 1275 119 q 1246 -92 1297 -59 q 1048 -132 1197 -134 q 864 -97 914 -132 q 811 27 810 -62 l 811 857 q 800 1033 811 937 l 949 1010 q 982 989 979 1006 q 958 951 984 972 q 937 873 936 937 l 937 55 q 959 -2 936 9 q 1060 -15 979 -16 z "},"允":{"ha":1389,"x_min":37,"x_max":1333,"o":"m 616 1085 l 753 1031 q 789 999 789 1017 q 751 967 789 981 q 679 907 712 954 q 410 583 589 780 l 958 605 q 783 808 911 666 q 768 824 773 819 l 869 903 q 1222 473 1050 711 l 1104 388 q 1028 507 1066 452 l 897 500 l 897 2 q 929 -34 894 -34 q 1011 -37 972 -37 q 1090 -33 1068 -37 q 1160 19 1145 -24 q 1174 185 1177 60 q 1333 102 1260 123 q 1133 -152 1303 -145 q 1031 -157 1108 -157 q 917 -154 985 -157 q 770 -24 764 -150 l 770 492 l 640 484 q 155 -206 650 -75 q 37 -77 119 -151 q 503 477 514 -18 q 235 445 363 467 l 189 577 q 302 631 266 591 q 616 1085 506 849 z "},"元":{"ha":1389,"x_min":50,"x_max":1344,"o":"m 616 515 q 157 -191 625 -1 q 50 -73 114 -125 q 485 515 494 33 l 237 515 q 96 502 190 515 l 96 633 q 237 621 172 622 l 1143 621 q 1280 633 1200 621 l 1280 502 q 1143 515 1190 515 l 900 515 l 900 30 q 943 -24 897 -24 q 989 -26 954 -26 q 1105 -18 1067 -25 q 1197 208 1187 -2 q 1344 95 1278 134 q 1129 -132 1282 -123 q 1010 -140 1088 -140 q 925 -138 942 -140 q 804 -97 835 -132 q 771 22 770 -64 l 771 515 l 616 515 m 233 845 l 233 975 q 378 964 333 964 l 1015 964 q 1157 976 1069 964 l 1157 845 q 1015 857 1067 857 l 378 857 q 233 845 331 857 z "},"充":{"ha":1389,"x_min":41,"x_max":1317,"o":"m 1289 741 q 1140 753 1202 753 l 648 753 l 686 730 q 705 703 705 717 q 705 696 705 699 q 668 678 698 680 q 606 638 637 677 q 468 484 542 561 l 925 498 q 803 641 872 566 l 900 716 q 1183 388 1050 553 l 1079 303 q 1006 397 1045 352 q 924 393 976 395 q 860 391 884 392 l 860 -9 q 890 -60 860 -53 q 996 -66 911 -66 q 1108 -60 1076 -66 q 1154 -18 1143 -55 q 1164 83 1164 18 q 1164 127 1164 111 q 1317 43 1252 64 q 1150 -176 1276 -175 q 991 -184 1096 -184 q 851 -178 901 -184 q 734 -37 731 -159 l 734 387 q 688 383 718 386 q 631 380 652 380 q 528 -12 620 97 q 158 -234 442 -130 q 41 -104 109 -155 q 399 42 319 -52 q 497 377 490 131 q 283 349 385 374 q 239 479 276 380 q 350 532 315 494 q 534 753 452 629 l 231 753 q 86 741 183 753 l 86 867 q 100 866 91 867 q 231 857 198 857 l 714 857 q 528 984 630 924 l 604 1085 q 856 906 763 982 l 815 857 l 1140 857 q 1289 869 1178 857 l 1289 741 z "},"先":{"ha":1389,"x_min":56,"x_max":1317,"o":"m 510 909 q 478 870 489 900 q 476 865 477 869 q 447 798 458 821 l 637 798 l 637 903 q 627 1081 637 970 l 778 1059 q 806 1040 804 1054 q 787 1006 809 1025 q 765 924 764 988 l 765 798 l 1004 798 q 1146 810 1047 797 l 1146 680 q 1004 692 1053 692 l 765 692 l 765 494 l 1132 494 q 1275 506 1183 494 l 1275 376 q 1132 387 1187 387 l 890 387 l 890 17 q 900 -31 890 -19 q 936 -45 908 -44 q 1035 -48 963 -48 q 1076 -47 1065 -48 q 1096 -45 1089 -47 q 1154 3 1140 -37 q 1162 52 1160 22 q 1158 134 1162 77 q 1317 51 1254 73 q 1124 -159 1281 -132 q 1090 -161 1112 -161 q 1065 -162 1079 -162 q 1026 -162 1052 -162 q 955 -161 978 -162 q 914 -159 929 -161 q 792 -120 822 -151 q 761 -15 760 -92 l 761 387 l 636 387 q 176 -206 631 -48 q 56 -94 130 -144 q 503 387 504 -14 l 267 387 q 123 377 229 387 l 123 505 q 267 494 223 494 l 637 494 l 637 692 l 397 692 q 309 544 351 606 q 147 577 235 571 q 374 1009 309 731 l 509 966 q 539 939 538 956 q 510 909 538 922 z "},"光":{"ha":1389,"x_min":52,"x_max":1348,"o":"m 90 448 l 90 583 q 260 567 155 568 l 648 567 l 648 919 q 636 1074 648 1004 l 779 1050 q 813 1031 809 1045 q 794 998 817 1017 q 774 935 773 981 l 774 567 l 1129 567 q 1301 583 1205 568 l 1301 448 q 1129 463 1230 463 l 893 463 l 893 24 q 917 -32 892 -20 q 1021 -44 937 -45 q 1111 -37 1084 -44 q 1175 14 1161 -27 q 1197 180 1192 51 q 1348 96 1284 116 q 1235 -124 1308 -95 q 1028 -159 1184 -160 q 933 -157 971 -159 q 804 -116 840 -150 q 768 -6 768 -83 l 768 463 l 628 463 q 158 -202 618 -47 q 52 -73 133 -149 q 490 463 460 -12 l 260 463 q 90 448 163 463 m 1121 824 q 939 608 1044 722 q 836 688 893 656 q 1078 1002 981 824 l 1190 918 q 1211 888 1211 902 q 1209 878 1211 886 q 1178 865 1207 869 q 1121 824 1149 861 m 222 880 l 322 968 q 595 696 488 823 l 489 602 q 222 880 364 762 z "},"克":{"ha":1389,"x_min":50,"x_max":1341,"o":"m 513 270 l 425 270 q 288 258 376 270 q 300 381 300 337 l 300 543 q 289 674 300 585 q 435 662 388 662 l 631 662 l 631 796 l 250 796 q 109 784 206 796 l 109 913 q 250 901 206 901 l 631 901 l 631 939 q 621 1081 631 979 l 755 1063 q 806 1049 804 1057 q 808 1040 808 1042 q 775 999 808 1025 q 760 939 760 988 l 760 901 l 1152 901 q 1292 913 1204 901 l 1292 784 q 1152 796 1202 796 l 760 796 l 760 662 l 958 662 q 1107 674 1017 663 q 1096 549 1096 585 l 1096 380 q 1107 258 1096 335 q 965 270 1023 269 l 864 270 l 864 -31 q 870 -65 864 -58 q 899 -76 875 -73 q 999 -80 933 -80 q 1090 -76 1062 -80 q 1190 140 1194 -81 q 1341 54 1282 73 q 1256 -134 1297 -96 q 1108 -190 1217 -179 q 991 -194 1069 -194 q 880 -190 921 -194 q 739 -44 735 -176 l 739 270 l 642 270 q 157 -224 643 -74 q 50 -98 109 -158 q 513 270 508 -41 m 425 557 l 425 374 l 970 374 l 970 557 l 425 557 z "},"兖":{"ha":1389,"x_min":57,"x_max":1304,"o":"m 1111 288 l 1008 199 q 937 284 966 253 l 863 278 l 863 10 q 877 -35 862 -24 q 937 -48 889 -45 q 993 -50 956 -50 q 1103 -41 1061 -50 q 1149 91 1149 -32 q 1147 140 1149 117 q 1304 62 1236 66 q 1161 -154 1259 -148 q 987 -168 1112 -168 q 918 -166 936 -168 q 773 -130 812 -162 q 734 -24 733 -102 l 734 274 l 612 267 q 157 -203 614 -110 q 57 -71 125 -135 q 482 259 485 -49 q 313 241 393 255 q 275 364 302 311 q 385 398 357 375 q 629 680 511 500 l 741 610 q 764 576 767 593 q 728 556 759 559 q 677 522 709 555 q 511 368 608 450 l 844 381 q 753 460 783 437 l 852 544 q 1111 288 997 422 m 526 650 q 265 462 414 541 q 140 559 218 517 q 475 784 337 614 l 232 784 q 102 770 178 784 l 102 903 q 232 888 175 888 l 667 888 q 521 1000 582 959 l 604 1090 q 633 1069 613 1083 q 800 935 747 985 l 755 888 l 1120 888 q 1250 903 1183 888 l 1250 768 q 1120 784 1183 783 l 880 784 q 1215 555 1086 661 l 1139 454 q 804 692 943 612 l 873 784 l 525 784 l 600 734 q 619 708 619 720 q 614 693 619 704 q 572 678 608 682 q 526 650 555 678 z "},"党":{"ha":1389,"x_min":33,"x_max":1304,"o":"m 336 598 q 427 589 393 591 q 489 587 459 587 l 901 587 q 1046 598 941 585 q 1035 470 1034 510 l 1035 341 q 1046 210 1034 298 q 968 220 998 218 q 911 223 940 223 l 852 223 l 852 -12 q 866 -46 852 -38 q 924 -58 880 -55 q 949 -59 936 -58 q 983 -59 962 -59 q 1075 -54 1029 -59 q 1143 -6 1129 -45 q 1155 49 1152 14 q 1157 149 1158 84 q 1304 67 1251 87 q 1095 -169 1263 -154 q 975 -176 1046 -176 q 903 -174 927 -176 q 728 -37 720 -172 l 728 223 l 615 223 q 135 -203 613 -111 q 33 -73 109 -145 q 488 223 474 -52 l 475 223 q 336 213 427 223 q 347 344 348 297 l 347 467 q 336 598 347 496 m 1063 919 q 950 795 1008 852 l 1128 795 q 1268 806 1173 794 q 1258 677 1257 717 l 1258 644 q 1268 535 1257 613 l 1117 535 q 1126 644 1127 607 l 1126 691 l 261 691 l 261 641 q 273 536 260 606 l 118 536 q 131 641 132 618 l 131 680 q 119 806 132 723 q 262 795 216 794 l 433 795 q 250 979 363 882 l 345 1056 q 542 869 449 970 l 447 795 l 627 795 l 627 945 q 615 1086 627 1008 l 762 1069 q 789 1052 786 1065 q 772 1021 791 1039 q 751 963 750 1004 l 751 795 l 917 795 q 831 853 880 828 q 1008 1073 930 930 l 1124 994 q 1141 972 1141 981 q 1138 962 1141 970 q 1108 949 1135 955 q 1063 919 1084 946 m 472 327 l 909 327 l 909 483 l 472 483 l 472 327 z "},"全":{"ha":1389,"x_min":26,"x_max":1372,"o":"m 279 469 l 279 535 q 252 517 271 529 q 140 448 183 473 q 26 551 92 502 q 615 1070 393 690 l 751 1025 q 774 1002 777 1017 q 739 975 770 987 q 1372 592 1015 668 q 1247 470 1288 538 q 1080 551 1160 505 l 1080 467 q 908 481 998 480 l 730 481 l 730 291 l 868 291 q 1040 304 960 292 l 1040 173 q 868 184 954 182 l 730 184 l 730 -37 l 1042 -37 q 1219 -26 1138 -35 l 1219 -158 q 1042 -142 1150 -143 l 304 -142 q 126 -157 189 -144 l 126 -26 q 304 -37 195 -35 l 604 -37 l 604 184 l 475 184 q 302 173 385 182 l 302 303 q 475 291 373 294 l 604 291 l 604 481 l 452 481 q 279 469 368 479 m 665 892 q 359 591 532 711 q 368 591 362 591 q 452 588 433 588 l 908 588 q 921 588 912 588 q 1011 591 972 587 q 665 892 795 730 z "},"八":{"ha":1389,"x_min":7,"x_max":1343,"o":"m 593 808 q 138 -142 484 227 q 7 -59 79 -87 q 473 935 380 256 l 614 898 q 641 877 640 891 q 618 846 642 863 q 593 808 600 834 m 848 1009 q 1343 -60 905 342 q 1202 -144 1261 -92 q 714 999 782 330 l 848 1009 z "},"公":{"ha":1389,"x_min":21,"x_max":1329,"o":"m 1149 -95 l 1023 -168 q 957 -51 998 -117 q 435 -104 818 -62 q 311 -134 371 -113 q 250 -9 273 -51 q 332 41 312 20 q 621 620 524 323 l 753 580 l 751 580 q 789 551 788 568 q 754 516 789 534 q 721 462 744 509 q 464 14 616 239 l 895 51 q 760 238 822 159 l 873 307 q 1149 -95 1031 109 m 864 1036 q 1329 404 954 630 q 1190 298 1257 366 q 728 1013 836 589 q 754 1015 747 1013 q 806 1025 761 1016 q 864 1036 843 1031 m 454 996 l 585 943 q 616 915 615 931 q 589 886 617 899 q 541 834 556 873 q 163 283 438 559 q 21 376 119 317 q 454 996 296 542 z "},"六":{"ha":1389,"x_min":66,"x_max":1291,"o":"m 501 964 l 611 1052 q 864 787 755 926 l 765 710 l 1124 710 q 1291 724 1194 711 l 1291 587 q 1124 601 1204 601 l 279 601 q 113 587 229 601 l 113 724 q 279 710 194 709 l 741 710 q 501 964 622 865 m 484 484 l 610 421 q 639 391 639 407 q 611 361 640 376 q 566 311 586 350 q 214 -170 399 -1 l 66 -71 q 484 484 347 112 m 1279 -56 l 1153 -149 q 743 397 973 155 l 856 475 q 1279 -56 1086 229 z "},"兰":{"ha":1389,"x_min":96,"x_max":1299,"o":"m 304 962 l 401 1053 q 636 825 534 938 l 564 764 l 729 764 q 905 1082 859 965 l 1036 1016 q 1059 986 1062 1002 q 1026 960 1056 970 q 979 914 1004 956 q 879 764 919 820 l 1068 764 q 1226 780 1157 768 l 1226 640 q 1068 654 1141 652 l 302 654 q 144 640 248 652 l 144 780 q 302 764 248 766 l 503 764 q 304 962 410 873 m 96 -100 l 96 42 q 265 26 161 30 l 1129 26 q 1299 42 1241 31 l 1299 -100 q 1129 -83 1226 -87 l 265 -83 q 96 -100 167 -87 m 1097 448 l 1097 304 q 942 321 1010 318 l 447 321 q 292 306 378 318 l 292 448 q 447 431 374 435 l 942 431 q 1097 448 1031 435 z "},"共":{"ha":1389,"x_min":81,"x_max":1317,"o":"m 81 212 l 81 345 q 231 330 151 332 l 440 330 l 440 629 l 307 629 q 160 614 235 628 l 160 747 q 307 732 229 734 l 440 732 l 440 894 q 427 1031 440 966 l 579 1013 q 603 994 601 1010 q 583 962 604 979 q 566 874 565 949 l 566 732 l 842 732 l 842 898 q 831 1036 841 966 l 982 1017 q 1004 1000 1004 1013 q 983 963 1004 986 q 968 876 968 947 l 968 732 l 1088 732 q 1235 745 1163 733 l 1235 613 q 1088 629 1163 628 l 968 629 l 968 330 l 1166 330 q 1317 347 1263 331 l 1317 212 q 1166 226 1253 224 l 231 226 q 81 212 148 225 m 566 629 l 566 330 l 842 330 l 842 629 l 566 629 m 110 -132 q 517 206 314 -41 l 633 117 q 648 96 648 106 q 644 85 648 94 q 612 73 640 77 q 566 46 585 68 q 227 -226 442 -92 q 110 -132 176 -176 m 793 104 l 880 203 q 1283 -115 1127 41 l 1193 -219 q 793 104 1004 -28 z "},"关":{"ha":1389,"x_min":86,"x_max":1337,"o":"m 86 -76 q 590 309 495 24 l 300 309 q 117 294 186 308 l 117 426 q 300 413 171 415 l 608 413 q 618 630 616 501 l 358 630 q 172 616 244 629 l 172 749 q 358 734 243 735 l 715 734 q 935 1077 854 905 l 1065 988 q 1079 968 1079 979 q 1076 959 1079 964 q 1035 938 1067 944 q 1002 913 1016 934 q 954 850 987 895 q 863 734 889 767 l 1039 734 q 1217 748 1137 735 l 1217 618 q 1031 630 1146 629 l 745 630 q 737 433 743 553 q 736 426 737 431 q 736 413 736 418 l 1104 413 q 1274 427 1206 414 l 1274 295 q 1104 309 1200 307 l 794 309 q 1337 -55 953 33 q 1231 -195 1280 -112 q 696 242 859 -66 q 187 -202 618 -12 q 86 -76 142 -130 m 265 959 l 338 1059 q 640 850 515 947 l 559 752 q 265 959 433 863 z "},"兴":{"ha":1389,"x_min":71,"x_max":1292,"o":"m 71 324 l 71 456 q 229 444 139 447 l 794 444 q 1059 977 991 759 l 1202 914 q 1221 891 1223 905 q 1194 863 1219 877 q 1147 809 1166 849 q 939 444 1063 650 l 1128 444 q 1292 456 1185 446 l 1292 324 q 1128 336 1199 335 l 229 336 q 71 324 160 333 m 846 273 q 1257 -76 1067 103 l 1160 -178 q 754 176 950 26 l 846 273 m 515 111 q 211 -180 400 -31 q 93 -81 165 -125 q 475 286 302 4 l 587 220 q 613 187 614 204 q 581 163 610 171 q 515 111 554 159 m 501 987 l 631 1041 q 815 654 722 872 l 688 593 q 501 987 593 820 m 176 877 l 288 943 q 536 573 408 775 l 418 502 q 176 877 301 705 z "},"兵":{"ha":1389,"x_min":77,"x_max":1315,"o":"m 77 357 q 237 344 134 345 l 321 344 l 321 814 q 310 976 318 886 q 471 964 378 964 q 1068 1050 798 973 l 1135 948 q 1151 911 1151 924 q 1147 901 1151 906 q 1133 897 1143 897 q 1095 902 1120 897 q 1061 905 1080 905 q 1018 902 1042 905 q 447 848 776 867 l 447 675 l 1065 675 q 1200 690 1138 675 l 1200 559 q 1064 572 1127 571 l 935 572 l 935 344 l 1152 344 q 1315 357 1255 345 l 1315 223 q 1152 237 1251 235 l 237 237 q 77 223 160 235 l 77 357 m 811 572 l 447 572 l 447 344 l 811 344 l 811 572 m 559 64 q 240 -222 452 -60 q 115 -134 182 -168 q 511 222 307 -43 l 625 138 q 643 107 647 122 q 608 90 637 93 q 559 64 578 87 m 794 121 l 871 214 q 1305 -106 1097 69 l 1217 -206 q 794 121 1044 -45 z "},"冀":{"ha":1389,"x_min":83,"x_max":1321,"o":"m 607 5 q 625 -20 625 -9 q 624 -25 625 -23 q 589 -40 618 -39 q 528 -58 559 -39 q 232 -219 408 -136 q 140 -116 197 -160 q 473 45 316 -66 l 231 45 q 83 33 164 44 l 83 145 q 231 132 171 134 l 450 132 l 450 185 l 330 185 q 195 173 275 184 l 195 286 q 330 273 269 273 l 450 273 l 450 323 l 368 323 q 233 311 339 324 q 244 438 245 402 l 244 557 q 233 686 245 610 q 314 674 290 677 q 368 671 340 671 l 1014 671 q 1154 684 1053 670 q 1145 604 1147 625 q 1143 557 1143 580 l 1143 438 q 1153 312 1143 399 q 1014 323 1041 323 l 943 323 l 943 273 l 1072 273 q 1208 286 1131 273 l 1208 173 q 1072 185 1122 184 l 943 185 l 943 132 l 1174 132 q 1321 145 1250 133 l 1321 33 q 1174 45 1242 43 l 942 45 q 1225 -109 1120 -45 l 1156 -209 q 790 -1 994 -100 l 827 45 l 550 45 l 607 5 m 1149 1019 l 1221 932 q 1232 909 1232 918 q 1228 898 1232 905 q 1210 890 1224 890 q 1197 891 1202 890 q 1301 833 1256 846 q 1202 723 1254 743 q 1004 699 1152 698 q 801 719 845 699 q 758 804 755 736 l 758 920 q 747 1063 760 972 l 876 1045 q 905 1034 903 1041 q 907 1025 907 1026 q 888 995 907 1012 q 878 960 880 990 l 878 951 q 1149 1019 1042 976 m 153 857 l 153 970 q 278 958 243 959 l 501 958 q 489 1066 500 994 l 628 1048 q 658 1030 655 1044 q 637 995 661 1015 q 621 939 621 981 l 621 802 q 631 691 619 758 l 489 691 q 494 709 491 699 q 498 731 499 724 q 131 677 340 720 l 87 798 q 501 824 280 800 l 501 870 l 278 870 q 153 857 219 867 m 990 802 q 1120 820 1088 802 q 1177 897 1153 833 q 1156 898 1166 898 q 1125 895 1140 898 q 878 856 1033 876 l 878 836 q 897 808 876 814 q 990 802 916 802 m 751 458 l 751 408 l 1021 408 l 1021 458 l 751 458 m 1021 536 l 1021 587 l 751 587 l 751 536 l 1021 536 m 570 185 l 570 132 l 823 132 l 823 185 l 570 185 m 364 458 l 364 408 l 632 408 l 632 458 l 364 458 m 632 536 l 632 587 l 364 587 l 364 536 l 632 536 m 570 323 l 570 273 l 823 273 l 823 323 l 570 323 z "},"内":{"ha":1389,"x_min":160,"x_max":1207,"o":"m 1207 827 q 1194 690 1195 758 l 1194 20 q 1140 -142 1198 -109 q 875 -199 1090 -182 q 817 -43 853 -118 q 975 -50 945 -50 q 1048 -35 1033 -50 q 1063 26 1064 -24 l 1063 705 l 746 705 q 732 569 741 648 q 1040 198 897 383 l 913 98 q 688 416 820 250 q 416 62 614 209 q 301 160 359 121 q 612 705 585 309 l 300 705 l 300 18 q 311 -183 302 -90 l 161 -183 q 172 18 170 -110 l 172 627 q 160 827 170 751 q 354 814 249 817 l 615 814 q 613 958 615 912 q 604 1063 611 1008 l 755 1049 q 789 1029 785 1046 q 765 987 791 1011 q 747 922 747 970 l 747 814 l 1051 814 q 1207 827 1122 816 z "},"冈":{"ha":1389,"x_min":167,"x_max":1219,"o":"m 167 1008 q 334 995 271 994 l 1053 995 q 1219 1008 1096 995 q 1208 841 1208 894 l 1208 33 q 1162 -102 1212 -74 q 939 -148 1122 -134 q 872 14 925 -76 q 1032 -3 987 -3 q 1078 33 1080 -5 l 1078 891 l 306 891 l 306 26 q 317 -154 307 -78 l 167 -154 q 178 26 177 -79 l 178 841 q 167 1008 178 878 m 718 355 q 444 96 587 212 q 323 184 395 151 q 632 454 503 300 q 366 711 522 581 l 454 813 q 471 798 460 808 q 713 559 632 647 q 860 857 818 727 l 985 784 q 1019 751 1022 763 q 975 718 1019 740 q 940 675 960 709 q 800 462 877 569 q 1031 199 903 355 l 920 94 q 718 355 833 220 z "},"册":{"ha":1389,"x_min":52,"x_max":1340,"o":"m 368 460 q 333 96 370 228 q 189 -193 297 -40 q 52 -116 119 -145 q 241 460 251 5 l 211 460 q 77 448 162 458 l 77 577 q 210 564 178 566 l 241 564 l 241 866 q 231 1027 238 951 q 385 1015 333 1017 l 515 1015 q 669 1027 597 1017 q 659 871 661 954 l 659 564 l 762 564 l 762 871 q 751 1027 758 958 q 904 1015 854 1017 l 1043 1015 q 1196 1027 1125 1018 q 1185 866 1188 957 l 1185 564 l 1207 564 q 1340 577 1275 568 l 1340 448 q 1208 460 1259 458 l 1185 460 l 1185 20 q 1149 -133 1189 -107 q 936 -191 1120 -166 q 868 -35 926 -136 q 1014 -52 996 -54 q 1050 -39 1042 -52 q 1059 13 1059 -27 l 1059 460 l 888 460 l 888 412 q 859 83 889 199 q 743 -187 833 -35 q 603 -124 678 -146 q 730 87 699 -17 q 762 382 763 189 l 762 460 l 659 460 l 659 48 q 597 -85 661 -59 q 433 -127 568 -103 q 347 27 409 -64 q 366 25 353 26 q 496 12 477 11 q 526 22 518 12 q 532 63 532 31 l 532 460 l 368 460 m 368 564 l 532 564 l 532 910 l 368 910 l 368 564 m 888 910 l 888 564 l 1059 564 l 1059 910 l 888 910 z "},"冕":{"ha":1389,"x_min":60,"x_max":1324,"o":"m 178 -220 q 60 -105 141 -155 q 559 165 411 -33 l 386 165 q 244 149 319 164 q 257 286 257 216 l 257 342 q 246 335 253 340 q 227 323 233 326 q 115 429 185 382 q 478 648 321 490 q 400 638 444 646 l 400 751 q 536 739 480 741 l 886 739 q 1022 751 960 742 l 1022 638 q 886 649 930 650 l 636 649 q 622 634 631 644 q 585 596 598 608 l 836 596 q 1002 608 890 597 q 954 532 986 585 q 930 492 947 521 q 905 450 913 463 l 1057 450 q 1204 466 1124 452 q 1192 344 1192 410 l 1192 274 q 1204 149 1192 206 q 1060 165 1105 165 l 839 165 l 839 -20 q 901 -58 840 -58 l 997 -58 q 1131 -51 1080 -57 q 1182 131 1177 -55 q 1324 14 1260 37 q 1139 -170 1265 -170 q 1029 -174 1094 -173 q 907 -173 961 -174 q 755 -142 796 -172 q 713 -41 711 -114 l 713 165 l 710 165 q 178 -220 583 -80 m 1067 781 l 1067 935 l 358 935 l 358 788 q 371 644 357 715 l 221 644 q 233 788 233 715 l 233 897 q 220 1044 233 964 q 367 1028 297 1028 l 1051 1028 q 1123 1033 1064 1028 q 1203 1038 1172 1036 q 1192 897 1198 1002 l 1192 781 q 1204 644 1192 702 l 1054 644 q 1067 781 1066 710 m 400 781 l 400 894 q 536 882 480 884 l 886 882 q 1022 894 960 885 l 1022 781 q 886 792 930 793 l 536 792 q 465 790 492 792 q 400 781 433 787 m 1065 357 l 779 357 q 751 258 771 315 l 1065 258 l 1065 357 m 383 357 l 383 258 l 614 258 q 644 357 633 302 l 383 357 m 482 506 q 412 450 448 477 l 768 450 q 791 491 776 463 q 799 506 797 502 l 482 506 z "},"军":{"ha":1389,"x_min":66,"x_max":1322,"o":"m 667 185 l 667 328 l 440 328 q 296 294 375 330 l 232 414 q 354 498 315 445 q 439 614 380 529 q 446 624 444 621 l 408 624 q 273 614 376 624 l 273 701 l 158 701 q 170 834 170 779 l 170 881 q 157 1017 170 918 q 310 1005 254 1005 l 1126 1005 q 1274 1017 1169 1004 q 1261 895 1261 929 l 1261 834 q 1272 703 1261 790 l 1141 703 l 1141 614 q 1010 624 1049 624 l 586 624 q 576 608 583 618 q 450 430 512 507 l 667 430 l 667 462 q 656 602 667 505 l 791 585 q 836 567 831 581 q 836 562 836 565 q 812 527 836 549 q 794 463 795 507 l 794 430 l 1022 430 q 1153 442 1063 429 l 1153 316 q 1022 328 1050 330 l 794 328 l 794 185 l 1173 185 q 1322 197 1240 185 l 1322 68 q 1175 81 1236 81 l 794 81 l 794 -41 q 806 -190 794 -99 l 656 -190 q 667 -41 667 -108 l 667 81 l 214 81 q 66 68 153 81 l 66 197 q 214 185 150 186 l 667 185 m 294 834 q 301 732 294 791 q 357 728 332 729 q 381 727 369 728 q 408 727 391 727 l 505 727 q 581 895 551 814 l 707 837 q 740 806 742 821 q 700 776 739 791 q 663 743 677 767 l 653 727 l 1010 727 q 1129 735 1063 726 q 1136 834 1136 798 l 1136 901 l 294 901 l 294 834 z "},"农":{"ha":1389,"x_min":43,"x_max":1364,"o":"m 392 269 q 157 108 281 177 q 43 210 115 160 q 581 736 453 387 l 338 736 l 338 667 q 349 539 340 616 l 201 539 q 212 667 210 612 l 212 718 q 201 853 210 772 q 347 841 281 844 l 611 841 q 647 1074 639 948 l 793 1052 q 823 1033 821 1047 q 800 1000 825 1019 q 772 948 784 991 l 743 841 l 1054 841 q 1194 853 1120 844 q 1185 722 1187 790 l 1185 684 q 1194 553 1187 615 l 1048 553 q 1059 684 1058 659 l 1059 736 l 715 736 q 518 384 645 532 l 518 -1 q 733 170 639 79 q 754 26 742 71 q 428 -231 492 -151 l 350 -105 q 385 -62 380 -81 q 392 7 393 -47 l 392 269 m 1236 -191 q 625 519 750 49 q 764 545 693 528 q 844 296 763 433 q 1043 530 978 420 l 1140 449 q 1167 414 1167 427 q 1165 406 1167 413 q 1124 391 1163 399 q 1053 342 1097 385 q 907 209 984 273 q 1364 -63 1080 1 q 1236 -191 1283 -122 z "},"冠":{"ha":1389,"x_min":25,"x_max":1329,"o":"m 777 625 l 966 625 l 966 682 q 954 841 966 759 l 1105 819 q 1128 812 1118 817 l 1128 830 l 1128 877 l 265 877 l 265 838 q 268 766 265 793 q 389 756 334 755 l 538 756 q 679 770 608 757 l 679 641 q 538 654 602 654 l 385 654 q 250 641 327 654 l 250 707 l 127 707 q 140 838 140 771 l 140 873 q 126 996 140 920 q 258 981 204 982 l 1132 981 q 1268 998 1188 982 q 1253 877 1252 941 l 1253 836 q 1265 706 1253 768 l 1114 706 q 1124 768 1119 730 q 1125 774 1125 772 q 1109 762 1119 768 q 1093 673 1093 753 l 1093 625 l 1136 625 q 1289 638 1211 625 l 1289 512 q 1136 524 1209 524 l 1093 524 l 1093 177 q 1087 87 1094 109 q 1057 45 1080 60 q 833 5 1023 16 q 834 18 834 10 q 779 160 834 76 q 940 132 918 132 q 966 174 968 130 l 966 524 l 777 524 q 639 513 727 523 l 639 638 q 777 625 715 625 m 812 479 q 936 290 882 390 l 843 222 q 732 397 805 288 l 732 387 q 615 399 663 400 l 615 13 q 675 -38 612 -37 q 731 -39 689 -39 q 779 -40 751 -40 q 847 -40 803 -40 q 1086 -23 999 -40 q 1198 191 1173 -9 q 1329 64 1263 87 q 1131 -136 1263 -119 q 1008 -149 1078 -145 q 807 -152 947 -152 q 672 -151 693 -152 q 528 -105 563 -144 q 493 39 492 -70 l 493 402 l 428 402 q 164 -183 429 47 q 25 -94 104 -122 q 297 402 288 9 l 261 402 q 121 389 196 403 l 121 516 q 261 503 195 503 l 574 503 q 732 516 655 503 l 732 426 l 812 479 z "},"冯":{"ha":1389,"x_min":66,"x_max":1276,"o":"m 1122 463 q 1276 475 1202 464 q 1258 326 1267 412 l 1232 43 q 1140 -119 1224 -77 q 822 -183 1058 -168 q 762 -34 811 -115 q 924 -44 890 -44 q 1105 83 1105 -50 q 1118 216 1109 127 q 1132 359 1128 311 l 697 359 q 539 347 652 359 q 541 357 540 350 q 561 494 559 462 l 579 699 q 581 751 581 721 q 578 838 581 789 l 711 820 q 745 800 742 816 q 724 762 749 785 q 704 692 708 754 l 685 463 l 964 463 l 1006 878 l 599 878 q 460 866 556 878 l 460 995 q 599 983 552 983 l 979 983 q 1149 994 1027 983 q 1129 844 1135 907 l 1089 463 l 1122 463 m 461 405 q 199 -48 310 169 l 66 64 q 366 555 223 220 q 461 405 416 456 m 401 102 l 401 230 q 539 217 500 217 l 939 217 q 1072 231 994 217 l 1072 102 q 939 113 991 113 l 539 113 q 401 102 490 113 m 115 857 l 201 952 q 464 723 338 843 l 380 623 q 115 857 252 755 z "},"冰":{"ha":1389,"x_min":56,"x_max":1372,"o":"m 888 937 l 888 716 q 929 601 905 661 q 1132 850 1046 712 l 1244 764 q 1265 736 1265 749 q 1262 726 1265 734 q 1227 713 1259 718 q 1186 691 1205 711 q 978 494 1071 568 q 1372 48 1157 155 q 1229 -63 1293 9 q 888 393 989 178 l 888 -34 q 861 -142 889 -115 q 746 -183 834 -173 q 683 -188 722 -186 q 615 -189 643 -189 q 567 -31 606 -109 q 689 -58 637 -52 q 732 -62 718 -62 q 764 -22 767 -65 l 764 595 q 367 -73 672 186 q 254 18 319 -17 q 639 627 560 215 l 536 627 q 404 613 481 627 l 404 744 q 536 728 476 728 l 656 728 q 764 741 711 728 l 764 927 q 751 1077 764 1002 l 884 1055 q 928 1038 928 1048 q 899 999 932 1028 q 888 937 888 989 m 412 459 q 189 2 283 203 q 56 77 121 51 q 319 583 213 313 q 412 459 369 500 m 93 861 l 192 939 q 383 711 297 828 l 285 633 q 93 861 195 761 z "},"冲":{"ha":1389,"x_min":56,"x_max":1246,"o":"m 437 393 q 179 -68 329 210 l 56 27 q 345 523 222 232 q 437 393 395 438 m 87 863 l 179 959 q 424 736 271 881 l 330 640 q 87 863 221 758 m 917 918 l 917 824 l 1101 824 q 1246 837 1154 824 q 1234 696 1234 746 l 1234 288 q 1244 151 1234 235 l 1096 151 q 1099 168 1097 157 q 1107 243 1107 231 l 917 243 l 917 -27 q 928 -212 918 -125 l 777 -212 q 787 -27 785 -124 l 787 243 l 603 243 q 611 164 604 224 q 614 140 613 148 l 467 140 q 478 288 478 239 l 478 696 q 467 836 478 743 q 614 824 575 824 l 787 824 l 787 918 q 777 1085 788 971 l 932 1063 q 961 1044 960 1059 q 936 1006 962 1029 q 917 918 916 991 m 603 720 l 603 348 l 787 348 l 787 720 l 603 720 m 917 720 l 917 348 l 1107 348 l 1107 720 l 917 720 z "},"冶":{"ha":1389,"x_min":75,"x_max":1312,"o":"m 528 418 q 684 408 627 408 l 1047 408 q 1197 418 1103 408 q 1186 277 1190 342 l 1186 -35 q 1197 -193 1187 -132 l 1048 -193 q 1059 -101 1058 -138 l 1059 -91 l 665 -91 l 665 -109 q 675 -201 666 -151 l 528 -201 q 539 -50 538 -129 l 539 269 q 528 418 539 313 m 1312 567 l 1197 474 q 1135 557 1178 502 q 1125 570 1128 566 q 492 519 764 553 q 436 630 465 588 q 529 690 494 652 q 758 1093 646 829 l 901 1033 q 928 1003 930 1020 q 892 977 924 987 q 836 923 865 972 q 652 650 766 804 l 1035 670 q 901 798 974 734 l 1002 886 q 1312 567 1181 728 m 665 303 l 665 12 l 1059 12 l 1059 303 l 665 303 m 482 345 q 192 -98 372 163 q 75 -5 144 -50 q 400 488 286 247 q 482 345 434 383 m 86 838 l 176 931 q 401 719 296 833 l 302 623 q 86 838 197 746 z "},"冷":{"ha":1389,"x_min":26,"x_max":1385,"o":"m 416 321 q 147 -79 322 186 l 26 24 q 328 450 168 146 q 416 321 369 363 m 66 850 l 163 938 q 401 718 291 836 l 300 624 q 66 850 203 737 m 751 1090 l 885 1038 q 910 1012 912 1027 q 876 983 907 996 q 864 971 869 980 q 1385 595 1072 662 q 1263 459 1307 543 q 799 853 997 597 q 411 421 688 625 q 275 527 349 490 q 751 1090 614 670 m 1250 413 q 908 -27 1084 172 q 1043 -159 971 -83 l 920 -251 q 564 85 801 -73 l 659 180 q 711 139 674 168 q 818 56 794 77 q 1010 295 916 161 l 597 295 q 447 284 524 292 l 447 412 q 597 399 512 404 l 1080 399 q 1250 413 1136 401 m 669 610 l 772 686 q 964 486 878 593 l 856 405 q 669 610 763 527 z "},"准":{"ha":1389,"x_min":43,"x_max":1322,"o":"m 899 1088 q 1082 905 1010 992 l 990 820 l 1162 820 q 1296 833 1217 819 l 1296 706 q 1162 719 1219 719 l 985 719 l 985 562 l 1109 562 q 1244 576 1167 561 l 1244 448 q 1109 460 1162 460 l 985 460 l 985 295 l 1116 295 q 1250 307 1161 294 l 1250 180 q 1116 194 1164 195 l 985 194 l 985 22 l 1189 22 q 1322 34 1237 21 l 1322 -92 q 1189 -79 1241 -79 l 639 -79 l 639 -84 q 650 -209 640 -168 l 503 -209 q 513 -33 512 -115 l 513 612 q 494 591 507 604 q 376 462 432 517 q 258 548 319 520 q 614 1086 503 720 l 749 1029 q 763 1013 763 1022 q 742 987 763 1002 q 708 952 719 974 q 639 820 686 907 l 982 820 q 804 1002 901 926 l 899 1088 m 43 39 q 353 448 217 219 q 428 316 386 362 q 157 -64 313 165 q 43 39 118 -20 m 639 22 l 859 22 l 859 194 l 639 194 l 639 22 m 79 866 l 178 958 q 382 764 308 845 l 283 678 q 79 866 193 775 m 859 295 l 859 460 l 639 460 l 639 295 l 859 295 m 639 719 l 639 562 l 859 562 l 859 719 l 639 719 z "},"凉":{"ha":1389,"x_min":60,"x_max":1326,"o":"m 1190 701 q 1179 583 1179 623 l 1179 416 q 1190 291 1178 386 q 1059 303 1090 304 l 936 303 l 936 -51 q 890 -163 939 -137 q 689 -205 846 -194 q 629 -63 684 -139 q 762 -71 731 -71 q 800 -62 791 -71 q 808 -30 809 -56 l 808 303 l 661 303 q 528 290 619 304 q 538 359 535 333 q 541 413 541 383 l 541 574 q 528 701 542 610 q 612 691 585 693 q 669 688 640 688 l 1059 688 q 1190 701 1101 688 m 667 1017 l 765 1101 q 956 943 834 1047 l 890 885 l 1160 885 q 1293 899 1206 884 l 1293 768 q 1218 779 1241 777 q 1160 781 1192 781 l 551 781 q 418 770 507 783 l 418 898 q 490 888 463 890 q 551 885 515 885 l 822 885 q 667 1017 764 941 m 453 405 q 186 -52 260 90 l 60 66 q 364 526 210 224 l 453 405 m 664 587 l 664 405 l 1054 405 l 1054 587 l 664 587 m 667 85 q 475 -111 582 -14 q 359 -20 426 -61 q 616 248 528 84 l 726 174 q 749 143 751 157 q 717 121 745 127 q 667 85 695 118 m 1100 230 q 1326 -19 1241 100 l 1213 -106 q 993 148 1110 41 l 1100 230 m 290 629 q 85 838 208 732 l 178 923 q 390 720 292 829 l 290 629 z "},"凌":{"ha":1389,"x_min":57,"x_max":1368,"o":"m 848 5 q 447 -201 696 -123 q 347 -79 409 -136 q 754 84 573 -59 q 633 222 681 157 q 493 100 562 155 q 374 205 438 161 q 753 589 597 303 l 871 522 q 891 498 891 509 q 889 488 891 496 q 860 474 888 481 q 827 449 842 471 q 807 424 820 441 q 799 413 801 416 l 979 413 q 1125 422 1043 413 q 892 583 1004 512 l 946 641 l 668 641 l 721 609 q 739 586 739 597 q 737 575 739 583 q 708 560 735 568 q 661 528 684 555 q 461 336 570 429 l 345 409 q 189 -73 272 196 l 57 10 q 233 541 161 199 l 357 441 q 350 426 355 438 q 347 418 349 421 q 599 641 484 496 l 528 641 q 392 629 467 641 l 392 759 q 528 745 468 745 l 765 745 l 765 838 l 593 838 q 457 827 530 838 l 457 956 q 593 942 538 943 l 765 942 l 765 960 q 755 1101 766 1010 l 911 1082 q 934 1064 935 1080 q 909 1028 934 1048 q 895 970 895 1016 l 895 942 l 1064 942 q 1203 956 1126 943 l 1203 824 q 1064 838 1133 837 l 895 838 l 895 745 l 1156 745 q 1300 759 1228 747 l 1300 627 q 1156 641 1228 640 l 1025 641 q 1240 498 1108 587 q 1289 465 1274 474 l 1204 363 q 1183 379 1198 368 q 1139 412 1154 400 q 940 90 1044 210 q 1368 -33 1106 -20 q 1263 -178 1306 -80 q 848 5 1000 -117 m 165 966 q 349 735 252 866 l 243 652 q 58 885 159 775 l 165 966 m 940 309 l 724 309 q 840 163 771 231 q 940 309 893 219 z "},"凝":{"ha":1389,"x_min":22,"x_max":1378,"o":"m 823 420 l 936 401 q 981 382 978 393 q 957 344 986 372 q 940 288 942 332 q 933 172 939 241 q 1004 52 960 101 l 1004 523 l 925 523 q 789 512 883 523 l 789 634 q 925 621 882 621 l 1042 621 q 889 805 963 728 l 974 878 q 1055 789 1029 821 q 1135 898 1105 853 l 981 898 q 836 885 916 897 l 836 1008 q 981 996 919 997 l 1187 996 q 1352 1010 1252 998 q 1129 705 1265 868 q 1166 657 1142 690 q 1173 648 1171 651 l 1135 621 l 1232 621 q 1378 637 1277 621 q 1255 364 1303 463 q 1137 399 1211 387 q 1203 523 1174 460 l 1121 523 l 1121 303 l 1182 303 q 1317 315 1236 303 l 1317 194 q 1182 205 1243 205 l 1121 205 l 1121 -23 q 1262 -45 1182 -45 q 1367 -37 1310 -45 q 1321 -184 1336 -105 q 897 23 1011 -191 q 721 -218 857 -76 q 612 -124 673 -167 q 781 37 737 -54 q 827 303 828 127 q 823 420 826 384 m 410 316 q 298 360 342 349 q 414 642 395 487 l 528 608 q 549 589 548 602 q 530 566 549 576 q 511 539 518 560 l 625 539 q 761 551 666 539 l 761 435 q 633 446 675 444 q 625 302 631 386 l 652 302 q 785 313 696 302 l 785 195 q 652 206 712 206 l 611 206 q 609 198 610 203 q 606 189 607 193 q 743 31 667 129 l 636 -50 q 564 67 593 32 q 330 -186 486 -66 q 220 -85 290 -134 q 492 206 422 -8 l 444 206 q 311 195 391 206 l 311 313 q 444 302 398 302 l 505 302 q 517 446 515 387 l 476 446 q 410 316 450 382 m 511 922 l 511 903 q 714 1025 618 956 l 779 937 q 792 907 792 919 q 787 893 792 903 q 755 886 783 884 q 744 887 751 887 q 676 867 716 887 q 511 791 582 821 l 511 756 q 532 731 510 729 l 602 731 q 652 732 644 731 q 711 870 698 734 q 832 774 776 804 q 667 627 785 632 q 599 624 649 624 q 493 629 512 624 q 396 739 391 643 l 396 922 q 385 1077 396 973 l 507 1056 q 546 1043 543 1050 q 549 1031 549 1035 q 528 1002 549 1019 q 514 978 517 994 q 511 922 511 962 m 22 -7 q 196 509 123 189 q 311 398 257 431 q 157 -64 218 138 l 22 -7 m 187 970 q 355 734 283 852 l 243 661 q 79 898 168 794 l 187 970 z "},"凡":{"ha":1389,"x_min":24,"x_max":1352,"o":"m 456 506 q 406 113 459 231 q 161 -214 359 -12 q 24 -124 95 -157 q 267 128 208 -1 q 330 506 332 256 l 330 841 q 319 977 330 876 q 467 966 424 966 l 867 966 q 1011 977 923 966 q 1000 848 1000 888 l 1000 -9 q 1035 -54 997 -54 q 1079 -55 1067 -55 q 1139 -51 1118 -55 q 1207 248 1213 -25 q 1352 145 1291 172 q 1166 -168 1323 -151 q 1086 -173 1137 -173 q 1021 -170 1057 -173 q 901 -129 932 -163 q 868 -12 867 -96 l 868 363 l 781 270 q 461 559 639 414 l 551 646 q 868 372 728 503 l 868 862 l 456 862 l 456 506 z "},"凤":{"ha":1389,"x_min":33,"x_max":1356,"o":"m 736 234 q 411 -24 590 78 q 306 62 366 22 q 175 -178 265 -41 q 33 -115 119 -140 q 249 507 259 88 l 249 874 q 237 1009 249 912 q 379 998 332 998 l 1010 998 q 1152 1010 1069 998 q 1129 515 1128 871 q 1189 5 1131 150 q 1205 -14 1197 -14 q 1215 6 1213 -14 q 1219 138 1219 36 q 1356 38 1295 67 q 1226 -180 1312 -175 q 1006 536 1010 -144 q 1006 602 1006 557 q 1008 894 1005 802 l 375 894 l 375 522 q 313 77 378 237 q 647 311 486 146 q 432 473 551 396 l 504 567 q 721 405 644 470 q 827 640 787 497 l 542 640 q 407 627 494 640 l 407 753 q 542 741 505 741 l 848 741 q 990 755 897 741 q 811 327 914 473 q 1042 99 969 177 l 951 -2 q 736 234 840 136 z "},"凭":{"ha":1389,"x_min":22,"x_max":1325,"o":"m 918 898 l 918 766 l 1174 766 q 1322 781 1255 767 l 1322 650 q 1171 665 1252 663 l 918 665 l 918 548 l 1075 548 q 1221 560 1145 549 l 1221 433 q 1074 446 1150 446 l 647 446 q 503 431 574 446 l 503 562 q 647 548 574 549 l 793 548 l 793 665 l 581 665 q 436 652 507 664 l 436 780 q 581 766 505 766 l 793 766 l 793 882 q 529 862 703 871 q 490 971 523 901 q 471 963 482 967 q 436 931 451 957 l 400 874 l 400 512 q 401 446 400 467 q 410 377 404 419 l 262 377 q 271 445 269 419 q 273 512 273 469 l 273 715 q 165 597 237 672 q 157 588 159 591 q 22 673 102 637 q 357 1085 258 838 l 486 1020 q 512 994 512 1006 q 510 987 512 990 q 582 983 547 982 q 1121 1067 911 995 l 1219 970 q 1230 949 1230 958 q 1225 937 1230 943 q 1204 930 1218 930 q 1182 934 1195 930 q 1164 936 1175 936 q 1125 931 1147 936 q 918 898 981 904 m 572 251 q 500 -18 575 73 q 205 -218 432 -110 q 92 -104 162 -152 q 439 227 443 -24 q 429 355 439 253 q 428 368 428 364 q 557 355 524 354 l 875 355 q 1000 368 907 353 q 989 227 988 301 l 989 -9 q 1001 -39 987 -33 q 1063 -45 1014 -45 q 1158 -16 1140 -48 q 1187 138 1179 10 q 1325 59 1263 79 q 1251 -119 1300 -82 q 1063 -159 1204 -161 q 901 -133 938 -160 q 863 -27 861 -110 l 863 251 l 572 251 z "},"凯":{"ha":1389,"x_min":90,"x_max":1353,"o":"m 90 -24 q 142 59 142 -1 l 142 238 q 129 368 141 282 q 268 355 216 355 l 526 355 l 526 474 l 241 474 q 109 462 192 474 l 109 588 q 241 576 197 576 l 521 576 q 661 588 573 576 q 648 469 648 503 l 648 368 q 661 241 649 319 q 521 254 564 254 l 267 254 l 267 41 q 639 217 431 108 q 631 77 629 123 q 168 -155 252 -79 l 90 -24 m 100 1000 l 236 983 q 269 970 267 979 q 271 959 271 962 q 249 927 271 945 q 231 850 230 918 l 231 768 l 335 768 l 335 909 q 323 1076 335 958 l 461 1057 q 501 1043 499 1052 q 503 1032 503 1034 q 475 995 503 1017 q 457 924 456 986 l 457 768 l 564 768 l 564 831 q 555 981 564 863 q 554 996 555 991 l 688 979 q 716 967 713 975 q 718 957 718 960 q 703 927 718 944 q 685 831 684 912 l 685 781 q 696 653 685 724 q 557 667 613 667 l 239 667 q 98 654 194 667 q 111 783 111 738 l 111 838 q 100 1000 111 896 m 873 495 q 823 78 876 208 q 608 -208 776 -56 q 485 -115 557 -153 q 693 98 645 -22 q 749 487 749 222 l 749 830 q 737 979 747 909 q 878 966 840 966 l 999 966 q 1147 979 1069 967 q 1135 828 1136 903 l 1135 3 q 1160 -30 1134 -31 q 1189 -23 1183 -30 q 1191 -24 1190 -24 q 1214 170 1203 -24 q 1353 52 1296 81 q 1289 -105 1326 -66 q 1154 -148 1255 -150 q 1092 -142 1122 -148 q 1027 -109 1044 -132 q 1010 -34 1009 -86 l 1010 865 l 873 865 l 873 495 z "},"凰":{"ha":1389,"x_min":29,"x_max":1365,"o":"m 808 795 q 966 805 871 796 q 957 667 958 730 l 957 513 q 966 381 958 451 q 811 391 867 391 l 564 391 q 415 380 517 389 q 428 515 426 463 l 428 669 q 416 806 428 700 q 549 795 494 795 q 591 905 574 844 l 357 905 l 357 592 q 163 -174 359 86 q 29 -119 111 -140 q 232 629 229 58 l 232 877 q 221 1020 231 915 q 382 1009 323 1011 l 1021 1009 q 1182 1025 1082 1009 q 1164 885 1168 962 q 1150 449 1150 637 q 1169 128 1150 247 q 1207 -11 1185 24 q 1216 -19 1213 -22 q 1222 -1 1220 -16 q 1226 112 1227 62 q 1365 -1 1301 22 q 1317 -126 1335 -87 q 1229 -184 1288 -182 q 1164 -158 1194 -184 q 1026 488 1022 -41 q 1038 905 1026 663 l 660 905 l 726 885 q 749 861 751 878 q 717 837 745 846 q 684 809 699 833 l 673 795 l 808 795 m 431 -28 l 629 -28 l 629 64 l 558 64 q 419 52 532 64 l 419 172 q 558 160 534 159 l 629 160 l 629 237 l 513 237 q 379 226 460 235 l 379 345 q 513 332 467 333 l 863 332 q 1010 344 903 332 l 1010 226 q 867 237 922 235 l 751 237 l 751 160 l 819 160 q 960 172 841 159 l 960 54 q 819 64 855 64 l 751 64 l 751 -28 l 914 -28 q 1055 -18 945 -28 l 1055 -136 q 914 -126 951 -126 l 432 -126 q 302 -137 394 -127 l 302 -16 q 431 -28 398 -28 m 546 548 l 546 484 l 838 484 l 838 548 l 546 548 m 546 702 l 546 638 l 838 638 l 838 702 l 546 702 z "},"刀":{"ha":1389,"x_min":78,"x_max":1214,"o":"m 728 809 q 208 -198 739 119 q 78 -90 167 -141 q 590 809 592 133 l 329 809 q 168 796 275 809 l 168 934 q 329 922 254 922 l 1036 922 q 1214 932 1110 921 q 1196 760 1199 835 q 1153 54 1179 427 q 1083 -120 1145 -78 q 839 -184 1026 -168 q 764 -16 829 -107 q 924 -34 890 -35 q 1019 87 1014 -42 q 1063 809 1050 452 l 728 809 z "},"分":{"ha":1389,"x_min":33,"x_max":1364,"o":"m 135 -87 q 521 466 516 37 l 489 466 q 322 454 406 465 l 322 523 q 157 368 241 433 q 33 460 91 425 q 472 1040 359 628 l 589 995 q 629 968 629 980 q 595 932 632 956 q 553 871 574 921 q 368 577 477 711 q 489 570 424 570 l 896 570 q 1008 576 952 570 q 736 1056 852 746 l 876 1077 q 1364 486 974 711 q 1221 381 1294 450 q 1057 524 1132 450 q 1051 434 1051 473 l 1039 151 q 974 -103 1033 -54 q 714 -169 929 -159 q 643 -22 694 -109 q 786 -33 745 -33 q 879 4 857 -34 q 905 159 901 35 q 912 313 907 211 q 918 466 916 414 l 657 466 q 249 -199 642 13 q 135 -87 182 -125 z "},"列":{"ha":1389,"x_min":25,"x_max":1281,"o":"m 671 878 l 489 878 q 453 741 477 831 q 447 719 449 726 l 602 719 q 768 730 688 719 q 171 -219 751 14 q 58 -100 127 -152 q 509 208 390 -3 q 297 389 419 300 l 387 488 q 571 330 492 406 q 631 614 612 425 l 408 614 q 153 274 319 424 q 25 369 87 331 q 351 878 282 507 l 257 878 q 90 867 181 878 l 90 995 q 257 983 176 983 l 671 983 q 838 996 759 983 l 838 866 q 671 878 757 878 m 1013 138 l 865 138 q 876 324 876 205 l 876 752 q 865 922 876 820 l 1013 903 q 1042 885 1039 900 q 1019 849 1043 870 q 1002 783 1001 836 l 1002 324 q 1013 138 1002 210 m 962 -197 q 903 -41 943 -119 q 1061 -56 1008 -56 q 1112 -14 1117 -59 l 1112 924 q 1101 1082 1113 993 l 1250 1060 q 1278 1042 1276 1056 q 1260 1010 1281 1029 q 1240 931 1240 995 l 1240 -40 q 1183 -155 1242 -124 q 962 -197 1126 -189 z "},"刘":{"ha":1389,"x_min":53,"x_max":1293,"o":"m 519 199 q 161 -129 378 2 q 53 -22 125 -73 q 433 300 290 81 q 164 588 340 416 l 273 661 q 493 421 404 525 q 555 715 548 575 l 225 715 q 81 701 170 715 l 81 831 q 156 821 125 824 q 225 819 187 819 l 441 819 q 294 989 391 894 l 401 1067 q 564 881 502 963 l 481 819 l 664 819 q 808 831 734 819 l 808 701 q 793 703 803 701 q 689 715 718 716 q 589 317 667 496 q 802 38 683 202 q 682 -52 745 7 q 519 199 603 94 m 1116 1076 l 1267 1057 q 1292 1040 1291 1054 q 1271 1006 1293 1026 q 1254 922 1254 991 l 1254 -44 q 1208 -155 1257 -128 q 1006 -199 1165 -185 q 924 -50 987 -133 q 1064 -62 1023 -62 q 1126 -19 1131 -64 l 1126 914 q 1116 1076 1127 991 m 852 862 l 996 844 q 1025 826 1023 840 q 1003 792 1027 812 q 991 770 995 785 q 989 720 989 755 l 989 326 q 1000 165 988 231 l 851 165 q 864 326 864 235 l 864 713 q 852 862 865 774 z "},"则":{"ha":1389,"x_min":53,"x_max":1303,"o":"m 606 307 l 606 871 l 296 871 l 296 283 q 307 146 296 237 l 160 146 q 171 283 171 238 l 171 830 q 158 988 169 910 q 322 976 250 977 l 579 976 q 743 989 657 977 q 732 831 733 904 l 732 307 q 742 170 731 271 l 596 170 q 606 307 606 271 m 1264 -40 q 1219 -158 1268 -134 q 996 -203 1179 -187 q 935 -47 980 -126 q 1089 -64 1061 -65 q 1137 -19 1142 -68 l 1137 923 q 1128 1077 1137 989 l 1260 1056 q 1302 1038 1298 1050 q 1303 1034 1303 1036 q 1280 999 1303 1022 q 1264 923 1263 983 l 1264 -40 m 511 531 q 450 90 514 212 q 167 -184 399 -33 q 53 -79 123 -126 q 323 119 264 12 q 389 484 391 227 q 376 777 389 590 l 518 759 q 549 741 546 755 q 528 706 551 727 q 511 631 511 694 l 511 531 m 872 970 l 1002 948 q 1042 933 1039 941 q 1045 922 1045 925 q 1023 890 1045 909 q 1008 819 1009 869 l 1008 269 q 1019 131 1008 222 l 872 131 q 884 269 884 233 l 884 819 q 872 970 884 865 m 553 182 q 831 -47 703 65 l 736 -145 q 469 91 621 -28 l 553 182 z "},"刚":{"ha":1389,"x_min":125,"x_max":1280,"o":"m 125 980 q 275 968 234 969 l 636 968 q 783 980 679 967 q 772 833 772 886 l 772 -23 q 722 -138 774 -109 q 514 -183 675 -170 q 464 -35 506 -119 q 599 -48 566 -48 q 647 2 651 -52 l 647 166 l 555 124 q 472 315 515 227 q 366 123 422 216 q 262 170 319 153 l 262 -15 q 272 -180 263 -98 l 126 -180 q 136 -15 136 -100 l 136 831 q 125 980 135 878 m 1244 -18 q 1194 -132 1247 -102 q 982 -181 1143 -166 q 929 -33 970 -102 q 970 -36 944 -34 q 1061 -43 1044 -43 q 1120 5 1124 -45 l 1120 905 q 1108 1055 1120 966 l 1239 1038 q 1277 1025 1274 1034 q 1280 1011 1280 1015 q 1260 976 1280 996 q 1244 916 1245 962 l 1244 -18 m 1031 156 l 884 156 q 895 309 895 240 l 895 743 q 884 892 895 792 l 1013 874 q 1050 861 1046 870 q 1055 848 1055 852 q 1038 817 1055 836 q 1019 755 1020 795 l 1019 309 q 1031 156 1019 233 m 262 865 l 262 720 l 343 773 q 360 747 349 764 q 460 587 427 643 q 510 789 489 679 l 631 738 q 640 733 633 736 q 647 728 645 730 l 647 865 l 262 865 m 262 201 q 404 444 345 311 q 262 670 338 558 l 262 201 m 631 684 q 602 635 612 673 q 536 455 575 548 q 647 235 595 347 l 647 696 q 631 684 641 690 z "},"创":{"ha":1389,"x_min":16,"x_max":1300,"o":"m 460 869 q 260 613 339 701 q 370 605 336 605 l 590 605 q 729 616 635 606 q 722 534 727 594 q 708 373 713 418 q 596 205 705 233 q 443 182 546 189 q 383 320 434 252 q 481 311 452 311 q 521 312 510 311 q 570 333 557 315 q 587 398 583 349 q 595 500 589 407 l 354 500 l 354 28 q 368 -8 353 0 q 433 -20 382 -18 q 443 -21 437 -20 q 509 -23 484 -23 q 568 -21 528 -23 q 586 -20 580 -20 q 599 -21 592 -21 q 711 149 693 -21 q 846 52 783 73 q 615 -132 780 -130 q 489 -136 551 -136 q 382 -132 437 -136 q 232 3 225 -124 l 232 474 q 225 574 231 517 q 149 495 201 547 q 16 570 91 541 q 418 1082 279 766 l 550 1037 q 577 1011 577 1027 q 549 984 576 995 q 530 968 542 982 q 783 787 619 907 q 867 726 838 747 q 782 609 820 681 q 460 869 597 777 m 1258 -28 q 1208 -142 1261 -115 q 975 -191 1160 -173 q 917 -37 958 -111 q 1063 -54 1018 -54 q 1133 -5 1137 -55 l 1133 903 q 1122 1063 1132 947 l 1268 1041 q 1298 1023 1295 1037 q 1276 987 1300 1008 q 1258 916 1257 972 l 1258 -28 m 1026 131 l 882 131 q 892 269 891 220 l 892 758 q 880 907 891 791 l 1015 884 q 1051 871 1049 878 q 1053 863 1053 865 q 1032 830 1053 851 q 1017 762 1017 814 l 1017 269 q 1026 131 1017 230 z "},"利":{"ha":1389,"x_min":39,"x_max":1286,"o":"m 390 574 l 215 574 q 78 562 193 574 l 78 691 q 214 678 142 682 l 412 678 l 412 877 q 306 862 380 872 q 139 840 176 844 q 89 963 130 888 q 684 1065 444 966 l 764 962 q 772 941 772 950 q 768 930 772 936 q 745 923 761 923 q 729 924 737 923 q 695 928 709 928 q 663 924 680 928 q 541 898 589 907 l 541 678 l 671 678 q 806 691 743 681 l 806 562 q 671 574 694 574 l 541 574 l 541 559 q 781 357 694 444 l 705 238 q 541 412 608 358 l 541 -23 q 551 -189 543 -106 l 401 -189 q 412 -23 409 -115 l 412 357 q 184 45 312 197 q 39 112 109 89 q 390 574 245 290 m 844 850 l 983 833 q 1011 819 1010 828 q 1013 807 1013 809 q 993 772 1013 791 q 983 690 983 766 l 983 278 q 994 117 987 196 l 844 117 q 856 278 853 204 l 856 702 q 844 850 854 749 m 1108 1080 l 1267 1057 q 1286 1040 1286 1052 q 1268 1009 1286 1027 q 1247 922 1246 991 l 1247 22 q 1200 -137 1253 -111 q 937 -181 1160 -171 q 889 -31 926 -90 q 1063 -47 1025 -47 q 1109 -31 1099 -47 q 1120 33 1120 -19 l 1120 913 q 1108 1080 1117 980 z "},"前":{"ha":1389,"x_min":81,"x_max":1318,"o":"m 368 1013 l 461 1105 q 660 923 568 1017 l 603 867 l 790 867 q 921 1109 860 961 l 1060 1038 q 1080 1015 1081 1027 q 1053 995 1077 1002 q 993 948 1017 982 l 936 867 l 1132 867 q 1318 878 1227 868 l 1318 751 q 1124 763 1229 762 l 275 763 q 81 751 158 762 l 81 878 q 273 867 161 868 l 528 867 q 368 1013 447 950 m 196 665 q 367 656 291 657 l 530 656 q 690 669 605 656 q 681 492 682 584 l 681 -50 q 647 -162 685 -139 q 476 -205 610 -193 q 411 -60 467 -142 q 513 -68 475 -70 q 525 -68 521 -68 q 557 -33 560 -71 l 557 136 l 328 136 l 328 -3 q 338 -208 329 -126 l 195 -208 q 204 -11 203 -128 l 204 492 q 196 665 204 524 m 328 347 l 328 237 l 557 237 l 557 347 l 328 347 m 328 555 l 328 448 l 557 448 l 557 555 l 328 555 m 950 79 l 807 79 q 815 245 814 161 l 815 439 q 815 451 815 444 q 807 584 817 513 l 936 566 q 967 555 964 562 q 970 545 970 548 q 957 517 970 534 q 942 446 942 498 l 942 248 q 942 234 942 243 q 950 79 941 140 m 929 -210 q 871 -68 913 -137 q 991 -77 947 -79 q 999 -77 996 -77 q 1053 -33 1057 -80 l 1053 573 q 1043 723 1053 629 l 1187 702 q 1212 688 1210 699 q 1198 656 1215 677 q 1179 584 1179 632 l 1179 -54 q 1138 -170 1183 -147 q 929 -210 1100 -199 z "},"剑":{"ha":1389,"x_min":25,"x_max":1322,"o":"m 747 531 q 614 545 656 545 l 382 545 q 283 534 356 545 q 258 531 265 532 l 258 595 q 151 495 217 553 q 25 583 100 550 q 428 1074 281 741 l 547 1027 q 581 1000 583 1013 q 541 971 581 988 l 534 967 q 537 966 536 967 q 539 966 538 966 q 886 730 742 836 l 802 617 q 473 866 660 752 q 310 650 399 751 q 376 646 349 646 q 382 646 380 646 l 614 646 q 747 658 675 647 l 747 531 m 1282 -38 q 1236 -152 1285 -127 q 1013 -199 1192 -182 q 962 -51 1006 -125 q 1092 -62 1062 -62 q 1143 -54 1132 -62 q 1156 -16 1156 -45 l 1156 910 q 1147 1037 1156 939 q 1146 1045 1146 1043 l 1279 1028 q 1320 1016 1317 1023 q 1322 1006 1322 1008 q 1300 970 1322 993 q 1282 920 1284 953 l 1282 -38 m 154 -157 l 89 -9 q 528 30 336 1 q 663 513 619 252 l 803 459 q 828 433 829 448 q 799 402 827 418 q 770 357 780 394 q 660 51 722 212 q 880 102 754 68 q 852 -37 863 40 q 154 -157 411 -96 m 1053 136 l 907 136 q 915 204 913 179 q 917 255 917 230 l 917 752 q 908 895 915 833 l 1036 877 q 1075 862 1072 871 q 1078 850 1078 853 q 1059 816 1078 836 q 1043 747 1043 802 l 1043 251 q 1053 136 1042 214 m 281 433 q 404 87 355 263 l 275 41 q 154 387 228 228 l 281 433 m 490 502 q 576 208 542 366 l 450 170 q 367 465 414 347 l 490 502 z "},"剡":{"ha":1389,"x_min":33,"x_max":1280,"o":"m 1238 -43 q 1187 -157 1240 -129 q 968 -202 1137 -189 q 900 -50 961 -131 q 1060 -64 1015 -64 q 1111 -33 1114 -66 l 1111 906 q 1100 1060 1109 965 l 1239 1042 q 1277 1030 1274 1038 q 1280 1020 1280 1022 q 1257 988 1280 1006 q 1241 962 1245 980 q 1238 902 1238 945 l 1238 -43 m 392 1050 l 529 1033 q 571 1021 569 1027 q 574 1012 574 1015 q 549 979 574 1000 q 526 922 525 961 q 507 720 524 805 q 789 515 629 636 q 705 406 753 480 q 457 614 570 543 q 187 401 379 492 l 310 366 q 335 344 334 359 q 311 315 335 329 q 275 237 295 310 q 224 99 255 172 q 77 121 162 119 q 187 399 153 214 q 178 395 184 398 q 168 391 172 392 q 61 498 142 444 q 403 873 403 578 q 401 909 403 888 q 395 1019 401 937 q 392 1050 393 1039 m 382 516 l 525 492 q 569 475 567 486 q 538 441 572 463 q 519 385 522 435 q 497 199 510 265 q 798 -52 624 109 q 701 -161 748 -90 q 458 83 572 5 q 161 -208 391 -59 q 33 -108 102 -146 q 311 83 236 -24 q 387 381 389 188 q 382 516 387 438 m 987 134 l 843 134 q 852 287 852 252 l 852 744 q 842 890 852 767 l 981 873 q 1016 861 1013 869 q 1019 850 1019 853 q 999 820 1019 838 q 978 734 977 804 l 978 287 q 987 134 980 216 m 186 938 l 323 916 q 347 899 345 912 q 328 873 348 886 q 309 841 315 863 q 267 648 294 755 q 173 656 223 656 q 122 654 145 656 q 186 938 181 746 m 726 791 q 650 677 679 715 q 529 728 593 713 q 657 942 629 838 l 777 885 q 800 860 800 874 q 775 837 799 845 q 726 791 751 830 m 728 260 q 646 146 684 191 q 526 203 611 180 q 660 402 604 278 l 768 336 q 793 306 795 321 q 760 286 789 291 q 728 260 743 281 z "},"力":{"ha":1389,"x_min":86,"x_max":1189,"o":"m 692 645 q 208 -219 667 84 q 86 -113 161 -157 q 562 641 528 83 l 338 634 q 205 617 291 633 q 191 614 195 615 l 182 752 q 334 741 251 741 l 566 747 q 553 1077 566 955 l 711 1055 q 738 1036 736 1051 q 713 1000 738 1021 q 699 935 698 991 q 697 748 699 800 l 1036 759 q 1189 774 1095 759 q 1147 98 1173 673 q 1081 -113 1143 -73 q 804 -177 1028 -163 q 755 -22 802 -113 q 909 -41 871 -41 q 1010 28 1004 -42 q 1043 656 1038 427 l 692 645 z "},"劝":{"ha":1389,"x_min":43,"x_max":1317,"o":"m 170 592 l 272 675 q 439 471 347 592 q 503 781 487 613 l 254 773 q 123 749 195 768 l 111 888 q 253 878 186 878 l 524 884 q 654 895 612 890 q 532 363 615 595 q 543 349 535 358 q 684 156 634 231 l 581 67 q 473 234 513 180 q 172 -108 353 36 q 43 -6 125 -53 q 386 345 264 100 q 170 592 284 478 m 771 762 l 857 766 l 857 798 q 838 1081 858 912 l 996 1063 q 1029 1050 1027 1059 q 1031 1038 1031 1042 q 1011 1005 1031 1023 q 989 935 987 986 q 987 773 989 827 l 1158 783 q 1317 804 1230 787 q 1304 598 1310 741 q 1292 265 1298 429 q 1286 83 1288 134 q 1233 -97 1284 -60 q 1004 -159 1192 -139 q 943 -5 988 -77 q 1068 -16 1033 -16 q 1134 2 1117 -17 q 1154 74 1152 19 q 1175 680 1173 409 l 986 670 q 542 -209 998 95 q 407 -112 509 -172 q 856 663 850 82 l 782 658 q 663 634 747 656 l 654 774 q 771 762 721 760 z "},"功":{"ha":1389,"x_min":53,"x_max":1282,"o":"m 549 142 q 521 134 540 140 q 111 -7 241 42 q 53 134 90 70 q 306 189 165 149 l 306 773 l 227 773 q 79 759 151 772 l 79 894 q 227 877 144 878 l 476 877 q 621 892 538 877 l 621 759 q 476 773 552 770 l 431 773 l 431 227 q 653 327 519 259 q 633 169 629 229 q 549 142 585 155 m 689 728 l 790 735 q 789 935 790 804 q 779 1063 789 987 l 933 1045 q 964 1026 962 1042 q 940 991 966 1011 q 922 902 922 979 q 920 743 922 834 l 1133 755 q 1228 766 1152 756 q 1282 773 1261 770 q 1272 588 1274 676 q 1251 30 1265 270 q 1180 -128 1247 -87 q 932 -183 1116 -174 q 888 -30 930 -111 q 1018 -40 992 -41 q 1120 28 1116 -42 q 1145 648 1131 216 l 917 635 l 917 610 q 918 557 918 584 q 486 -216 918 94 q 347 -119 435 -164 q 642 113 522 -40 q 786 610 789 289 l 786 629 l 713 623 q 579 606 648 618 l 571 736 q 689 728 627 729 z "},"加":{"ha":1389,"x_min":32,"x_max":1265,"o":"m 789 884 q 956 871 899 873 l 1104 871 q 1265 884 1196 873 q 1254 701 1254 798 l 1254 95 q 1265 -104 1255 -31 l 1118 -104 q 1129 24 1130 -26 l 1129 38 l 926 38 l 926 30 q 937 -123 926 -45 l 790 -123 q 800 75 800 -52 l 800 698 q 789 884 801 793 m 1129 140 l 1129 770 l 926 770 l 926 140 l 1129 140 m 240 791 l 318 791 q 313 1072 318 956 l 446 1055 q 493 1036 491 1050 q 458 987 496 1021 q 452 931 451 982 q 452 861 452 884 q 450 791 451 831 l 554 791 q 713 804 621 791 q 684 190 701 748 q 681 85 682 122 q 630 -78 678 -41 q 431 -138 588 -121 q 357 18 419 -67 q 482 1 450 1 q 553 90 553 -3 q 574 690 569 404 l 447 690 q 195 -197 445 109 q 32 -140 149 -172 q 317 690 313 73 l 240 690 q 85 677 168 689 l 85 802 q 240 791 157 791 z "},"务":{"ha":1389,"x_min":26,"x_max":1365,"o":"m 410 298 l 568 298 q 571 357 571 323 q 567 456 571 401 q 136 287 365 357 q 26 413 92 352 q 582 601 337 458 q 443 731 499 673 l 536 816 q 688 671 618 716 q 860 820 783 743 l 488 820 q 277 587 402 710 q 134 663 218 631 q 494 1097 387 837 l 635 1040 q 648 1022 650 1033 q 628 1005 646 1012 q 599 981 614 999 q 553 922 574 949 l 960 922 q 1120 935 998 920 q 800 605 1023 786 q 1365 462 1006 487 q 1247 313 1287 409 q 689 527 926 378 q 576 462 643 496 l 729 437 q 749 420 749 433 q 725 382 749 407 q 713 352 717 375 l 704 298 l 945 298 q 1118 311 1027 298 q 1080 70 1099 238 q 1003 -138 1067 -91 q 749 -208 947 -191 q 676 -63 714 -123 q 713 -65 685 -64 q 794 -69 780 -69 q 924 -14 910 -71 q 957 197 943 41 l 684 197 q 203 -220 629 -98 q 102 -95 179 -156 q 547 197 466 -45 l 410 197 q 225 181 326 195 l 225 311 q 410 298 325 298 z "},"助":{"ha":1389,"x_min":32,"x_max":1300,"o":"m 176 108 l 176 842 q 164 981 177 891 q 301 968 248 968 l 488 968 q 624 981 541 968 q 611 842 610 908 l 611 189 q 634 197 618 192 q 714 226 681 213 q 699 91 699 153 q 109 -54 149 -18 l 32 91 q 176 108 125 98 m 302 328 l 302 124 q 485 160 380 136 l 485 328 l 302 328 m 302 593 l 302 430 l 485 430 l 485 593 l 302 593 m 302 865 l 302 695 l 485 695 l 485 865 l 302 865 m 765 735 l 860 739 q 856 935 860 870 q 839 1066 852 999 l 1007 1048 q 1036 1029 1034 1044 q 1014 994 1038 1014 q 993 914 991 981 l 993 744 l 1143 751 q 1300 770 1212 753 q 1268 142 1280 572 q 1220 -111 1265 -79 q 978 -170 1191 -159 q 905 -9 964 -104 q 1059 -30 1023 -30 q 1131 62 1128 -36 q 1156 645 1147 306 l 993 638 q 615 -208 998 104 q 458 -127 527 -150 q 859 633 846 74 l 779 629 q 642 612 736 626 l 635 745 q 765 735 713 735 z "},"勃":{"ha":1389,"x_min":78,"x_max":1295,"o":"m 123 52 l 79 199 q 374 241 254 211 q 365 317 374 257 q 364 321 364 320 q 457 393 420 354 l 310 393 q 178 381 264 393 l 178 499 l 92 499 q 102 602 101 576 l 102 617 q 90 723 101 646 q 231 710 164 713 l 370 710 l 370 816 l 216 816 q 101 807 201 816 q 78 805 85 806 l 78 928 q 216 918 181 918 l 370 918 l 370 941 q 358 1082 368 991 l 503 1062 q 529 1051 527 1058 q 531 1040 531 1044 q 515 1015 531 1029 q 494 948 493 997 l 494 918 l 647 918 q 786 928 702 919 l 786 805 q 647 816 700 815 l 494 816 l 494 710 l 640 710 q 757 719 688 711 l 753 773 q 825 764 804 766 q 864 763 850 762 l 904 764 q 905 800 906 800 l 905 800 q 905 821 905 809 q 905 849 905 830 q 888 1078 905 975 l 1043 1060 q 1071 1043 1069 1057 q 1050 1006 1073 1030 q 1032 937 1032 986 q 1031 770 1032 826 l 1137 774 q 1295 795 1220 780 q 1282 656 1286 720 q 1263 182 1270 397 q 1209 -99 1257 -57 q 968 -165 1175 -155 q 882 -12 941 -79 q 926 -18 897 -14 q 1051 -33 1038 -33 q 1114 5 1099 -34 q 1133 168 1128 34 l 1156 670 l 1032 665 q 694 -194 1021 98 q 534 -141 624 -161 q 903 659 896 96 l 873 658 q 772 644 827 654 q 771 614 771 627 l 771 595 q 781 498 771 562 l 693 498 q 498 280 582 358 l 498 270 q 725 345 601 296 q 708 205 706 270 q 689 201 702 203 q 498 157 547 171 l 498 -16 q 460 -157 503 -133 q 253 -198 429 -187 q 203 -50 241 -117 q 340 -64 303 -64 q 374 -26 377 -68 l 374 130 q 123 52 205 90 m 224 600 q 233 500 224 572 q 310 495 280 495 l 542 495 q 637 502 562 495 q 647 596 646 578 l 647 609 l 224 609 l 224 600 z "},"勉":{"ha":1389,"x_min":7,"x_max":1344,"o":"m 749 759 q 886 743 804 744 q 888 837 888 771 q 878 1050 887 972 l 1032 1034 q 1061 1017 1060 1030 q 1036 980 1062 1003 q 1022 934 1021 968 q 1018 743 1021 829 l 1097 743 q 1244 755 1182 745 q 1232 541 1234 665 q 1219 203 1228 311 q 1211 168 1217 184 q 1344 59 1280 87 q 1154 -169 1299 -174 q 836 -177 1064 -177 q 597 -169 652 -177 q 467 -43 471 -148 l 467 246 q 146 -220 419 -12 q 7 -129 96 -161 q 345 311 288 -1 l 264 311 q 122 294 201 310 q 136 438 136 367 l 136 566 q 131 620 136 576 q 24 701 76 675 q 354 1074 233 826 l 486 1015 q 512 985 515 1001 q 475 964 507 969 q 441 942 456 962 q 416 911 433 930 l 581 911 q 739 930 646 911 q 665 825 684 848 q 573 703 625 775 q 554 677 561 686 l 597 677 q 745 692 668 682 q 742 676 744 688 q 729 570 729 595 l 729 437 q 743 294 730 364 q 602 311 669 309 l 593 311 l 593 17 q 633 -50 589 -47 q 725 -55 660 -54 q 800 -56 757 -56 q 907 -56 838 -56 q 1128 -44 1059 -56 q 1203 149 1190 -28 q 954 54 1150 61 q 900 213 946 137 q 1035 181 1005 181 q 1095 274 1088 178 q 1107 638 1105 404 l 1014 638 q 725 20 1007 252 q 603 117 692 75 q 882 638 867 264 q 749 621 798 635 l 749 759 m 340 813 q 218 681 272 730 q 268 677 249 677 l 410 677 q 465 760 429 704 q 500 813 487 793 l 340 813 m 494 578 q 488 409 494 487 l 608 409 l 608 578 l 494 578 m 368 578 l 260 578 l 260 409 l 359 409 q 368 578 368 487 z "},"勐":{"ha":1389,"x_min":57,"x_max":1295,"o":"m 93 -121 l 57 27 q 155 23 105 23 l 155 256 q 144 404 155 311 q 294 391 244 391 l 611 391 q 761 404 656 391 q 750 262 751 315 l 750 70 l 791 79 q 753 -35 762 14 q 924 656 918 170 q 802 644 873 652 l 802 773 q 926 760 866 760 l 926 922 q 914 1080 926 959 l 1068 1062 q 1096 1045 1095 1058 q 1075 1010 1098 1031 q 1053 926 1051 992 l 1053 760 l 1131 760 q 1295 772 1206 760 q 1278 613 1278 678 l 1260 74 q 1206 -105 1257 -67 q 982 -166 1162 -149 q 933 -18 968 -89 q 1064 -34 1050 -35 q 1131 62 1133 -39 l 1154 656 l 1050 656 q 775 -202 1051 22 q 639 -127 717 -155 q 742 -50 694 -99 q 93 -121 260 -86 m 519 767 l 519 744 l 610 744 q 751 756 673 745 l 751 630 q 610 642 674 642 l 519 642 l 519 538 q 477 446 522 469 q 286 405 433 419 q 240 541 274 473 q 287 535 257 539 q 367 527 353 526 q 396 556 399 524 l 396 642 l 229 642 q 100 631 202 642 q 87 630 92 631 l 87 756 q 229 744 176 745 l 396 744 q 389 789 396 762 q 386 799 387 795 q 509 888 463 851 l 300 888 q 165 876 258 888 l 165 999 q 313 987 248 987 l 597 987 q 772 1004 663 987 q 519 767 697 910 m 264 292 l 264 23 q 319 24 299 23 l 319 292 l 264 292 m 425 292 l 425 30 q 478 34 442 31 l 478 292 l 425 292 m 583 292 l 583 45 q 633 53 600 47 q 639 54 637 54 l 639 292 l 583 292 z "},"勒":{"ha":1389,"x_min":53,"x_max":1308,"o":"m 710 617 l 701 749 q 792 743 762 744 q 823 742 804 742 q 846 743 839 742 l 890 745 l 890 914 q 879 1066 888 968 l 1013 1048 q 1047 1025 1042 1045 q 1026 987 1050 1006 q 1018 906 1017 985 l 1018 752 l 1156 760 q 1308 784 1192 763 q 1289 629 1291 669 l 1263 52 q 1199 -83 1261 -47 q 950 -145 1141 -122 q 889 1 930 -69 q 1033 -5 968 -4 q 1115 12 1097 -5 q 1135 87 1134 26 l 1164 656 l 1018 648 q 942 157 1009 311 q 677 -183 881 -3 q 550 -95 614 -123 q 751 81 680 -13 q 650 88 694 87 l 496 88 l 496 -55 q 505 -199 498 -118 l 363 -199 q 372 -56 370 -148 l 372 88 l 176 88 q 53 79 152 87 l 53 197 q 176 186 111 189 l 372 186 l 372 266 l 275 266 q 143 258 231 264 q 150 374 149 318 l 150 455 q 143 580 149 518 q 277 572 231 572 l 372 572 l 372 630 l 363 630 q 231 623 292 628 q 239 736 237 687 l 239 801 l 204 801 q 126 795 197 801 q 85 791 98 792 l 85 909 q 204 899 136 901 l 239 899 l 239 926 q 229 1056 237 962 l 371 1038 q 396 1021 395 1035 q 378 989 398 1007 q 361 922 360 977 l 361 899 l 515 899 l 515 924 q 505 1055 513 979 l 647 1037 q 673 1020 671 1034 q 654 988 675 1006 q 637 920 637 976 l 637 899 l 661 899 q 779 909 702 901 l 779 791 q 661 801 732 798 l 637 801 l 637 738 q 646 623 640 688 q 515 630 587 628 l 496 630 l 496 572 l 607 572 q 741 580 665 573 q 733 460 734 498 l 733 377 q 741 258 734 343 q 610 266 656 264 l 496 266 l 496 186 l 650 186 q 777 197 688 187 l 777 115 q 888 621 890 282 l 888 640 l 850 638 q 710 617 808 635 m 496 473 l 496 364 l 610 364 l 610 473 l 496 473 m 361 726 l 515 726 l 515 801 l 361 801 l 361 726 m 372 364 l 372 473 l 273 473 l 273 364 l 372 364 z "},"勤":{"ha":1389,"x_min":46,"x_max":1284,"o":"m 762 734 q 828 728 789 730 q 878 727 862 726 l 897 727 l 897 836 q 884 1065 897 939 l 1036 1044 q 1065 1025 1063 1040 q 1043 987 1067 1009 q 1025 910 1024 972 q 1023 734 1025 793 l 1133 739 q 1284 759 1179 739 q 1272 614 1274 663 q 1251 45 1263 275 q 986 -189 1263 -170 q 930 -27 976 -126 q 1050 -45 1019 -45 q 1124 67 1120 -52 q 1146 587 1135 227 q 1147 635 1147 619 l 1023 630 q 793 -209 1031 105 q 644 -145 739 -174 q 713 -69 673 -118 q 106 -151 220 -106 q 49 -11 87 -77 q 385 3 203 -13 l 385 75 l 271 75 q 134 66 224 76 l 134 182 q 271 172 224 172 l 385 172 l 385 223 l 237 223 q 107 213 196 224 l 107 327 q 237 316 203 315 l 385 316 l 385 368 l 268 368 q 139 356 234 368 q 151 465 152 433 l 151 513 q 139 630 153 536 q 265 618 219 617 l 385 618 l 385 674 l 351 674 q 232 662 331 675 q 243 788 243 748 l 243 812 l 176 812 q 46 801 131 812 l 46 919 q 176 907 131 907 l 243 907 l 243 911 q 233 1062 243 962 l 371 1044 q 402 1026 400 1040 q 380 989 405 1013 q 366 923 366 974 l 366 907 l 536 907 l 536 914 q 525 1062 537 970 l 665 1044 q 700 1024 697 1040 q 675 987 702 1008 q 659 920 658 975 l 659 907 l 684 907 q 822 919 729 907 l 822 801 q 684 812 708 813 l 659 812 l 659 785 q 671 662 658 750 q 550 674 572 675 l 510 674 l 510 618 l 636 618 q 762 631 678 618 q 751 517 750 538 l 751 465 q 762 355 751 430 q 635 368 660 369 l 510 368 l 510 316 l 642 316 q 781 327 687 315 l 781 213 q 751 216 770 214 q 642 223 666 224 l 510 223 l 510 172 l 616 172 q 755 182 668 171 l 755 66 q 616 75 655 76 l 510 75 l 510 16 q 764 55 648 31 q 739 -35 745 13 q 897 623 894 183 l 889 623 q 772 605 844 618 l 762 734 m 510 528 l 510 455 l 629 455 l 629 528 l 510 528 m 536 762 l 536 812 l 366 812 l 366 762 l 536 762 m 273 455 l 385 455 l 385 528 l 273 528 l 273 455 z "},"匀":{"ha":1389,"x_min":54,"x_max":1221,"o":"m 225 163 q 975 359 652 233 q 960 213 959 265 q 290 17 525 99 l 225 163 m 380 534 l 444 645 q 833 487 661 563 l 778 368 q 380 534 572 467 m 408 753 q 191 481 311 615 q 54 551 132 528 q 421 1077 320 783 l 545 1023 q 589 988 589 1004 q 546 958 589 973 q 503 903 531 954 q 491 883 497 894 q 478 861 485 872 l 1060 861 q 1221 870 1103 860 q 1214 743 1219 840 q 1213 710 1213 721 q 1189 92 1196 286 q 1098 -119 1186 -63 q 772 -189 1014 -179 q 711 -28 755 -117 q 900 -52 848 -53 q 1060 100 1059 -55 l 1078 753 l 408 753 z "},"包":{"ha":1389,"x_min":35,"x_max":1310,"o":"m 282 526 q 280 563 282 536 q 278 592 279 582 q 199 503 254 564 q 171 471 180 482 q 35 563 121 526 q 404 1077 296 747 l 542 1020 q 570 991 571 1008 q 538 964 568 975 q 511 941 523 960 l 481 892 l 1031 892 q 1193 905 1106 895 q 1181 741 1182 825 q 1166 338 1177 499 q 1098 180 1162 221 q 856 127 1035 135 q 817 246 852 193 q 733 254 763 254 l 414 254 l 414 48 q 554 -43 405 -47 l 949 -43 q 1116 -5 1087 -46 q 1154 181 1154 28 q 1310 81 1240 104 q 1201 -125 1259 -88 q 1119 -157 1170 -148 q 971 -165 1073 -165 l 539 -165 q 335 -127 388 -165 q 282 10 280 -93 l 282 526 m 421 785 q 326 652 378 721 q 419 646 393 646 l 720 646 q 869 659 778 646 q 859 528 858 578 l 859 366 q 865 266 858 325 q 943 262 902 261 q 1036 351 1038 256 q 1050 785 1047 575 l 421 785 m 414 543 l 414 357 l 729 357 l 729 543 l 414 543 z "},"化":{"ha":1389,"x_min":31,"x_max":1326,"o":"m 846 903 l 846 486 q 1143 849 1018 646 l 1247 760 q 1272 725 1276 736 q 1232 702 1270 713 q 1169 650 1213 701 q 846 319 979 433 l 846 27 q 869 -31 843 -22 q 987 -44 892 -45 q 1119 -31 1086 -45 q 1161 23 1153 -19 q 1181 182 1175 98 q 1326 106 1252 121 l 1304 10 q 1093 -154 1268 -151 q 1000 -155 1063 -155 q 856 -151 913 -155 q 717 -11 722 -137 l 717 227 q 539 104 633 167 q 431 220 482 180 l 431 -30 q 440 -195 432 -88 l 294 -195 q 304 -30 304 -71 l 304 539 q 160 345 248 456 q 31 435 105 404 q 437 1085 261 630 l 564 1020 q 596 991 598 1002 q 559 966 597 981 q 514 902 541 959 q 431 743 488 846 l 431 227 q 717 376 561 259 l 717 907 q 707 1057 715 972 l 840 1040 q 882 1024 879 1035 q 882 1021 882 1023 q 859 987 882 1010 q 846 903 845 977 z "},"北":{"ha":1389,"x_min":36,"x_max":1354,"o":"m 457 -12 l 457 27 q 113 -104 218 -44 q 107 -92 111 -100 q 36 45 64 5 q 457 138 205 60 l 457 539 l 244 539 q 113 527 189 539 l 113 658 q 244 644 176 644 l 457 644 l 457 865 q 446 1019 457 943 l 590 996 q 625 977 623 991 q 597 939 627 964 q 583 888 584 924 l 583 -12 q 591 -169 583 -110 l 447 -169 q 457 -12 457 -101 m 901 891 l 901 610 q 1208 745 1055 642 l 1296 631 q 1308 606 1308 616 q 1301 592 1308 600 q 1281 585 1295 585 q 1258 588 1273 585 q 1230 591 1244 591 q 1215 590 1220 591 q 1162 576 1198 589 q 901 499 1044 532 l 901 20 q 935 -41 900 -39 q 1029 -44 962 -44 q 1094 -42 1073 -44 q 1132 -34 1118 -40 q 1208 176 1179 -41 q 1354 66 1280 94 q 1161 -148 1280 -143 q 1108 -154 1138 -152 q 1076 -155 1094 -155 q 1032 -155 1061 -155 q 868 -146 912 -155 q 771 -2 772 -128 l 771 881 q 757 1034 772 963 l 901 1012 q 939 994 936 1006 q 914 955 941 981 q 901 891 901 943 z "},"匡":{"ha":1389,"x_min":127,"x_max":1264,"o":"m 684 229 l 684 409 l 542 409 q 403 398 507 410 l 403 526 q 542 513 499 513 l 684 513 l 684 667 l 478 667 q 349 654 426 667 l 349 785 q 478 772 423 772 l 1018 772 q 1152 784 1072 772 l 1152 654 q 1018 667 1066 667 l 810 667 l 810 513 l 962 513 q 1096 526 1017 513 l 1096 398 q 962 409 1001 409 l 810 409 l 810 229 l 1063 229 q 1200 241 1111 229 l 1200 112 q 1063 124 1115 124 l 433 124 q 298 112 389 124 l 298 241 q 433 229 396 229 l 684 229 m 127 -113 q 140 23 141 -28 l 140 853 q 127 1006 138 928 q 302 995 222 997 l 1069 995 q 1218 1006 1126 996 l 1218 878 q 1069 891 1116 891 l 267 891 l 267 1 l 1118 1 q 1264 13 1179 1 l 1264 -113 q 1118 -102 1193 -102 l 302 -102 q 127 -113 264 -102 z "},"区":{"ha":1389,"x_min":143,"x_max":1278,"o":"m 143 987 q 290 975 220 977 l 1034 975 q 1203 987 1113 975 l 1203 859 q 1034 870 1103 869 l 281 870 l 281 -26 l 1108 -26 q 1278 -14 1180 -25 l 1278 -140 q 1108 -129 1179 -129 l 329 -129 q 143 -141 258 -130 q 155 31 155 -62 l 155 845 q 143 987 154 907 m 293 99 q 686 414 503 203 q 345 724 534 570 l 435 814 q 765 519 614 663 q 937 866 876 686 l 1072 798 q 1089 779 1089 789 q 1087 769 1089 776 q 1057 747 1085 762 q 1017 692 1038 736 q 854 426 962 583 q 1150 104 1004 276 l 1042 -7 q 775 324 907 195 q 407 -1 622 144 q 293 99 357 56 z "},"十":{"ha":1389,"x_min":66,"x_max":1315,"o":"m 765 910 l 765 569 l 1149 569 q 1315 584 1180 570 l 1315 439 q 1149 454 1183 453 l 765 454 l 765 -38 q 779 -209 770 -133 l 619 -209 q 633 -41 629 -133 l 633 454 l 228 454 q 66 439 180 452 l 66 584 q 228 569 146 573 l 633 569 l 633 903 q 619 1069 630 981 l 775 1050 q 806 1033 804 1047 q 785 999 809 1019 q 769 972 772 989 q 765 910 765 956 z "},"千":{"ha":1389,"x_min":97,"x_max":1295,"o":"m 631 838 q 245 796 458 814 q 176 935 229 871 q 346 931 216 931 q 1061 1077 787 948 l 1143 966 q 1155 938 1155 949 q 1150 926 1155 931 q 1128 918 1143 918 q 1104 922 1118 918 q 1080 924 1093 924 q 1028 918 1058 924 q 762 861 924 890 l 762 516 l 1139 516 q 1295 530 1177 515 l 1295 391 q 1139 406 1187 407 l 762 406 l 762 -31 q 775 -191 763 -102 l 618 -193 q 631 -33 630 -95 l 631 406 l 239 406 q 97 389 191 406 l 97 531 q 239 516 196 516 l 631 516 l 631 838 z "},"升":{"ha":1389,"x_min":49,"x_max":1331,"o":"m 432 441 l 222 441 q 72 429 172 441 l 72 557 q 222 548 178 548 l 432 548 l 432 830 q 174 780 294 800 q 98 910 149 852 q 679 1048 448 915 l 768 945 q 781 918 781 930 q 779 909 781 913 q 758 900 772 900 q 743 902 752 900 q 726 903 736 903 q 689 898 708 903 q 562 865 621 878 l 562 548 l 879 548 l 879 909 q 868 1060 879 965 l 1003 1042 q 1045 1025 1042 1037 q 1046 1022 1046 1024 q 1022 989 1046 1011 q 1008 909 1008 981 l 1008 548 l 1196 548 q 1331 559 1235 548 l 1331 429 q 1196 441 1245 441 l 1008 441 l 1008 -16 q 1019 -193 1010 -113 l 868 -193 q 879 -16 878 -119 l 879 441 l 561 441 q 187 -189 574 32 q 49 -84 137 -132 q 432 441 443 54 z "},"半":{"ha":1389,"x_min":93,"x_max":1293,"o":"m 165 486 l 165 617 q 335 605 244 604 l 624 605 l 624 937 q 612 1095 624 1009 l 764 1074 q 790 1063 789 1071 q 792 1053 792 1055 q 775 1024 792 1040 q 754 943 753 1008 l 754 605 l 1068 605 q 1240 617 1145 606 l 1240 486 q 1068 498 1157 498 l 754 498 l 754 303 l 1121 303 q 1293 316 1200 304 l 1293 181 q 1121 194 1204 193 l 754 194 l 754 -52 q 764 -223 755 -139 l 614 -223 q 624 -52 624 -136 l 624 194 l 262 194 q 93 181 199 193 l 93 316 q 262 303 174 304 l 624 303 l 624 498 l 335 498 q 165 486 278 497 m 1063 1009 l 1178 924 q 1197 898 1197 910 q 1195 889 1197 897 q 1168 877 1194 882 q 1111 837 1138 873 q 946 646 1044 753 l 843 730 q 1063 1009 977 859 m 315 972 q 562 739 441 869 l 460 642 q 215 881 345 774 l 315 972 z "},"华":{"ha":1389,"x_min":66,"x_max":1321,"o":"m 321 652 l 182 512 q 66 591 133 560 q 440 1066 356 807 l 570 1000 q 597 970 598 986 q 566 947 595 954 q 517 903 540 945 q 446 798 475 837 l 446 416 q 454 326 445 411 q 457 292 456 304 l 310 292 q 321 416 319 372 l 321 652 m 249 218 l 653 218 l 653 239 q 643 382 652 274 l 783 364 q 820 348 817 360 q 798 315 823 336 q 781 243 781 301 l 781 218 l 1181 218 q 1315 230 1203 218 l 1315 102 q 1291 104 1307 102 q 1181 112 1197 113 l 781 112 l 781 -34 q 791 -194 783 -104 l 642 -194 q 653 -34 650 -124 l 653 112 l 245 112 q 170 106 232 112 q 110 100 129 102 l 110 230 q 249 218 226 218 m 720 728 l 720 902 q 708 1049 720 924 l 842 1033 q 881 1021 878 1028 q 883 1011 883 1014 q 859 977 883 998 q 844 892 844 968 l 844 788 q 1131 980 1021 877 l 1218 884 q 1237 852 1237 863 q 1234 845 1237 848 q 1175 831 1225 833 q 1089 792 1152 830 q 844 661 1016 747 l 844 526 q 869 479 842 488 q 990 466 893 467 q 1117 477 1086 463 q 1158 536 1151 491 q 1165 637 1164 571 q 1321 580 1251 596 l 1311 549 q 1304 526 1308 541 q 1287 474 1295 493 q 1036 351 1248 347 q 851 357 913 351 q 720 487 722 376 l 720 614 q 555 552 637 581 q 449 659 509 610 q 720 728 581 680 z "},"协":{"ha":1389,"x_min":46,"x_max":1365,"o":"m 1231 502 q 1365 188 1313 354 l 1238 127 q 1132 397 1194 264 l 1105 13 q 1045 -125 1101 -89 q 822 -184 991 -165 q 765 -33 812 -112 q 903 -47 887 -47 q 960 -21 945 -47 q 981 81 976 2 l 1025 695 l 869 682 q 471 -203 873 86 q 351 -117 429 -156 q 741 675 738 88 l 608 665 q 489 645 568 661 l 482 776 q 581 771 542 771 q 608 772 598 771 l 742 780 l 742 820 q 726 1052 741 947 l 879 1034 q 910 1023 908 1031 q 912 1013 912 1016 q 894 983 912 1000 q 872 914 871 962 q 872 834 872 861 q 871 785 871 804 l 1036 798 q 1161 814 1116 807 l 1136 460 l 1231 502 m 328 913 l 328 692 l 345 692 q 461 702 380 693 l 461 580 q 345 589 378 589 l 328 589 l 328 -30 q 338 -206 330 -138 l 189 -206 q 200 -30 197 -130 l 200 589 l 165 589 q 46 580 127 589 l 46 702 q 165 692 119 694 l 200 692 l 200 906 q 189 1056 197 981 l 339 1038 q 370 1021 367 1035 q 347 987 371 1008 q 328 913 327 971 m 496 157 q 359 199 443 182 q 494 517 433 286 l 615 474 q 643 451 642 465 q 621 422 644 437 q 591 385 601 411 q 496 157 546 257 z "},"卓":{"ha":1389,"x_min":85,"x_max":1308,"o":"m 85 70 l 85 202 q 237 189 170 190 l 639 189 l 639 298 l 403 298 q 268 284 355 297 q 277 353 274 323 q 279 414 279 382 l 279 634 q 268 777 279 694 q 403 762 343 761 l 619 762 l 619 932 q 608 1080 618 971 l 754 1062 q 781 1044 779 1058 q 761 1010 783 1030 q 745 948 743 997 l 745 941 l 1121 941 q 1250 952 1183 941 l 1250 825 q 1121 837 1172 837 l 745 837 l 745 762 l 1011 762 q 1160 776 1055 760 q 1146 635 1145 705 l 1146 414 q 1160 284 1146 353 q 1011 298 1078 298 l 766 298 l 766 189 l 1158 189 q 1308 203 1227 190 l 1308 70 q 1158 83 1234 82 l 766 83 l 766 -50 q 778 -193 768 -104 l 628 -193 q 639 -50 637 -116 l 639 83 l 237 83 q 85 70 179 82 m 406 402 l 1019 402 l 1019 478 l 406 478 l 406 402 m 406 658 l 406 583 l 1019 583 l 1019 658 l 406 658 z "},"单":{"ha":1389,"x_min":74,"x_max":1310,"o":"m 1160 296 q 1007 309 1050 310 l 775 309 l 775 191 l 1179 191 q 1310 202 1213 190 l 1310 74 q 1179 87 1211 87 l 775 87 l 775 -87 q 786 -230 775 -133 l 636 -230 q 647 -87 648 -126 l 647 87 l 205 87 q 74 74 178 88 l 74 202 q 205 191 173 190 l 647 191 l 647 309 l 415 309 q 265 296 365 309 q 277 444 277 408 l 277 720 q 265 867 278 739 q 414 854 376 854 l 529 854 q 338 1004 446 934 l 419 1097 q 635 935 531 1025 l 562 854 l 771 854 q 918 1099 844 957 l 1034 1037 q 1059 1007 1060 1022 q 1029 987 1058 992 q 989 952 1010 983 q 975 932 984 945 q 917 854 943 888 l 1007 854 q 1160 867 1052 854 q 1149 719 1148 772 l 1149 444 q 1160 296 1149 382 m 775 531 l 775 413 l 1021 413 l 1021 531 l 775 531 m 1021 751 l 775 751 l 775 633 l 1021 633 l 1021 751 m 403 751 l 403 633 l 647 633 l 647 751 l 403 751 m 403 531 l 403 413 l 647 413 l 647 531 l 403 531 z "},"南":{"ha":1389,"x_min":90,"x_max":1297,"o":"m 399 278 l 399 404 q 538 392 504 391 l 539 392 q 407 505 474 457 l 484 560 l 319 560 l 319 -38 q 329 -178 319 -75 l 183 -178 q 193 -38 193 -95 l 193 532 q 183 677 193 572 q 338 665 290 665 l 597 665 l 612 785 l 245 785 q 90 774 190 785 l 90 901 q 245 890 196 890 l 624 890 q 625 959 625 909 q 618 1060 625 979 q 618 1066 618 1064 l 772 1045 q 803 1027 800 1041 q 782 995 805 1013 q 754 924 758 981 l 750 890 l 1153 890 q 1297 901 1200 890 l 1297 773 q 1153 785 1206 785 l 739 785 l 726 665 l 1054 665 q 1206 677 1098 665 q 1194 536 1194 591 l 1194 -5 q 1140 -123 1197 -90 q 908 -189 1088 -159 q 856 -30 895 -117 q 1002 -47 982 -47 q 1055 -32 1040 -47 q 1068 26 1069 -16 l 1068 560 l 864 560 l 929 526 q 947 505 947 515 q 945 495 947 503 q 914 479 942 486 q 876 454 895 476 q 863 437 872 448 q 825 392 840 408 l 844 392 q 986 405 897 393 l 986 280 q 844 291 890 291 l 749 291 l 749 205 l 896 205 q 1039 216 960 205 l 1039 88 q 896 100 943 100 l 749 100 l 749 -2 q 758 -141 749 -66 l 614 -141 q 625 -2 625 -44 l 625 100 l 490 100 q 349 88 447 100 l 349 216 q 490 205 433 205 l 625 205 l 625 291 l 538 291 q 399 278 494 290 m 682 392 q 802 560 739 465 l 526 560 q 659 446 591 512 l 591 392 l 682 392 z "},"博":{"ha":1389,"x_min":47,"x_max":1335,"o":"m 835 -31 l 739 -123 q 562 55 652 -19 l 615 108 l 521 108 q 390 96 482 108 l 390 224 q 521 212 473 213 l 1003 212 q 990 299 1002 250 l 1086 288 q 1089 323 1086 307 q 1090 349 1090 341 l 916 349 q 925 266 917 312 l 782 266 q 789 349 786 304 l 625 349 q 636 242 625 304 l 492 242 q 503 370 503 333 l 503 633 q 492 768 503 675 q 631 756 568 759 l 791 756 l 791 817 l 575 817 q 439 805 534 817 l 439 931 q 575 919 513 923 l 791 919 l 791 928 q 781 1070 789 984 l 918 1052 q 943 1042 940 1049 q 945 1031 945 1034 q 933 1009 945 1022 q 916 941 913 995 l 916 919 l 1064 919 q 971 973 1031 940 q 957 980 961 977 l 1038 1077 q 1185 985 1114 1036 l 1135 919 l 1160 919 q 1291 931 1206 920 l 1291 805 q 1160 817 1211 817 l 916 817 l 916 756 l 1095 756 q 1229 768 1153 759 q 1218 640 1221 696 l 1218 390 q 1229 259 1218 334 l 1153 259 q 1146 251 1150 255 q 1128 214 1125 235 l 1128 212 l 1204 212 q 1335 224 1254 213 l 1335 96 q 1204 108 1255 105 l 1128 108 l 1128 -30 q 1089 -166 1132 -142 q 871 -210 1055 -195 q 812 -60 854 -146 q 961 -77 940 -77 q 1003 -37 1007 -79 l 1003 108 l 690 108 q 835 -31 753 52 m 47 548 l 47 675 q 172 663 113 667 l 221 663 l 221 897 q 210 1057 218 980 l 354 1038 q 386 1020 383 1037 q 364 984 386 1008 q 346 903 343 972 l 346 663 l 361 663 q 472 675 386 663 l 472 548 q 363 559 376 560 l 346 559 l 346 -39 q 357 -203 349 -133 l 210 -203 q 221 -39 218 -116 l 221 559 l 172 559 q 47 548 147 559 m 1093 658 l 916 658 l 916 597 l 1093 597 l 1093 658 m 1093 503 l 916 503 l 916 442 l 1093 442 l 1093 503 m 625 503 l 625 442 l 791 442 l 791 503 l 625 503 m 625 658 l 625 597 l 791 597 l 791 658 l 625 658 z "},"卜":{"ha":1389,"x_min":596,"x_max":1276,"o":"m 754 -193 l 596 -193 q 608 -22 605 -109 l 608 906 q 596 1073 606 971 l 749 1050 q 778 1035 775 1046 q 761 1000 781 1023 q 744 969 748 986 q 741 913 741 952 l 741 730 q 1276 315 1025 535 l 1179 203 q 741 570 971 399 l 741 -22 q 754 -193 744 -128 z "},"卞":{"ha":1389,"x_min":89,"x_max":1300,"o":"m 1139 640 l 721 640 l 721 505 q 1140 121 946 334 l 1040 33 q 721 351 890 207 l 721 -64 q 733 -223 722 -171 l 581 -223 q 593 -64 591 -163 l 593 640 l 248 640 q 89 627 157 640 l 89 756 q 248 743 157 743 l 1139 743 q 1300 756 1223 745 l 1300 627 q 1139 640 1230 639 m 478 1010 l 579 1095 q 810 842 700 981 l 701 756 q 478 1010 591 906 z "},"卡":{"ha":1389,"x_min":65,"x_max":1300,"o":"m 65 473 l 65 604 q 252 591 149 593 l 547 591 l 547 906 q 538 1077 547 984 l 693 1055 q 713 1037 713 1049 q 689 1000 713 1023 q 679 977 681 994 q 676 913 676 961 l 676 885 l 964 885 q 1133 898 1045 886 l 1133 766 q 964 779 1050 777 l 676 779 l 676 591 l 1111 591 q 1300 602 1208 592 l 1300 473 q 1111 486 1205 484 l 252 486 q 65 473 157 484 m 742 348 q 1143 79 966 210 l 1053 -28 q 688 233 903 90 l 688 -15 q 699 -216 690 -121 l 549 -216 q 559 -15 557 -130 l 559 306 q 549 475 559 376 l 699 454 q 725 437 724 450 q 705 405 727 425 q 688 316 687 393 l 688 283 l 742 348 z "},"卢":{"ha":1389,"x_min":58,"x_max":1293,"o":"m 465 681 l 621 681 l 621 939 q 613 1061 621 959 q 611 1086 612 1078 l 762 1066 q 786 1048 785 1063 q 765 1015 786 1033 q 747 952 747 1000 l 747 941 l 1160 941 q 1293 952 1188 941 l 1293 824 q 1160 834 1215 833 l 747 834 l 747 681 l 1019 681 q 1182 692 1064 682 q 1171 553 1171 595 l 1171 311 q 1182 173 1171 276 l 1035 173 q 1038 195 1036 180 q 1044 251 1044 236 l 437 251 q 200 -220 416 12 q 58 -126 140 -165 q 314 342 311 11 l 314 547 q 302 692 313 588 q 465 681 440 680 m 1044 355 l 1044 577 l 441 577 l 441 355 l 1044 355 z "},"卦":{"ha":1389,"x_min":45,"x_max":1350,"o":"m 962 -33 q 972 -190 965 -125 l 825 -190 q 835 -33 834 -79 l 835 911 q 823 1070 831 989 l 971 1052 q 1002 1036 1000 1048 q 981 1002 1004 1023 q 966 976 970 993 q 962 919 962 959 l 962 623 l 1023 677 q 1350 328 1200 509 l 1238 229 q 962 549 1115 404 l 962 -33 m 367 589 l 367 716 l 254 716 q 122 705 214 715 l 122 830 q 254 820 222 821 l 367 820 l 367 916 q 355 1066 364 973 l 498 1048 q 528 1031 526 1044 q 509 998 531 1018 q 495 975 498 989 q 492 923 492 960 l 492 820 l 590 820 q 720 830 621 821 l 720 705 q 590 716 608 717 l 492 716 l 492 589 l 653 589 q 791 602 718 591 l 791 475 q 653 486 703 485 l 186 486 q 56 475 123 483 l 56 601 q 186 589 138 591 l 367 589 m 45 37 q 372 68 180 42 l 372 246 l 256 246 q 125 237 191 243 l 125 361 q 256 351 219 351 l 372 351 l 372 357 q 363 484 372 390 l 505 469 q 532 452 530 466 q 513 420 534 439 q 497 351 496 410 l 585 351 q 722 361 629 353 l 722 237 q 585 246 646 245 l 497 246 l 497 91 q 772 156 637 113 q 775 24 770 102 q 98 -108 496 -8 l 45 37 z "},"卧":{"ha":1389,"x_min":125,"x_max":1350,"o":"m 530 898 l 530 682 l 628 682 q 711 690 648 682 q 745 695 732 693 q 734 631 736 650 q 732 589 732 610 l 732 389 q 745 263 730 354 q 670 273 694 271 q 619 275 646 275 l 530 275 l 530 16 l 656 16 q 789 30 714 17 l 789 -101 q 656 -87 718 -87 l 286 -87 q 125 -101 214 -87 q 139 56 138 -31 l 139 856 q 125 1015 138 943 q 283 1002 210 1002 l 623 1002 q 770 1015 667 1002 l 770 885 q 623 898 696 898 l 530 898 m 1100 696 q 1350 319 1243 509 l 1234 243 q 996 618 1117 452 l 996 -22 q 1006 -193 996 -119 l 857 -193 q 867 -22 866 -124 l 867 924 q 856 1091 867 1008 l 1003 1073 q 1029 1057 1027 1069 q 1010 1027 1031 1044 q 996 956 994 1021 l 996 638 l 1100 696 m 607 380 l 607 578 l 264 578 l 264 380 l 607 380 m 264 16 l 406 16 l 406 275 l 264 275 l 264 16 m 264 682 l 406 682 l 406 898 l 264 898 l 264 682 z "},"卫":{"ha":1389,"x_min":75,"x_max":1315,"o":"m 204 831 l 204 962 q 363 949 276 950 l 1002 949 q 1185 963 1094 951 q 1168 781 1173 888 l 1150 484 q 1092 279 1145 309 q 810 216 1050 237 q 743 366 789 295 q 792 363 760 365 q 893 359 872 359 q 997 383 973 358 q 1023 488 1021 403 l 1044 842 l 673 842 l 673 17 l 1162 17 q 1315 31 1236 18 l 1315 -104 q 1162 -91 1240 -91 l 225 -91 q 75 -104 160 -92 l 75 30 q 225 17 147 17 l 546 17 l 546 842 l 363 842 q 204 831 286 842 z "},"卯":{"ha":1389,"x_min":127,"x_max":1242,"o":"m 127 -92 q 492 249 453 47 q 454 233 479 243 q 231 121 303 170 q 227 130 229 124 q 155 242 187 209 q 203 298 204 269 l 203 840 q 192 995 202 924 q 306 985 259 985 q 650 1067 515 1006 l 717 959 q 724 936 724 946 q 719 922 724 928 q 700 917 711 917 q 672 922 688 917 q 656 924 666 924 q 596 914 636 924 q 329 871 467 885 l 329 302 l 513 376 q 521 634 521 493 q 505 842 521 751 l 656 824 q 688 808 684 821 q 671 774 692 795 q 655 743 659 764 q 652 674 652 726 q 648 460 652 538 q 636 321 645 375 q 256 -191 616 42 q 127 -92 203 -127 m 753 1002 q 905 987 865 988 l 1086 987 q 1242 1002 1177 987 q 1226 852 1227 938 l 1226 243 q 1184 84 1232 117 q 972 23 1138 41 q 904 173 956 106 q 1022 160 977 163 q 1086 177 1069 159 q 1101 242 1102 193 l 1101 882 l 893 882 l 893 -15 q 903 -167 893 -32 q 904 -191 903 -184 l 754 -191 q 766 -15 764 -80 l 766 854 q 753 1002 765 902 z "},"印":{"ha":1389,"x_min":126,"x_max":1258,"o":"m 157 958 q 199 956 176 956 q 325 968 255 956 q 619 1069 505 1006 l 694 971 q 708 941 708 954 q 705 930 708 935 q 684 922 699 922 q 661 926 675 922 q 641 928 652 928 q 591 919 619 928 q 294 848 463 878 l 294 598 l 503 598 q 640 610 534 597 l 640 483 q 505 494 555 494 l 294 494 l 294 124 q 663 264 494 192 q 646 140 646 184 q 647 123 646 130 q 208 -45 320 17 l 126 68 q 168 152 170 101 l 168 802 q 157 958 165 880 m 722 948 q 864 937 798 939 l 1114 937 q 1258 948 1156 937 q 1247 804 1248 846 l 1247 174 q 1200 43 1251 71 q 978 -5 1155 9 q 918 148 962 71 q 1064 134 1043 133 q 1121 192 1126 130 l 1121 833 l 863 833 l 863 -34 q 872 -210 863 -127 l 724 -210 q 733 -34 732 -127 l 733 804 q 722 948 732 852 z "},"即":{"ha":1389,"x_min":118,"x_max":1247,"o":"m 139 1002 q 275 989 242 989 l 534 989 q 671 1002 572 989 q 659 866 658 919 l 659 460 q 671 331 658 417 q 521 344 553 345 l 277 344 l 277 62 q 457 174 336 95 q 396 263 428 220 l 509 327 q 717 1 614 176 l 604 -71 q 590 -45 600 -62 q 518 83 544 42 q 210 -151 254 -87 l 118 -23 q 151 38 153 1 l 151 866 q 139 1002 149 912 m 277 618 l 277 448 l 534 448 l 534 618 l 277 618 m 277 885 l 277 723 l 534 723 l 534 885 l 277 885 m 779 981 q 937 970 901 970 l 1089 970 q 1247 981 1169 969 q 1235 823 1235 894 l 1235 214 q 1202 60 1240 83 q 1006 13 1172 26 q 935 166 984 97 q 1072 148 1019 150 q 1108 214 1110 144 l 1108 866 l 918 866 l 918 -54 q 929 -209 918 -126 l 781 -209 q 791 -54 791 -133 l 791 827 q 779 981 791 881 z "},"厂":{"ha":1389,"x_min":54,"x_max":1260,"o":"m 375 470 q 192 -212 382 42 q 54 -140 132 -165 q 244 471 245 14 l 244 772 q 233 943 242 861 q 406 932 330 934 l 1093 932 q 1260 945 1145 932 l 1260 806 q 1093 819 1175 817 l 375 819 l 375 470 z "},"历":{"ha":1389,"x_min":31,"x_max":1292,"o":"m 831 507 q 433 -174 797 85 q 302 -91 387 -123 q 701 507 660 92 l 542 507 q 407 496 490 505 l 407 625 q 542 614 488 616 l 713 614 q 715 666 714 641 q 715 691 715 678 q 715 723 715 703 q 705 856 715 786 l 863 834 q 891 814 888 831 q 869 780 892 799 q 848 715 850 764 q 847 688 848 707 q 843 614 845 638 l 1078 614 q 1234 625 1154 617 q 1221 495 1225 574 l 1210 153 q 1139 -81 1208 -34 q 838 -154 1078 -139 q 771 -6 814 -74 q 949 -19 893 -19 q 1052 11 1028 -20 q 1080 136 1078 37 l 1095 507 l 831 507 m 357 463 q 178 -159 365 70 q 31 -92 110 -111 q 186 115 147 -1 q 227 463 228 227 l 227 834 q 215 1006 222 933 q 387 995 293 998 l 1131 995 q 1292 1008 1203 998 l 1292 873 q 1131 885 1175 884 l 357 885 l 357 463 z "},"厉":{"ha":1389,"x_min":18,"x_max":1322,"o":"m 660 623 l 528 623 q 389 613 458 621 l 389 739 q 528 727 459 730 l 1192 727 q 1322 739 1258 730 l 1322 612 q 1192 623 1245 621 l 791 623 q 781 439 789 528 l 1055 439 q 1211 450 1122 441 q 1192 315 1198 369 l 1171 74 q 1109 -123 1161 -89 q 865 -184 1070 -166 q 817 -27 856 -92 q 970 -43 937 -43 q 1020 -21 1006 -43 q 1039 63 1034 -2 q 1058 267 1046 136 q 1064 335 1062 311 l 766 335 q 379 -201 728 10 q 261 -97 315 -126 q 574 164 496 16 q 660 623 659 307 m 345 463 q 165 -159 353 70 q 18 -92 97 -111 q 174 115 135 -1 q 214 463 215 227 l 214 834 q 203 1006 210 928 q 375 995 281 998 l 1137 995 q 1301 1008 1214 998 l 1301 873 q 1137 885 1187 883 l 345 885 l 345 463 z "},"厚":{"ha":1389,"x_min":21,"x_max":1328,"o":"m 328 516 q 174 -173 334 73 q 21 -123 105 -138 q 201 516 206 41 l 201 853 q 191 994 199 910 q 343 983 279 985 l 1118 983 q 1276 995 1211 986 l 1276 867 q 1118 878 1202 875 l 328 878 l 328 516 m 322 39 l 322 169 q 472 156 391 159 l 750 156 l 750 199 q 893 278 817 232 l 533 278 q 401 266 505 277 l 401 392 q 533 380 474 382 l 1029 380 q 1223 395 1119 384 q 893 156 1048 244 l 1178 156 q 1328 169 1272 160 l 1328 39 q 1178 52 1244 50 l 876 52 l 876 -69 q 827 -162 880 -138 q 608 -209 777 -190 q 542 -58 594 -118 q 693 -71 645 -71 q 750 -37 754 -73 l 750 52 l 472 52 q 322 39 431 51 m 1178 840 q 1166 695 1166 713 l 1166 553 q 1178 420 1168 499 q 1035 433 1078 431 l 574 433 q 428 420 534 431 q 439 555 437 502 l 439 695 q 428 840 437 762 q 572 828 505 831 l 1034 828 q 1178 840 1104 831 m 1040 730 l 564 730 l 564 680 l 1040 680 l 1040 730 m 564 581 l 564 531 l 1040 531 l 1040 581 l 564 581 z "},"原":{"ha":1389,"x_min":24,"x_max":1307,"o":"m 436 783 q 600 772 540 772 l 659 772 q 713 901 692 844 l 347 901 l 347 519 q 163 -161 354 153 q 24 -102 98 -121 q 220 562 220 114 l 220 859 q 208 1017 218 924 q 367 1005 315 1006 l 1139 1005 q 1297 1017 1203 1006 l 1297 890 q 1139 901 1212 901 l 799 901 l 852 885 q 877 863 878 878 q 846 840 874 848 q 812 811 825 833 q 787 772 798 788 l 1022 772 q 1185 783 1076 772 q 1174 623 1174 678 l 1174 429 q 1185 263 1175 372 q 1018 275 1084 275 l 890 275 l 890 -48 q 855 -157 895 -140 q 646 -198 827 -180 q 579 -52 625 -127 q 657 -60 608 -54 q 729 -66 722 -66 q 756 -57 750 -66 q 761 -20 762 -52 l 761 275 l 612 275 q 436 264 564 275 q 447 430 447 371 l 447 633 q 436 783 447 673 m 639 87 q 450 -123 559 -24 q 330 -50 395 -73 q 564 229 498 44 l 690 168 q 713 139 716 154 q 681 117 710 124 q 639 87 656 112 m 949 134 l 1038 217 q 1307 -33 1198 86 l 1214 -121 q 949 134 1077 30 m 572 471 l 572 380 l 1047 380 l 1047 471 l 572 471 m 1047 576 l 1047 667 l 572 667 l 572 576 l 1047 576 z "},"厢":{"ha":1389,"x_min":17,"x_max":1311,"o":"m 1258 799 q 1247 649 1247 682 l 1247 -14 q 1258 -162 1249 -85 l 1111 -162 q 1121 -38 1121 -94 l 1121 -34 l 896 -34 l 896 -43 q 907 -177 895 -75 l 760 -177 q 771 -28 770 -86 l 771 649 q 760 799 770 704 q 909 788 848 789 l 1112 788 q 1258 799 1182 789 m 294 539 q 168 -155 299 107 q 17 -112 94 -120 q 167 539 172 56 l 167 846 q 155 1013 166 933 q 328 1002 253 1003 l 1141 1002 q 1311 1015 1219 1003 l 1311 882 q 1141 895 1217 894 l 294 895 l 294 539 m 475 267 q 393 109 454 208 q 272 174 339 151 q 472 531 399 310 l 440 531 q 313 519 401 531 l 313 648 q 440 635 406 635 l 475 635 l 475 722 q 464 871 475 769 l 597 853 q 642 839 640 848 q 614 801 646 830 q 597 722 596 789 l 597 635 l 614 635 q 742 648 659 635 l 742 519 q 614 531 659 531 l 597 531 l 597 479 q 768 309 681 401 l 679 214 q 667 230 675 220 q 597 321 638 272 l 597 -28 q 608 -183 599 -112 l 464 -183 q 475 -28 473 -109 l 475 267 m 1121 220 l 896 220 l 896 70 l 1121 70 l 1121 220 m 1121 452 l 896 452 l 896 321 l 1121 321 l 1121 452 m 896 684 l 896 553 l 1121 553 l 1121 684 l 896 684 z "},"厦":{"ha":1389,"x_min":20,"x_max":1341,"o":"m 1341 -63 q 1255 -197 1286 -116 q 796 -84 963 -164 q 370 -209 643 -155 q 261 -87 332 -145 q 671 -16 477 -84 q 576 55 616 22 l 673 120 q 793 41 734 72 q 917 130 862 80 l 633 130 q 368 -44 530 39 q 256 42 326 -2 q 589 254 488 129 l 583 254 q 463 245 550 254 q 436 242 446 243 q 447 392 447 340 l 447 573 q 435 709 447 606 q 585 696 528 696 l 679 696 l 699 744 l 490 744 q 358 732 456 745 l 358 852 q 490 840 437 840 l 1111 840 q 1251 852 1166 840 l 1251 732 q 1111 744 1147 744 l 843 744 l 819 696 l 1028 696 q 1178 709 1079 696 q 1165 573 1166 625 l 1165 389 q 1177 242 1165 341 q 1026 254 1094 254 l 770 254 q 772 244 772 248 q 742 220 772 229 l 1007 220 q 1187 230 1097 219 q 928 -14 1059 71 q 1341 -63 1083 -62 m 318 527 q 164 -152 322 105 q 20 -88 104 -115 q 191 527 191 52 l 191 836 q 179 1002 189 911 q 349 991 268 991 l 1164 991 q 1322 1004 1246 992 l 1322 877 q 1164 890 1242 888 l 318 890 l 318 527 m 570 609 l 570 572 l 1040 572 l 1040 609 l 570 609 m 1040 492 l 570 492 l 570 456 l 1040 456 l 1040 492 m 1040 341 l 1040 377 l 570 377 l 570 341 l 1040 341 z "},"县":{"ha":1389,"x_min":77,"x_max":1314,"o":"m 786 111 l 884 202 q 1255 -133 1086 42 l 1158 -227 q 1019 -84 1076 -138 q 207 -184 239 -148 l 143 -50 q 256 -9 222 -28 q 524 210 372 66 l 235 210 q 77 198 174 210 l 77 327 q 235 315 165 315 l 311 315 l 311 845 q 298 1004 311 879 q 457 991 382 991 l 947 991 q 1105 1004 1016 991 q 1093 846 1095 927 l 1093 315 l 1156 315 q 1314 327 1230 315 l 1314 198 q 1156 210 1230 210 l 618 210 l 667 177 q 688 144 692 160 q 654 127 684 128 q 581 90 629 129 q 415 -34 512 35 l 918 5 q 786 111 831 77 m 436 437 l 436 315 l 968 315 l 968 437 l 436 437 m 436 886 l 436 764 l 968 764 l 968 886 l 436 886 m 968 541 l 968 661 l 436 661 l 436 541 l 968 541 z "},"叉":{"ha":1389,"x_min":65,"x_max":1336,"o":"m 682 146 q 182 -170 505 -11 q 65 -59 144 -101 q 591 237 363 34 q 285 837 388 470 q 193 824 235 832 l 193 960 q 366 943 279 949 l 929 943 q 1107 963 1021 948 q 768 243 967 455 q 1336 -26 1008 42 q 1218 -159 1269 -69 q 682 146 905 -47 m 427 840 q 681 336 506 540 q 925 840 859 557 l 427 840 m 618 792 q 798 576 732 659 l 696 496 q 519 718 625 600 l 618 792 z "},"友":{"ha":1389,"x_min":39,"x_max":1350,"o":"m 515 416 q 170 2 382 195 q 39 77 119 49 q 503 741 378 311 l 253 741 q 94 728 191 740 l 94 857 q 253 845 181 846 l 526 845 q 546 1088 548 949 l 694 1066 q 728 1048 726 1061 q 703 1016 730 1036 q 681 958 685 1007 q 661 845 673 901 l 1100 845 q 1261 857 1179 846 l 1261 728 q 1100 741 1179 740 l 639 741 q 595 592 621 669 l 945 592 q 1095 606 981 591 q 846 149 975 308 q 1350 -55 1045 -5 q 1236 -186 1266 -120 q 764 62 940 -78 q 278 -212 577 -92 q 170 -94 239 -152 q 673 145 492 -13 q 515 416 575 264 m 621 491 q 755 234 672 332 q 901 491 842 344 l 621 491 z "},"双":{"ha":1389,"x_min":21,"x_max":1365,"o":"m 446 234 q 144 -134 343 53 q 21 -48 106 -85 q 361 347 211 68 q 131 621 252 505 l 237 702 q 249 689 241 698 q 419 483 371 553 q 482 824 471 629 l 256 824 q 106 809 163 825 l 106 943 q 256 928 180 929 l 476 928 q 631 943 564 929 q 616 833 627 920 q 608 763 611 787 q 509 359 574 510 q 679 123 606 241 l 574 28 q 446 234 506 153 m 932 124 q 589 -165 795 -39 q 454 -69 534 -109 q 860 241 694 21 q 692 816 742 487 l 642 809 l 642 943 q 770 928 728 928 l 1075 928 q 1250 939 1177 930 q 1203 739 1229 861 q 1013 235 1144 479 q 1365 -83 1130 56 q 1235 -180 1288 -119 q 932 124 1039 -24 m 1083 824 l 827 824 q 943 380 852 609 q 1083 824 1040 576 z "},"发":{"ha":1389,"x_min":45,"x_max":1336,"o":"m 513 627 l 314 627 q 180 601 258 629 l 114 707 q 178 760 159 728 q 297 1025 252 878 l 427 977 q 454 955 452 967 q 435 930 456 943 q 385 880 399 909 q 304 730 338 794 l 542 730 q 579 1072 579 913 l 721 1048 q 746 1031 744 1044 q 730 1000 749 1019 q 699 923 706 975 q 669 730 680 783 l 1065 730 q 1272 745 1198 733 l 1272 616 q 1065 627 1195 625 l 644 627 q 633 591 640 614 q 604 500 614 532 l 935 500 q 1126 515 1044 502 q 871 96 1025 264 q 1336 -50 1093 -43 q 1229 -191 1270 -115 q 777 17 991 -136 q 309 -210 557 -133 q 204 -85 273 -151 q 686 96 504 -41 q 522 312 603 183 l 647 387 q 777 176 679 262 q 935 399 870 267 l 558 399 q 174 -56 414 132 q 45 28 105 0 q 513 627 389 214 m 823 967 l 907 1056 q 1141 856 1048 950 l 1059 763 q 868 932 988 838 q 823 967 839 955 z "},"叙":{"ha":1389,"x_min":16,"x_max":1375,"o":"m 296 121 q 164 -73 230 13 q 40 -9 116 -36 q 225 275 166 113 l 345 218 q 363 208 358 210 l 363 302 l 225 302 q 93 291 182 300 l 93 414 q 225 404 188 404 l 363 404 l 363 531 l 317 531 q 189 520 281 530 l 189 569 q 156 538 178 558 q 142 526 146 530 q 16 600 88 576 q 374 1078 274 790 l 497 1013 q 530 983 532 995 q 492 956 529 972 q 478 943 486 954 q 665 783 584 854 l 665 902 q 810 890 728 890 l 1096 890 q 1246 901 1177 890 q 1055 194 1200 475 q 1375 -109 1164 9 q 1250 -214 1306 -136 q 977 77 1047 -35 q 664 -223 878 -49 q 547 -129 618 -163 q 907 198 781 11 q 741 781 781 447 l 675 774 q 684 767 677 772 q 733 723 707 747 q 654 630 690 683 l 654 520 q 524 531 558 530 l 490 531 l 490 404 l 610 404 q 739 416 668 406 l 739 291 q 610 302 648 301 l 490 302 l 490 203 l 582 275 q 750 75 661 188 l 648 -5 q 490 194 577 100 l 490 -44 q 439 -165 492 -137 q 225 -201 393 -196 q 186 -56 224 -127 q 253 -63 212 -58 q 306 -68 298 -68 q 363 -40 363 -68 l 363 177 q 346 170 356 173 q 296 121 321 165 m 1097 785 l 873 785 q 983 334 889 568 q 1097 785 1072 528 m 414 850 q 253 637 339 732 q 317 633 295 633 l 524 633 q 625 641 570 634 q 414 850 507 765 z "},"叠":{"ha":1389,"x_min":74,"x_max":1320,"o":"m 1250 496 l 1203 435 q 1304 446 1244 438 q 1292 332 1291 363 l 1292 300 q 1303 192 1291 262 l 1153 192 q 1165 300 1166 269 l 1165 338 l 233 338 l 233 307 q 243 198 233 271 l 98 198 q 109 307 109 269 l 109 332 q 97 446 109 365 q 168 438 124 443 q 195 435 186 436 q 115 509 168 473 q 350 559 275 529 q 287 586 329 568 q 222 613 244 604 l 262 670 q 250 669 258 670 q 139 661 192 667 l 139 763 q 275 752 233 751 l 290 752 q 222 846 269 800 q 366 841 288 842 q 538 854 445 839 q 507 861 528 857 q 422 876 452 871 l 461 956 l 447 956 q 300 945 408 956 l 300 1052 q 447 1041 404 1041 l 986 1041 q 1157 1052 1055 1041 q 882 871 1036 941 q 1146 791 1022 832 l 1125 756 q 1291 768 1160 755 q 1105 566 1185 631 q 1250 496 1175 536 m 309 316 q 337 313 316 315 q 458 304 431 304 l 940 304 q 1075 315 968 304 q 1084 316 1082 316 q 1074 180 1074 214 l 1074 -59 l 1178 -59 q 1320 -50 1227 -60 l 1320 -168 q 1234 -158 1265 -161 q 1178 -155 1204 -155 l 210 -155 q 74 -168 182 -155 l 74 -48 q 210 -59 179 -60 l 319 -59 l 319 180 q 309 316 319 213 m 701 490 l 657 434 l 762 434 q 696 517 742 473 q 896 559 819 526 q 814 587 872 568 q 761 604 777 598 l 808 673 q 730 665 777 671 l 730 767 q 867 756 812 758 l 943 756 q 726 814 835 787 q 376 752 564 772 l 559 752 q 722 764 597 752 q 551 567 646 647 q 701 490 640 525 m 947 176 l 947 214 l 446 214 l 446 176 l 947 176 m 947 -59 l 947 -22 l 446 -22 l 446 -59 l 947 -59 m 446 96 l 446 58 l 947 58 l 947 96 l 446 96 m 1006 510 q 819 434 916 460 l 1161 434 q 1006 510 1089 474 m 593 434 q 457 507 544 463 q 254 434 377 468 l 593 434 m 465 956 q 732 909 587 941 q 840 956 790 930 l 465 956 m 823 673 q 1006 608 938 635 q 1078 674 1037 633 l 867 674 q 823 673 841 674 m 310 670 q 457 609 382 641 q 525 670 487 629 l 310 670 z "},"口":{"ha":1389,"x_min":237,"x_max":1156,"o":"m 237 895 q 412 884 354 883 l 983 884 q 1156 895 1042 883 q 1145 720 1145 800 l 1145 94 q 1156 -69 1145 22 l 1003 -69 q 1006 -49 1004 -62 q 1014 54 1015 21 l 378 54 q 389 -91 380 -21 l 237 -91 q 249 71 248 -2 l 249 723 q 237 895 249 766 m 378 774 l 378 163 l 1014 163 l 1014 774 l 378 774 z "},"古":{"ha":1389,"x_min":77,"x_max":1320,"o":"m 621 1101 l 783 1072 q 814 1052 812 1066 q 791 1019 816 1038 q 762 934 762 995 l 762 767 l 1147 767 q 1320 781 1244 767 l 1320 648 q 1147 661 1244 661 l 762 661 l 762 408 l 965 408 q 1132 420 1049 408 q 1120 256 1120 347 l 1120 -45 q 1133 -197 1120 -134 l 978 -197 q 991 -102 992 -142 l 401 -102 q 414 -216 401 -148 l 264 -216 q 275 -63 275 -174 l 275 256 q 262 421 275 351 q 424 408 345 408 l 635 408 l 635 661 l 249 661 q 77 648 152 661 l 77 781 q 249 767 150 767 l 635 767 l 635 934 q 621 1101 633 1025 m 401 303 l 401 1 l 991 1 l 991 303 l 401 303 z "},"句":{"ha":1389,"x_min":53,"x_max":1264,"o":"m 355 583 q 509 570 450 570 l 754 570 q 914 583 823 571 q 903 430 903 485 l 903 256 q 914 102 903 189 q 764 115 815 115 l 513 115 q 354 102 455 115 q 367 266 367 185 l 367 434 q 355 583 367 467 m 493 466 l 493 218 l 775 218 l 775 466 l 493 466 m 418 780 q 191 412 338 607 q 53 483 137 459 q 382 1085 290 709 l 518 1045 q 549 1020 548 1036 q 519 991 549 1003 q 488 945 502 983 q 472 907 484 933 q 464 886 466 892 l 1122 886 q 1264 899 1153 885 q 1251 720 1251 780 q 1240 18 1250 530 q 1171 -139 1241 -105 q 879 -186 1110 -179 q 811 -37 865 -100 q 853 -39 823 -37 q 987 -47 962 -47 q 1082 -31 1058 -47 q 1105 33 1105 -16 q 1121 780 1118 355 l 418 780 z "},"召":{"ha":1389,"x_min":49,"x_max":1214,"o":"m 1174 372 q 1162 235 1162 254 l 1162 -35 q 1174 -187 1166 -120 l 1023 -187 q 1035 -95 1034 -125 l 441 -95 q 447 -153 442 -110 q 452 -203 450 -188 l 306 -203 q 315 -52 313 -113 l 315 233 q 310 309 315 240 q 304 372 306 352 q 461 360 392 363 l 1025 360 q 1174 372 1072 362 m 441 7 l 1035 7 l 1035 256 l 441 256 l 441 7 m 710 865 q 136 345 664 450 q 49 471 115 414 q 574 865 522 528 l 364 865 q 200 853 269 861 l 200 980 q 364 968 258 972 l 1053 968 q 1214 980 1119 972 q 1197 841 1199 870 l 1187 682 q 1107 473 1183 515 q 785 414 1042 422 q 728 562 779 487 q 913 548 850 548 q 1055 665 1058 541 l 1067 865 l 710 865 z "},"可":{"ha":1389,"x_min":81,"x_max":1320,"o":"m 1320 999 l 1320 867 q 1135 880 1230 878 l 1095 880 l 1095 -18 q 1041 -151 1098 -121 q 799 -191 991 -184 q 724 -40 781 -120 q 790 -46 749 -42 q 885 -52 862 -53 q 951 -39 934 -52 q 966 13 967 -26 l 966 880 l 285 880 q 81 869 165 878 l 81 999 q 281 987 168 989 l 1135 987 q 1320 999 1239 989 m 265 703 q 412 694 373 694 l 633 694 q 785 707 695 694 q 772 573 772 622 l 772 316 q 782 178 772 269 q 625 191 689 191 l 411 191 q 267 178 357 191 q 269 201 267 186 q 277 313 277 281 l 277 574 q 265 703 277 616 m 647 295 l 647 589 l 403 589 l 403 295 l 647 295 z "},"台":{"ha":1389,"x_min":138,"x_max":1254,"o":"m 979 -106 l 404 -106 q 415 -209 404 -135 l 267 -209 q 278 -56 277 -135 l 278 243 q 267 405 278 320 q 428 392 347 392 l 954 392 q 1118 405 1024 392 q 1107 243 1107 323 l 1107 -37 q 1118 -189 1108 -127 l 968 -189 q 979 -106 981 -126 m 1254 548 l 1153 446 q 1065 551 1112 501 q 186 500 254 524 l 138 638 q 298 723 231 655 q 595 1085 490 906 l 718 1025 q 755 994 757 1007 q 713 966 754 980 q 657 927 683 956 q 351 629 553 813 q 555 635 420 631 q 970 649 823 642 q 737 848 879 739 l 828 935 q 1254 548 1055 752 m 979 -3 l 979 288 l 404 288 l 404 -3 l 979 -3 z "},"史":{"ha":1389,"x_min":40,"x_max":1353,"o":"m 40 -64 q 513 90 382 -58 q 329 306 412 177 q 440 373 387 334 q 576 189 489 270 q 624 393 612 271 l 386 393 q 228 382 336 392 q 237 526 236 477 l 237 699 q 228 846 235 761 q 386 836 331 837 l 631 836 l 631 920 q 619 1081 628 985 l 768 1059 q 797 1042 795 1055 q 775 1008 799 1029 q 757 927 756 994 l 757 836 l 1008 836 q 1171 846 1046 836 q 1160 702 1161 745 l 1160 523 q 1171 382 1160 492 q 1010 393 1046 393 l 751 393 q 690 127 741 234 q 1211 -15 920 -9 q 1353 -5 1267 -15 q 1272 -159 1286 -87 q 623 24 853 -124 q 121 -203 475 -136 q 40 -64 109 -146 m 755 498 l 1032 498 l 1032 731 l 757 731 q 756 671 756 715 q 757 620 757 639 q 756 563 757 600 q 755 498 755 523 m 361 498 l 628 498 q 631 731 631 597 l 361 731 l 361 498 z "},"右":{"ha":1389,"x_min":45,"x_max":1304,"o":"m 529 694 l 249 694 q 90 682 175 694 l 90 810 q 249 798 191 798 l 564 798 q 611 1074 602 933 l 755 1052 q 795 1030 791 1046 q 765 999 798 1014 q 736 935 747 994 q 701 798 722 871 l 1146 798 q 1304 810 1202 798 l 1304 682 q 1146 694 1219 694 l 668 694 q 555 465 630 587 l 960 465 q 1126 477 1010 465 q 1116 311 1116 393 l 1116 -11 q 1126 -165 1116 -91 l 974 -165 q 986 -62 987 -86 l 505 -62 q 515 -183 505 -117 l 368 -183 q 379 -31 378 -107 l 379 239 q 168 48 290 146 q 45 160 127 115 q 529 694 379 332 m 505 360 l 505 41 l 986 41 l 986 360 l 505 360 z "},"叶":{"ha":1389,"x_min":85,"x_max":1322,"o":"m 688 642 l 860 642 l 860 937 q 850 1090 859 967 l 1002 1069 q 1036 1050 1034 1065 q 1008 1015 1038 1036 q 994 987 998 1007 q 990 920 990 970 l 990 642 l 1185 642 q 1322 656 1243 642 l 1322 524 q 1185 535 1223 536 l 990 535 l 990 -54 q 1002 -197 991 -117 l 848 -197 q 860 -54 859 -106 l 860 535 l 688 535 q 554 523 645 536 l 554 656 q 688 642 630 642 m 395 178 l 224 178 l 224 172 q 232 50 223 107 l 87 50 q 97 199 96 130 l 97 798 q 85 942 96 872 q 227 928 161 929 l 389 928 q 533 942 431 929 q 521 795 522 869 l 521 239 q 532 90 522 165 l 382 90 q 395 178 392 141 m 395 283 l 395 824 l 224 824 l 224 283 l 395 283 z "},"各":{"ha":1389,"x_min":33,"x_max":1358,"o":"m 1250 271 q 1072 317 1152 294 q 1067 261 1068 286 q 1066 238 1066 249 q 1065 209 1065 227 l 1065 -38 q 1076 -198 1066 -126 l 925 -198 q 936 -124 935 -140 l 479 -124 q 489 -205 480 -142 l 343 -205 q 353 -45 352 -127 l 353 206 q 347 304 353 226 q 346 311 346 309 q 131 241 241 272 q 33 363 96 316 q 599 557 312 399 q 454 710 523 627 l 558 787 q 699 631 616 695 q 880 796 805 710 l 503 796 q 289 531 404 658 q 129 598 232 578 q 484 1074 384 781 l 631 1021 q 653 997 655 1012 q 621 972 649 982 q 587 943 601 967 q 578 927 584 938 q 562 901 568 909 l 977 901 q 1147 914 1026 899 q 799 556 961 686 q 1358 416 1018 420 q 1250 271 1286 363 m 479 -22 l 937 -22 l 937 231 l 479 231 l 479 -22 m 700 478 q 416 338 572 401 q 486 335 448 334 l 933 335 q 970 336 957 335 q 1006 338 987 336 q 700 478 833 395 z "},"合":{"ha":1389,"x_min":25,"x_max":1365,"o":"m 304 349 q 444 338 394 340 l 966 338 q 1112 349 1024 340 q 1101 218 1103 277 l 1101 -35 q 1111 -201 1104 -140 l 962 -201 q 970 -152 964 -186 q 974 -123 973 -129 l 439 -123 q 450 -209 441 -164 l 304 -209 q 315 -55 313 -134 l 315 217 q 304 349 315 239 m 644 1080 l 764 1038 q 788 1012 787 1029 q 765 981 788 995 l 761 979 q 1365 560 973 665 q 1243 442 1287 515 q 1050 549 1147 489 l 1050 467 q 916 479 951 478 l 490 479 q 359 467 455 478 l 359 549 q 151 433 264 490 q 25 553 117 498 q 644 1080 475 650 m 441 -20 l 974 -20 l 974 234 l 441 234 l 441 -20 m 686 882 q 418 588 564 688 q 493 584 465 585 l 916 584 q 987 588 943 585 q 686 882 812 705 z "},"吉":{"ha":1389,"x_min":103,"x_max":1293,"o":"m 244 857 l 627 857 l 627 901 q 615 1074 628 974 l 761 1056 q 798 1036 795 1051 q 771 999 800 1020 q 751 902 751 989 l 751 857 l 1147 857 q 1293 870 1198 859 l 1293 741 q 1147 753 1203 753 l 751 753 l 751 587 l 1040 587 q 1189 600 1106 587 l 1189 470 q 1040 483 1097 482 l 359 483 q 205 470 309 483 l 205 600 q 359 587 289 587 l 627 587 l 627 753 l 244 753 q 103 741 187 754 l 103 870 q 244 857 181 857 m 985 -116 l 410 -116 q 421 -216 412 -155 l 273 -216 q 283 -55 283 -141 l 283 209 q 272 356 284 273 q 433 344 355 343 l 974 344 q 1118 356 1021 344 q 1111 212 1110 291 l 1111 -51 q 1121 -203 1110 -125 l 974 -203 q 979 -168 976 -189 q 985 -116 985 -132 m 985 -14 l 985 239 l 410 239 l 410 -14 l 985 -14 z "},"同":{"ha":1389,"x_min":161,"x_max":1239,"o":"m 330 634 l 330 760 q 463 749 412 751 l 940 749 q 1069 762 1003 752 l 1069 633 q 942 645 968 644 l 463 645 q 330 634 414 644 m 429 539 q 596 527 519 528 l 804 527 q 968 539 895 530 q 957 381 960 471 l 957 271 q 968 113 960 178 q 802 125 883 122 l 593 125 q 427 115 506 123 q 437 273 434 184 l 437 381 q 429 539 436 463 m 562 422 l 562 230 l 832 230 l 832 422 l 562 422 m 161 1008 q 361 998 249 998 l 1059 998 q 1239 1008 1126 1000 q 1227 830 1229 910 l 1227 -37 q 1173 -136 1230 -111 q 945 -172 1118 -163 q 885 -22 947 -104 q 1057 -35 1014 -35 q 1095 -24 1086 -35 q 1103 18 1103 -16 l 1103 891 l 297 891 l 297 -31 q 309 -168 300 -94 l 161 -168 q 172 -31 170 -88 l 172 810 q 161 1008 172 903 z "},"名":{"ha":1389,"x_min":58,"x_max":1214,"o":"m 543 292 l 543 1 l 1067 1 l 1067 292 l 543 292 m 517 722 q 721 557 635 633 q 961 792 855 658 l 525 792 q 257 555 386 654 q 114 653 213 602 q 575 1081 397 777 l 717 1017 q 736 990 740 1007 q 704 968 731 975 q 668 948 684 964 q 648 927 662 941 q 619 897 627 904 l 1051 897 q 1214 913 1186 909 l 1100 763 q 699 397 928 553 l 1014 397 q 1208 413 1142 399 q 1194 230 1196 343 l 1194 10 q 1208 -189 1196 -132 l 1053 -189 q 1067 -102 1066 -140 l 539 -102 q 554 -194 541 -155 l 403 -194 q 415 5 413 -135 l 415 242 q 229 165 355 216 q 164 140 184 148 q 58 271 132 203 q 614 486 327 301 q 428 625 526 568 l 517 722 z "},"后":{"ha":1389,"x_min":53,"x_max":1326,"o":"m 53 -68 q 249 534 259 159 l 249 844 q 237 977 248 886 q 482 963 352 963 q 1162 1044 955 971 l 1244 919 q 1253 896 1253 905 q 1249 885 1253 890 q 1229 878 1242 878 q 1210 881 1221 878 q 1140 888 1181 888 q 1080 885 1111 888 q 376 853 746 850 l 376 682 l 1126 682 q 1326 694 1259 687 l 1326 564 q 1126 576 1262 572 l 376 576 l 376 524 q 191 -138 379 149 q 53 -68 142 -104 m 439 418 q 602 410 528 412 l 1006 410 q 1177 421 1112 414 q 1166 249 1170 337 l 1166 23 q 1177 -172 1171 -84 l 1028 -172 q 1038 -75 1037 -106 l 579 -75 q 589 -178 582 -121 l 440 -178 q 450 10 447 -114 l 450 248 q 439 418 450 357 m 579 30 l 1038 30 l 1038 303 l 579 303 l 579 30 z "},"吐":{"ha":1389,"x_min":98,"x_max":1335,"o":"m 393 123 l 236 123 l 236 112 q 245 -18 239 45 l 98 -18 q 110 111 108 53 l 110 748 q 98 886 108 802 q 249 876 193 878 l 385 876 q 529 886 432 878 q 518 753 520 806 l 518 168 q 529 27 520 115 l 382 27 q 385 48 382 33 q 393 123 393 112 m 700 610 l 842 610 l 842 909 q 831 1073 839 989 l 978 1055 q 1007 1038 1004 1051 q 987 1006 1009 1023 q 970 916 969 995 l 970 610 l 1156 610 q 1286 623 1223 614 l 1286 494 q 1156 506 1188 505 l 970 506 l 970 -20 l 1200 -20 q 1335 -7 1263 -18 l 1335 -136 q 1200 -123 1219 -123 l 608 -123 q 472 -136 589 -123 l 472 -7 q 608 -20 544 -18 l 842 -20 l 842 506 l 701 506 q 566 495 644 504 l 566 623 q 700 610 636 613 m 236 772 l 236 227 l 393 227 l 393 772 l 236 772 z "},"向":{"ha":1389,"x_min":164,"x_max":1221,"o":"m 164 821 q 345 809 259 810 l 359 809 q 465 1070 435 928 l 612 1010 q 641 983 642 998 q 606 956 638 967 q 566 920 583 949 q 507 821 549 889 q 500 809 503 813 l 1040 809 q 1221 821 1123 810 q 1210 654 1211 747 l 1210 -16 q 1166 -146 1215 -123 q 926 -191 1131 -175 q 864 -41 913 -130 q 1021 -54 977 -54 q 1068 -43 1057 -54 q 1079 -5 1080 -35 l 1079 702 l 302 702 l 302 -37 q 311 -177 302 -71 q 313 -190 312 -186 l 164 -190 q 174 -37 174 -85 l 174 654 q 164 821 172 728 m 942 547 q 930 414 930 456 l 930 224 q 940 87 930 165 q 793 99 851 99 l 574 99 q 428 87 514 98 q 440 224 440 180 l 440 413 q 429 547 440 460 q 574 534 515 534 l 798 534 q 942 547 850 534 m 566 203 l 804 203 l 804 430 l 566 430 l 566 203 z "},"吕":{"ha":1389,"x_min":155,"x_max":1235,"o":"m 253 564 q 261 701 261 680 l 261 882 q 250 1021 260 926 q 408 1010 367 1011 l 983 1010 q 1139 1021 1021 1011 q 1131 886 1131 935 l 1131 701 q 1140 564 1132 636 q 1091 568 1124 566 q 989 576 1003 576 l 407 576 q 321 570 393 576 q 253 564 271 566 m 386 906 l 386 680 l 1003 680 l 1003 906 l 386 906 m 1096 -71 l 294 -71 q 306 -195 297 -126 l 157 -195 q 167 -52 165 -98 l 167 304 q 155 441 165 348 q 311 430 249 431 l 1076 430 q 1235 441 1114 430 q 1226 304 1227 374 l 1226 -45 q 1235 -170 1227 -104 l 1083 -170 q 1096 -71 1095 -106 m 1096 35 l 1096 323 l 294 323 l 294 35 l 1096 35 z "},"君":{"ha":1389,"x_min":11,"x_max":1321,"o":"m 205 535 q 339 524 295 524 l 449 524 q 479 650 470 598 l 225 650 q 78 638 175 651 l 78 764 q 225 755 178 754 l 493 755 q 497 878 497 812 l 361 878 q 232 866 338 879 l 232 992 q 364 980 330 979 l 990 980 q 1139 992 1021 979 q 1128 849 1127 890 l 1128 755 l 1171 755 q 1321 764 1230 754 l 1321 638 q 1171 650 1219 651 l 1128 650 l 1128 556 q 1139 412 1127 505 q 990 422 1034 423 l 546 422 q 489 307 520 364 q 554 304 515 304 l 1018 304 q 1164 316 1041 303 q 1154 178 1154 225 l 1154 -75 q 1164 -198 1154 -120 l 1017 -198 q 1021 -157 1018 -183 q 1025 -113 1024 -127 l 541 -113 l 550 -206 l 403 -206 q 414 -73 414 -115 l 414 165 q 412 205 414 186 q 150 -24 304 81 q 11 79 103 39 q 408 422 279 186 l 338 422 q 205 412 302 423 l 205 535 m 539 201 l 539 -11 l 1026 -11 l 1026 201 l 539 201 m 607 650 q 581 524 596 578 l 1000 524 l 1000 650 l 607 650 m 629 878 q 621 755 627 812 l 1000 755 l 1000 878 l 629 878 z "},"含":{"ha":1389,"x_min":5,"x_max":1377,"o":"m 631 317 q 821 481 751 391 l 467 481 q 332 469 439 480 l 332 592 q 134 475 240 534 q 5 588 70 545 q 623 1102 446 723 l 760 1053 q 787 1029 785 1044 q 761 1008 786 1015 q 746 1000 752 1006 q 1377 614 990 687 q 1219 488 1276 554 q 1050 581 1127 535 q 793 281 938 411 l 957 281 q 1101 294 1024 284 q 1092 155 1092 173 l 1092 -50 q 1101 -201 1094 -123 l 954 -201 q 964 -127 960 -173 l 403 -127 q 412 -215 406 -173 l 265 -215 q 275 -62 274 -115 l 275 155 q 265 294 275 177 q 411 281 358 283 l 686 281 l 631 317 m 401 177 l 401 -24 l 965 -24 l 965 177 l 401 177 m 553 715 l 640 804 q 808 669 716 744 l 730 585 l 884 585 q 1031 593 956 587 q 672 907 809 729 q 336 595 530 722 q 467 585 407 587 l 710 585 q 553 715 638 656 z "},"启":{"ha":1389,"x_min":85,"x_max":1244,"o":"m 551 985 l 616 1091 q 909 949 785 1017 l 852 857 l 1047 857 q 1214 870 1118 859 q 1202 731 1202 798 l 1202 602 q 1214 458 1202 532 q 1047 471 1127 470 l 449 471 q 216 -172 460 119 q 85 -98 145 -123 q 323 500 323 92 l 323 706 q 311 870 323 800 q 478 857 403 858 l 821 857 q 551 985 696 932 m 457 361 q 615 348 549 348 l 1086 348 q 1244 361 1164 349 q 1231 212 1232 289 l 1231 -27 q 1242 -190 1231 -122 l 1096 -190 q 1099 -170 1097 -182 q 1108 -105 1109 -123 l 595 -105 q 606 -206 596 -141 l 460 -206 q 471 -44 471 -129 l 471 209 q 457 361 471 253 m 595 -2 l 1108 -2 l 1108 243 l 595 243 l 595 -2 m 449 753 l 449 576 l 1076 576 l 1076 753 l 449 753 z "},"吴":{"ha":1389,"x_min":36,"x_max":1336,"o":"m 1284 189 q 1137 202 1206 201 l 827 202 q 1336 -54 1004 -5 q 1238 -195 1265 -116 q 694 178 830 -53 q 131 -178 583 -50 q 36 -47 100 -100 q 559 202 392 -12 l 256 202 q 109 189 194 201 l 109 320 q 256 306 185 307 l 610 306 q 632 439 625 378 l 368 439 q 221 429 296 439 l 221 557 q 368 544 298 545 l 1018 544 q 1165 557 1090 545 l 1165 427 q 1018 439 1090 438 l 765 439 q 758 387 762 420 q 745 306 750 335 l 1137 306 q 1284 320 1201 307 l 1284 189 m 1136 1016 q 1122 888 1122 931 l 1122 758 q 1136 630 1122 709 q 981 644 1048 643 l 416 644 q 267 630 357 644 q 279 758 279 707 l 279 891 q 267 1016 280 941 q 414 1002 359 1002 l 979 1002 q 1136 1016 1024 1002 m 406 748 l 997 748 l 997 898 l 406 898 l 406 748 z "}}}
